%TF.GenerationSoftware,KiCad,Pcbnew,9.0.6*%
%TF.CreationDate,2026-06-16T19:44:00-04:00*%
%TF.ProjectId,keyboardepi pico,6b657962-6f61-4726-9465-706920706963,rev?*%
%TF.SameCoordinates,Original*%
%TF.FileFunction,Copper,L1,Top*%
%TF.FilePolarity,Positive*%
%FSLAX46Y46*%
G04 Gerber Fmt 4.6, Leading zero omitted, Abs format (unit mm)*
G04 Created by KiCad (PCBNEW 9.0.6) date 2026-06-16 19:44:00*
%MOMM*%
%LPD*%
G01*
G04 APERTURE LIST*
G04 Aperture macros list*
%AMRoundRect*
0 Rectangle with rounded corners*
0 $1 Rounding radius*
0 $2 $3 $4 $5 $6 $7 $8 $9 X,Y pos of 4 corners*
0 Add a 4 corners polygon primitive as box body*
4,1,4,$2,$3,$4,$5,$6,$7,$8,$9,$2,$3,0*
0 Add four circle primitives for the rounded corners*
1,1,$1+$1,$2,$3*
1,1,$1+$1,$4,$5*
1,1,$1+$1,$6,$7*
1,1,$1+$1,$8,$9*
0 Add four rect primitives between the rounded corners*
20,1,$1+$1,$2,$3,$4,$5,0*
20,1,$1+$1,$4,$5,$6,$7,0*
20,1,$1+$1,$6,$7,$8,$9,0*
20,1,$1+$1,$8,$9,$2,$3,0*%
G04 Aperture macros list end*
%TA.AperFunction,SMDPad,CuDef*%
%ADD10RoundRect,0.090000X-0.660000X-0.360000X0.660000X-0.360000X0.660000X0.360000X-0.660000X0.360000X0*%
%TD*%
%TA.AperFunction,ComponentPad*%
%ADD11R,1.600000X1.600000*%
%TD*%
%TA.AperFunction,ComponentPad*%
%ADD12O,1.600000X1.600000*%
%TD*%
%TA.AperFunction,ComponentPad*%
%ADD13O,1.700000X1.700000*%
%TD*%
%TA.AperFunction,ComponentPad*%
%ADD14R,1.700000X1.700000*%
%TD*%
%TA.AperFunction,ViaPad*%
%ADD15C,0.600000*%
%TD*%
%TA.AperFunction,Conductor*%
%ADD16C,0.200000*%
%TD*%
G04 APERTURE END LIST*
D10*
%TO.P,D17,1,VDD*%
%TO.N,5V*%
X51137400Y-33833800D03*
%TO.P,D17,2,DOUT*%
%TO.N,Net-(D17-DOUT)*%
X51137400Y-37133800D03*
%TO.P,D17,3,VSS*%
%TO.N,GND*%
X56037400Y-37133800D03*
%TO.P,D17,4,DIN*%
%TO.N,Net-(D14-DOUT)*%
X56037400Y-33833800D03*
%TD*%
%TO.P,D59,1,VDD*%
%TO.N,5V*%
X173209800Y-33835800D03*
%TO.P,D59,2,DOUT*%
%TO.N,Net-(D59-DOUT)*%
X173209800Y-37135800D03*
%TO.P,D59,3,VSS*%
%TO.N,GND*%
X178109800Y-37135800D03*
%TO.P,D59,4,DIN*%
%TO.N,Net-(D47-DOUT)*%
X178109800Y-33835800D03*
%TD*%
%TO.P,D66,1,VDD*%
%TO.N,5V*%
X248774800Y-33861200D03*
%TO.P,D66,2,DOUT*%
%TO.N,unconnected-(D66-DOUT-Pad2)*%
X248774800Y-37161200D03*
%TO.P,D66,3,VSS*%
%TO.N,GND*%
X253674800Y-37161200D03*
%TO.P,D66,4,DIN*%
%TO.N,Net-(D65-DOUT)*%
X253674800Y-33861200D03*
%TD*%
%TO.P,D64,1,VDD*%
%TO.N,5V*%
X201505400Y-33859200D03*
%TO.P,D64,2,DOUT*%
%TO.N,Net-(D64-DOUT)*%
X201505400Y-37159200D03*
%TO.P,D64,3,VSS*%
%TO.N,GND*%
X206405400Y-37159200D03*
%TO.P,D64,4,DIN*%
%TO.N,Net-(D59-DOUT)*%
X206405400Y-33859200D03*
%TD*%
%TO.P,D32,1,VDD*%
%TO.N,5V*%
X97009800Y-33935400D03*
%TO.P,D32,2,DOUT*%
%TO.N,Net-(D32-DOUT)*%
X97009800Y-37235400D03*
%TO.P,D32,3,VSS*%
%TO.N,GND*%
X101909800Y-37235400D03*
%TO.P,D32,4,DIN*%
%TO.N,Net-(D29-DOUT)*%
X101909800Y-33935400D03*
%TD*%
%TO.P,D29,1,VDD*%
%TO.N,5V*%
X71203400Y-33785000D03*
%TO.P,D29,2,DOUT*%
%TO.N,Net-(D29-DOUT)*%
X71203400Y-37085000D03*
%TO.P,D29,3,VSS*%
%TO.N,GND*%
X76103400Y-37085000D03*
%TO.P,D29,4,DIN*%
%TO.N,Net-(D17-DOUT)*%
X76103400Y-33785000D03*
%TD*%
%TO.P,D44,1,VDD*%
%TO.N,5V*%
X121444600Y-33808400D03*
%TO.P,D44,2,DOUT*%
%TO.N,Net-(D44-DOUT)*%
X121444600Y-37108400D03*
%TO.P,D44,3,VSS*%
%TO.N,GND*%
X126344600Y-37108400D03*
%TO.P,D44,4,DIN*%
%TO.N,Net-(D32-DOUT)*%
X126344600Y-33808400D03*
%TD*%
%TO.P,D14,1,VDD*%
%TO.N,5V*%
X27210600Y-33757600D03*
%TO.P,D14,2,DOUT*%
%TO.N,Net-(D14-DOUT)*%
X27210600Y-37057600D03*
%TO.P,D14,3,VSS*%
%TO.N,GND*%
X32110600Y-37057600D03*
%TO.P,D14,4,DIN*%
%TO.N,Data in LED*%
X32110600Y-33757600D03*
%TD*%
%TO.P,D47,1,VDD*%
%TO.N,5V*%
X148622600Y-33783000D03*
%TO.P,D47,2,DOUT*%
%TO.N,Net-(D47-DOUT)*%
X148622600Y-37083000D03*
%TO.P,D47,3,VSS*%
%TO.N,GND*%
X153522600Y-37083000D03*
%TO.P,D47,4,DIN*%
%TO.N,Net-(D44-DOUT)*%
X153522600Y-33783000D03*
%TD*%
%TO.P,D65,1,VDD*%
%TO.N,5V*%
X224543200Y-33734200D03*
%TO.P,D65,2,DOUT*%
%TO.N,Net-(D65-DOUT)*%
X224543200Y-37034200D03*
%TO.P,D65,3,VSS*%
%TO.N,GND*%
X229443200Y-37034200D03*
%TO.P,D65,4,DIN*%
%TO.N,Net-(D64-DOUT)*%
X229443200Y-33734200D03*
%TD*%
D11*
%TO.P,D15,1,K*%
%TO.N,row0*%
X263047400Y-55017400D03*
D12*
%TO.P,D15,2,A*%
%TO.N,Net-(D15-A)*%
X263047400Y-47397400D03*
%TD*%
D11*
%TO.P,D31,1,K*%
%TO.N,row2*%
X28961000Y-89688400D03*
D12*
%TO.P,D31,2,A*%
%TO.N,Net-(D31-A)*%
X28961000Y-82068400D03*
%TD*%
D11*
%TO.P,D68,1,K*%
%TO.N,row4*%
X207802400Y-123673600D03*
D12*
%TO.P,D68,2,A*%
%TO.N,Net-(D68-A)*%
X207802400Y-116053600D03*
%TD*%
D11*
%TO.P,D12,1,K*%
%TO.N,row0*%
X226852400Y-55093600D03*
D12*
%TO.P,D12,2,A*%
%TO.N,Net-(D12-A)*%
X226852400Y-47473600D03*
%TD*%
D11*
%TO.P,D7,1,K*%
%TO.N,row0*%
X137139600Y-54992000D03*
D12*
%TO.P,D7,2,A*%
%TO.N,Net-(D7-A)*%
X137139600Y-47372000D03*
%TD*%
D11*
%TO.P,D37,1,K*%
%TO.N,row2*%
X118953200Y-89078800D03*
D12*
%TO.P,D37,2,A*%
%TO.N,Net-(D37-A)*%
X118953200Y-81458800D03*
%TD*%
D11*
%TO.P,D2,1,K*%
%TO.N,row0*%
X46918800Y-55068200D03*
D12*
%TO.P,D2,2,A*%
%TO.N,Net-(D2-A)*%
X46918800Y-47448200D03*
%TD*%
D11*
%TO.P,D5,1,K*%
%TO.N,row0*%
X100995400Y-55271400D03*
D12*
%TO.P,D5,2,A*%
%TO.N,Net-(D5-A)*%
X100995400Y-47651400D03*
%TD*%
D11*
%TO.P,D63,1,K*%
%TO.N,row4*%
X65460800Y-123546600D03*
D12*
%TO.P,D63,2,A*%
%TO.N,Net-(D63-A)*%
X65460800Y-115926600D03*
%TD*%
D11*
%TO.P,D39,1,K*%
%TO.N,row2*%
X155046600Y-89231200D03*
D12*
%TO.P,D39,2,A*%
%TO.N,Net-(D39-A)*%
X155046600Y-81611200D03*
%TD*%
D11*
%TO.P,D22,1,K*%
%TO.N,row1*%
X119054800Y-71908400D03*
D12*
%TO.P,D22,2,A*%
%TO.N,Net-(D22-A)*%
X119054800Y-64288400D03*
%TD*%
D11*
%TO.P,D75,1,K*%
%TO.N,row4*%
X263784000Y-124435600D03*
D12*
%TO.P,D75,2,A*%
%TO.N,Net-(D75-A)*%
X263784000Y-116815600D03*
%TD*%
D11*
%TO.P,D21,1,K*%
%TO.N,row1*%
X100944600Y-72086200D03*
D12*
%TO.P,D21,2,A*%
%TO.N,Net-(D21-A)*%
X100944600Y-64466200D03*
%TD*%
D11*
%TO.P,D24,1,K*%
%TO.N,row1*%
X154945000Y-72010000D03*
D12*
%TO.P,D24,2,A*%
%TO.N,Net-(D24-A)*%
X154945000Y-64390000D03*
%TD*%
D11*
%TO.P,D43,1,K*%
%TO.N,row2*%
X227563600Y-88774000D03*
D12*
%TO.P,D43,2,A*%
%TO.N,Net-(D43-A)*%
X227563600Y-81154000D03*
%TD*%
D11*
%TO.P,D45,1,K*%
%TO.N,row2*%
X247959800Y-89612200D03*
D12*
%TO.P,D45,2,A*%
%TO.N,Net-(D45-A)*%
X247959800Y-81992200D03*
%TD*%
D11*
%TO.P,D8,1,K*%
%TO.N,row0*%
X155072000Y-55042800D03*
D12*
%TO.P,D8,2,A*%
%TO.N,Net-(D8-A)*%
X155072000Y-47422800D03*
%TD*%
D11*
%TO.P,D11,1,K*%
%TO.N,row0*%
X208894600Y-54941200D03*
D12*
%TO.P,D11,2,A*%
%TO.N,Net-(D11-A)*%
X208894600Y-47321200D03*
%TD*%
D11*
%TO.P,D41,1,K*%
%TO.N,row2*%
X190962200Y-88926400D03*
D12*
%TO.P,D41,2,A*%
%TO.N,Net-(D41-A)*%
X190962200Y-81306400D03*
%TD*%
D11*
%TO.P,D120,1,K*%
%TO.N,row1*%
X244911800Y-72111600D03*
D12*
%TO.P,D120,2,A*%
%TO.N,Net-(D120-A)*%
X244911800Y-64491600D03*
%TD*%
D11*
%TO.P,D27,1,K*%
%TO.N,row1*%
X208920000Y-72035400D03*
D12*
%TO.P,D27,2,A*%
%TO.N,Net-(D27-A)*%
X208920000Y-64415400D03*
%TD*%
D11*
%TO.P,D34,1,K*%
%TO.N,row2*%
X64952800Y-88850200D03*
D12*
%TO.P,D34,2,A*%
%TO.N,Net-(D34-A)*%
X64952800Y-81230200D03*
%TD*%
D11*
%TO.P,D30,1,K*%
%TO.N,row1*%
X263072800Y-72365600D03*
D12*
%TO.P,D30,2,A*%
%TO.N,Net-(D30-A)*%
X263072800Y-64745600D03*
%TD*%
D11*
%TO.P,D26,1,K*%
%TO.N,row1*%
X190911400Y-72264000D03*
D12*
%TO.P,D26,2,A*%
%TO.N,Net-(D26-A)*%
X190911400Y-64644000D03*
%TD*%
D11*
%TO.P,D61,1,K*%
%TO.N,row4*%
X28910200Y-123140200D03*
D12*
%TO.P,D61,2,A*%
%TO.N,Net-(D61-A)*%
X28910200Y-115520200D03*
%TD*%
D11*
%TO.P,D40,1,K*%
%TO.N,row2*%
X173004400Y-89282000D03*
D12*
%TO.P,D40,2,A*%
%TO.N,Net-(D40-A)*%
X173004400Y-81662000D03*
%TD*%
D11*
%TO.P,D6,1,K*%
%TO.N,row0*%
X118902400Y-54687200D03*
D12*
%TO.P,D6,2,A*%
%TO.N,Net-(D6-A)*%
X118902400Y-47067200D03*
%TD*%
D13*
%TO.P,U1,1,GPIO0*%
%TO.N,col0*%
X289234800Y-36018200D03*
%TO.P,U1,2,GPIO1*%
%TO.N,col1*%
X289234800Y-38558200D03*
D14*
%TO.P,U1,3,GND*%
%TO.N,unconnected-(U1-GND-Pad3)*%
X289234800Y-41098200D03*
D13*
%TO.P,U1,4,GPIO2*%
%TO.N,col2*%
X289234800Y-43638200D03*
%TO.P,U1,5,GPIO3*%
%TO.N,col3*%
X289234800Y-46178200D03*
%TO.P,U1,6,GPIO4*%
%TO.N,col4*%
X289234800Y-48718200D03*
%TO.P,U1,7,GPIO5*%
%TO.N,col5*%
X289234800Y-51258200D03*
D14*
%TO.P,U1,8,GND*%
%TO.N,unconnected-(U1-GND-Pad8)*%
X289234800Y-53798200D03*
D13*
%TO.P,U1,9,GPIO6*%
%TO.N,col6*%
X289234800Y-56338200D03*
%TO.P,U1,10,GPIO7*%
%TO.N,col7*%
X289234800Y-58878200D03*
%TO.P,U1,11,GPIO8*%
%TO.N,col8*%
X289234800Y-61418200D03*
%TO.P,U1,12,GPIO9*%
%TO.N,col9*%
X289234800Y-63958200D03*
D14*
%TO.P,U1,13,GND*%
%TO.N,unconnected-(U1-GND-Pad13)*%
X289234800Y-66498200D03*
D13*
%TO.P,U1,14,GPIO10*%
%TO.N,col10*%
X289234800Y-69038200D03*
%TO.P,U1,15,GPIO11*%
%TO.N,col11*%
X289234800Y-71578200D03*
%TO.P,U1,16,GPIO12*%
%TO.N,col12*%
X289234800Y-74118200D03*
%TO.P,U1,17,GPIO13*%
%TO.N,col13*%
X289234800Y-76658200D03*
D14*
%TO.P,U1,18,GND*%
%TO.N,unconnected-(U1-GND-Pad18)*%
X289234800Y-79198200D03*
D13*
%TO.P,U1,19,GPIO14*%
%TO.N,col14*%
X289234800Y-81738200D03*
%TO.P,U1,20,GPIO15*%
%TO.N,unconnected-(U1-GPIO15-Pad20)*%
X289234800Y-84278200D03*
%TO.P,U1,21,GPIO16*%
%TO.N,row0*%
X271454800Y-84278200D03*
%TO.P,U1,22,GPIO17*%
%TO.N,row1*%
X271454800Y-81738200D03*
D14*
%TO.P,U1,23,GND*%
%TO.N,unconnected-(U1-GND-Pad23)*%
X271454800Y-79198200D03*
D13*
%TO.P,U1,24,GPIO18*%
%TO.N,row2*%
X271454800Y-76658200D03*
%TO.P,U1,25,GPIO19*%
%TO.N,row3*%
X271454800Y-74118200D03*
%TO.P,U1,26,GPIO20*%
%TO.N,row4*%
X271454800Y-71578200D03*
%TO.P,U1,27,GPIO21*%
%TO.N,unconnected-(U1-GPIO21-Pad27)*%
X271454800Y-69038200D03*
D14*
%TO.P,U1,28,GND*%
%TO.N,unconnected-(U1-GND-Pad28)*%
X271454800Y-66498200D03*
D13*
%TO.P,U1,29,GPIO22*%
%TO.N,Data in LED*%
X271454800Y-63958200D03*
%TO.P,U1,30,RUN*%
%TO.N,unconnected-(U1-RUN-Pad30)*%
X271454800Y-61418200D03*
%TO.P,U1,31,GPIO26_ADC0*%
%TO.N,unconnected-(U1-GPIO26_ADC0-Pad31)*%
X271454800Y-58878200D03*
%TO.P,U1,32,GPIO27_ADC1*%
%TO.N,unconnected-(U1-GPIO27_ADC1-Pad32)*%
X271454800Y-56338200D03*
D14*
%TO.P,U1,33,AGND*%
%TO.N,unconnected-(U1-AGND-Pad33)*%
X271454800Y-53798200D03*
D13*
%TO.P,U1,34,GPIO28_ADC2*%
%TO.N,unconnected-(U1-GPIO28_ADC2-Pad34)*%
X271454800Y-51258200D03*
%TO.P,U1,35,ADC_VREF*%
%TO.N,unconnected-(U1-ADC_VREF-Pad35)*%
X271454800Y-48718200D03*
%TO.P,U1,36,3V3*%
%TO.N,unconnected-(U1-3V3-Pad36)*%
X271454800Y-46178200D03*
%TO.P,U1,37,3V3_EN*%
%TO.N,unconnected-(U1-3V3_EN-Pad37)*%
X271454800Y-43638200D03*
D14*
%TO.P,U1,38,GND*%
%TO.N,GND*%
X271454800Y-41098200D03*
D13*
%TO.P,U1,39,VSYS*%
%TO.N,unconnected-(U1-VSYS-Pad39)*%
X271454800Y-38558200D03*
%TO.P,U1,40,VBUS*%
%TO.N,5V*%
X271454800Y-36018200D03*
%TO.P,U1,41,SWCLK*%
%TO.N,unconnected-(U1-SWCLK-Pad41)*%
X282884800Y-84048200D03*
D14*
%TO.P,U1,42,GND*%
%TO.N,unconnected-(U1-GND-Pad42)*%
X280344800Y-84048200D03*
D13*
%TO.P,U1,43,SWDIO*%
%TO.N,unconnected-(U1-SWDIO-Pad43)*%
X277804800Y-84048200D03*
%TD*%
D11*
%TO.P,D62,1,K*%
%TO.N,row4*%
X46893400Y-123216400D03*
D12*
%TO.P,D62,2,A*%
%TO.N,Net-(D62-A)*%
X46893400Y-115596400D03*
%TD*%
D11*
%TO.P,D36,1,K*%
%TO.N,row2*%
X100919200Y-89358200D03*
D12*
%TO.P,D36,2,A*%
%TO.N,Net-(D36-A)*%
X100919200Y-81738200D03*
%TD*%
D11*
%TO.P,D20,1,K*%
%TO.N,row1*%
X83088400Y-71984600D03*
D12*
%TO.P,D20,2,A*%
%TO.N,Net-(D20-A)*%
X83088400Y-64364600D03*
%TD*%
D11*
%TO.P,D54,1,K*%
%TO.N,row3*%
X154868800Y-106985800D03*
D12*
%TO.P,D54,2,A*%
%TO.N,Net-(D54-A)*%
X154868800Y-99365800D03*
%TD*%
D11*
%TO.P,D33,1,K*%
%TO.N,row2*%
X47071200Y-89028000D03*
D12*
%TO.P,D33,2,A*%
%TO.N,Net-(D33-A)*%
X47071200Y-81408000D03*
%TD*%
D11*
%TO.P,D55,1,K*%
%TO.N,row3*%
X172953600Y-106833400D03*
D12*
%TO.P,D55,2,A*%
%TO.N,Net-(D55-A)*%
X172953600Y-99213400D03*
%TD*%
D11*
%TO.P,D28,1,K*%
%TO.N,row1*%
X226928600Y-72213200D03*
D12*
%TO.P,D28,2,A*%
%TO.N,Net-(D28-A)*%
X226928600Y-64593200D03*
%TD*%
D11*
%TO.P,D50,1,K*%
%TO.N,row3*%
X83063000Y-106173000D03*
D12*
%TO.P,D50,2,A*%
%TO.N,Net-(D50-A)*%
X83063000Y-98553000D03*
%TD*%
D11*
%TO.P,D35,1,K*%
%TO.N,row2*%
X82936000Y-89383600D03*
D12*
%TO.P,D35,2,A*%
%TO.N,Net-(D35-A)*%
X82936000Y-81763600D03*
%TD*%
D11*
%TO.P,D1,1,K*%
%TO.N,row0*%
X28859400Y-54966600D03*
D12*
%TO.P,D1,2,A*%
%TO.N,Net-(D1-A)*%
X28859400Y-47346600D03*
%TD*%
D11*
%TO.P,D18,1,K*%
%TO.N,row1*%
X46969600Y-71959200D03*
D12*
%TO.P,D18,2,A*%
%TO.N,Net-(D18-A)*%
X46969600Y-64339200D03*
%TD*%
D11*
%TO.P,D74,1,K*%
%TO.N,row4*%
X244835600Y-124257800D03*
D12*
%TO.P,D74,2,A*%
%TO.N,Net-(D74-A)*%
X244835600Y-116637800D03*
%TD*%
D11*
%TO.P,D3,1,K*%
%TO.N,row0*%
X65003600Y-54966600D03*
D12*
%TO.P,D3,2,A*%
%TO.N,Net-(D3-A)*%
X65003600Y-47346600D03*
%TD*%
D11*
%TO.P,D13,1,K*%
%TO.N,row0*%
X244962600Y-54992000D03*
D12*
%TO.P,D13,2,A*%
%TO.N,Net-(D13-A)*%
X244962600Y-47372000D03*
%TD*%
D11*
%TO.P,D38,1,K*%
%TO.N,row2*%
X136936400Y-89332800D03*
D12*
%TO.P,D38,2,A*%
%TO.N,Net-(D38-A)*%
X136936400Y-81712800D03*
%TD*%
D11*
%TO.P,D4,1,K*%
%TO.N,row0*%
X82936000Y-55474600D03*
D12*
%TO.P,D4,2,A*%
%TO.N,Net-(D4-A)*%
X82936000Y-47854600D03*
%TD*%
D11*
%TO.P,D25,1,K*%
%TO.N,row1*%
X172953600Y-71933800D03*
D12*
%TO.P,D25,2,A*%
%TO.N,Net-(D25-A)*%
X172953600Y-64313800D03*
%TD*%
D11*
%TO.P,D58,1,K*%
%TO.N,row3*%
X227258800Y-106858800D03*
D12*
%TO.P,D58,2,A*%
%TO.N,Net-(D58-A)*%
X227258800Y-99238800D03*
%TD*%
D11*
%TO.P,D23,1,K*%
%TO.N,row1*%
X137063400Y-71857600D03*
D12*
%TO.P,D23,2,A*%
%TO.N,Net-(D23-A)*%
X137063400Y-64237600D03*
%TD*%
D11*
%TO.P,D57,1,K*%
%TO.N,row3*%
X208920000Y-106604800D03*
D12*
%TO.P,D57,2,A*%
%TO.N,Net-(D57-A)*%
X208920000Y-98984800D03*
%TD*%
D11*
%TO.P,D56,1,K*%
%TO.N,row3*%
X191089200Y-106782600D03*
D12*
%TO.P,D56,2,A*%
%TO.N,Net-(D56-A)*%
X191089200Y-99162600D03*
%TD*%
D11*
%TO.P,D52,1,K*%
%TO.N,row3*%
X118877000Y-107468400D03*
D12*
%TO.P,D52,2,A*%
%TO.N,Net-(D52-A)*%
X118877000Y-99848400D03*
%TD*%
D11*
%TO.P,D51,1,K*%
%TO.N,row3*%
X100893800Y-107163600D03*
D12*
%TO.P,D51,2,A*%
%TO.N,Net-(D51-A)*%
X100893800Y-99543600D03*
%TD*%
D11*
%TO.P,D60,1,K*%
%TO.N,row3*%
X247858200Y-106427000D03*
D12*
%TO.P,D60,2,A*%
%TO.N,Net-(D60-A)*%
X247858200Y-98807000D03*
%TD*%
D11*
%TO.P,D53,1,K*%
%TO.N,row3*%
X136733200Y-107798600D03*
D12*
%TO.P,D53,2,A*%
%TO.N,Net-(D53-A)*%
X136733200Y-100178600D03*
%TD*%
D11*
%TO.P,D42,1,K*%
%TO.N,row2*%
X208894600Y-89180400D03*
D12*
%TO.P,D42,2,A*%
%TO.N,Net-(D42-A)*%
X208894600Y-81560400D03*
%TD*%
D11*
%TO.P,D9,1,K*%
%TO.N,row0*%
X173004400Y-55017400D03*
D12*
%TO.P,D9,2,A*%
%TO.N,Net-(D9-A)*%
X173004400Y-47397400D03*
%TD*%
D11*
%TO.P,D10,1,K*%
%TO.N,row0*%
X190962200Y-54865000D03*
D12*
%TO.P,D10,2,A*%
%TO.N,Net-(D10-A)*%
X190962200Y-47245000D03*
%TD*%
D11*
%TO.P,D73,1,K*%
%TO.N,row4*%
X227055600Y-123749800D03*
D12*
%TO.P,D73,2,A*%
%TO.N,Net-(D73-A)*%
X227055600Y-116129800D03*
%TD*%
D11*
%TO.P,D46,1,K*%
%TO.N,row3*%
X28986400Y-107036600D03*
D12*
%TO.P,D46,2,A*%
%TO.N,Net-(D46-A)*%
X28986400Y-99416600D03*
%TD*%
D11*
%TO.P,D49,1,K*%
%TO.N,row3*%
X64952800Y-106681000D03*
D12*
%TO.P,D49,2,A*%
%TO.N,Net-(D49-A)*%
X64952800Y-99061000D03*
%TD*%
D11*
%TO.P,D121,1,K*%
%TO.N,row4*%
X86314200Y-123597400D03*
D12*
%TO.P,D121,2,A*%
%TO.N,Net-(D121-A)*%
X86314200Y-115977400D03*
%TD*%
D11*
%TO.P,D16,1,K*%
%TO.N,row1*%
X28910200Y-72187800D03*
D12*
%TO.P,D16,2,A*%
%TO.N,Net-(D16-A)*%
X28910200Y-64567800D03*
%TD*%
D11*
%TO.P,D48,1,K*%
%TO.N,row3*%
X47020400Y-106503200D03*
D12*
%TO.P,D48,2,A*%
%TO.N,Net-(D48-A)*%
X47020400Y-98883200D03*
%TD*%
D11*
%TO.P,D19,1,K*%
%TO.N,row1*%
X65054400Y-72238600D03*
D12*
%TO.P,D19,2,A*%
%TO.N,Net-(D19-A)*%
X65054400Y-64618600D03*
%TD*%
D15*
%TO.N,row0*%
X222986600Y-55295800D03*
X218948000Y-56235600D03*
%TO.N,col8*%
X157764400Y-41834800D03*
X159034400Y-38888400D03*
X158399400Y-37618400D03*
X158475600Y-35332400D03*
%TO.N,col7*%
X278135000Y-48057800D03*
%TO.N,col6*%
X124236400Y-51994800D03*
X251668200Y-52121800D03*
%TO.N,col9*%
X178440000Y-52553600D03*
X253014400Y-53297200D03*
%TO.N,col5*%
X103332200Y-41326800D03*
X111130000Y-39218600D03*
X110901400Y-37821600D03*
X111003000Y-36450000D03*
%TO.N,col4*%
X93096000Y-39269400D03*
X93096000Y-37770800D03*
X86009400Y-41123600D03*
X93121400Y-36373800D03*
X93121400Y-31674800D03*
X276407800Y-51969400D03*
%TO.N,col10*%
X202493800Y-41123600D03*
X280395600Y-61900800D03*
%TO.N,col3*%
X251211000Y-51080400D03*
X70236000Y-45365400D03*
%TO.N,col12*%
X239014846Y-52414400D03*
X251118986Y-52886192D03*
%TO.N,row0*%
X267822600Y-84329000D03*
%TO.N,row1*%
X266628800Y-78309200D03*
%TO.N,row4*%
X260101000Y-79807800D03*
%TO.N,col11*%
X216387600Y-52927400D03*
X254565030Y-54365457D03*
%TO.N,col13*%
X244119400Y-66141600D03*
X266776200Y-69951600D03*
%TD*%
D16*
%TO.N,row1*%
X226928600Y-72213200D02*
X244810200Y-72213200D01*
X208920000Y-72035400D02*
X226750800Y-72035400D01*
%TO.N,row3*%
X227258800Y-106858800D02*
X247426400Y-106858800D01*
X208920000Y-106604800D02*
X227004800Y-106604800D01*
X191089200Y-106782600D02*
X208742200Y-106782600D01*
X172953600Y-106833400D02*
X191038400Y-106833400D01*
X154868800Y-106985800D02*
X172801200Y-106985800D01*
X154056000Y-107798600D02*
X154868800Y-106985800D01*
X136733200Y-107798600D02*
X154056000Y-107798600D01*
X118877000Y-107468400D02*
X136403000Y-107468400D01*
X100893800Y-107163600D02*
X118572200Y-107163600D01*
X99903200Y-106173000D02*
X100893800Y-107163600D01*
X83063000Y-106173000D02*
X99903200Y-106173000D01*
X64952800Y-106681000D02*
X82555000Y-106681000D01*
X47020400Y-106503200D02*
X64775000Y-106503200D01*
X28986400Y-107036600D02*
X46487000Y-107036600D01*
%TO.N,row2*%
X47071200Y-89028000D02*
X29621400Y-89028000D01*
X64952800Y-88850200D02*
X47249000Y-88850200D01*
X82936000Y-89383600D02*
X65486200Y-89383600D01*
X100919200Y-89358200D02*
X82961400Y-89358200D01*
X118464600Y-89358200D02*
X100919200Y-89358200D01*
X136936400Y-89332800D02*
X119207200Y-89332800D01*
X155046600Y-89231200D02*
X137038000Y-89231200D01*
X173004400Y-89282000D02*
X155097400Y-89282000D01*
X190962200Y-88926400D02*
X173360000Y-88926400D01*
X208894600Y-89180400D02*
X191216200Y-89180400D01*
X227563600Y-88774000D02*
X209301000Y-88774000D01*
X228401800Y-89612200D02*
X227563600Y-88774000D01*
X247959800Y-89612200D02*
X228401800Y-89612200D01*
%TO.N,row0*%
X253019247Y-54992000D02*
X254787447Y-53223800D01*
%TO.N,col10*%
X204093665Y-41123600D02*
X202493800Y-41123600D01*
X207522665Y-44552600D02*
X204093665Y-41123600D01*
X221965122Y-50763400D02*
X221965122Y-48380844D01*
X231735678Y-50763400D02*
X221965122Y-50763400D01*
%TO.N,row0*%
X261253800Y-53223800D02*
X263047400Y-55017400D01*
%TO.N,col10*%
X233019400Y-49479678D02*
X231735678Y-50763400D01*
X234704122Y-45412400D02*
X233019400Y-47097122D01*
X237086678Y-45412400D02*
X234704122Y-45412400D01*
%TO.N,row0*%
X254787447Y-53223800D02*
X261253800Y-53223800D01*
%TO.N,col10*%
X218136878Y-44552600D02*
X207522665Y-44552600D01*
X238771400Y-49479678D02*
X238771400Y-47097122D01*
X239771122Y-50479400D02*
X238771400Y-49479678D01*
X251459943Y-50479400D02*
X239771122Y-50479400D01*
X233019400Y-47097122D02*
X233019400Y-49479678D01*
X261419485Y-52823800D02*
X253804343Y-52823800D01*
X221965122Y-48380844D02*
X218136878Y-44552600D01*
X262512086Y-53916400D02*
X261419485Y-52823800D01*
X264148400Y-53916400D02*
X262512086Y-53916400D01*
X270252700Y-60020700D02*
X264148400Y-53916400D01*
X238771400Y-47097122D02*
X237086678Y-45412400D01*
X270252700Y-64383860D02*
X270252700Y-60020700D01*
X270978040Y-65109200D02*
X270252700Y-64383860D01*
X277187200Y-65109200D02*
X270978040Y-65109200D01*
X280395600Y-61900800D02*
X277187200Y-65109200D01*
%TO.N,col11*%
X216786800Y-52927400D02*
X220883400Y-57024000D01*
X216387600Y-52927400D02*
X216786800Y-52927400D01*
%TO.N,row0*%
X244962600Y-54992000D02*
X253019247Y-54992000D01*
%TO.N,col10*%
X253804343Y-52823800D02*
X251459943Y-50479400D01*
%TO.N,col11*%
X251774400Y-57024000D02*
X254432943Y-54365457D01*
X220883400Y-57024000D02*
X251774400Y-57024000D01*
X254432943Y-54365457D02*
X254565030Y-54365457D01*
%TO.N,row0*%
X226852400Y-55093600D02*
X244861000Y-55093600D01*
X223188800Y-55093600D02*
X226852400Y-55093600D01*
X222986600Y-55295800D02*
X223188800Y-55093600D01*
X217653600Y-54941200D02*
X218948000Y-56235600D01*
X208894600Y-54941200D02*
X217653600Y-54941200D01*
X191136000Y-54941200D02*
X208894600Y-54941200D01*
X173004400Y-55017400D02*
X190809800Y-55017400D01*
X155072000Y-55042800D02*
X172979000Y-55042800D01*
X137139600Y-54992000D02*
X155021200Y-54992000D01*
X118902400Y-54687200D02*
X136834800Y-54687200D01*
X100995400Y-55271400D02*
X118318200Y-55271400D01*
X82936000Y-55474600D02*
X100792200Y-55474600D01*
X65003600Y-54966600D02*
X82428000Y-54966600D01*
X46918800Y-55068200D02*
X64902000Y-55068200D01*
X28859400Y-54966600D02*
X46817200Y-54966600D01*
%TO.N,row1*%
X46969600Y-71959200D02*
X29138800Y-71959200D01*
X65054400Y-72238600D02*
X47249000Y-72238600D01*
X83088400Y-71984600D02*
X65308400Y-71984600D01*
X100944600Y-72086200D02*
X83190000Y-72086200D01*
X119054800Y-71908400D02*
X101122400Y-71908400D01*
X137063400Y-71857600D02*
X119105600Y-71857600D01*
X154710400Y-71857600D02*
X137063400Y-71857600D01*
X172953600Y-71933800D02*
X155021200Y-71933800D01*
X190911400Y-72264000D02*
X173283800Y-72264000D01*
X208920000Y-72035400D02*
X191140000Y-72035400D01*
%TO.N,col8*%
X159034400Y-40564800D02*
X157764400Y-41834800D01*
X159034400Y-38888400D02*
X159034400Y-40564800D01*
X158475600Y-37542200D02*
X158399400Y-37618400D01*
X158475600Y-35332400D02*
X158475600Y-37542200D01*
%TO.N,GND*%
X176977200Y-38268400D02*
X178109800Y-37135800D01*
X153522600Y-37083000D02*
X154708000Y-38268400D01*
X154708000Y-38268400D02*
X176977200Y-38268400D01*
%TO.N,col7*%
X278414400Y-48057800D02*
X289234800Y-58878200D01*
X278135000Y-48057800D02*
X278414400Y-48057800D01*
%TO.N,col6*%
X124466800Y-51764400D02*
X124236400Y-51994800D01*
%TO.N,col9*%
X252702600Y-53297200D02*
X253014400Y-53297200D01*
X246752000Y-54579400D02*
X251420400Y-54579400D01*
X239284085Y-53064400D02*
X239383885Y-52964600D01*
X231968560Y-52883800D02*
X238565007Y-52883800D01*
X178716200Y-52277400D02*
X231362160Y-52277400D01*
X238565007Y-52883800D02*
X238745607Y-53064400D01*
X178440000Y-52553600D02*
X178716200Y-52277400D01*
%TO.N,col12*%
X239014846Y-52314600D02*
X239014846Y-52414400D01*
X251118986Y-52886192D02*
X250510194Y-52277400D01*
X239052046Y-52277400D02*
X239014846Y-52314600D01*
%TO.N,col3*%
X70236000Y-48727278D02*
X70236000Y-45365400D01*
X237170678Y-51080400D02*
X237086678Y-51164400D01*
X248943514Y-51080400D02*
X237170678Y-51080400D01*
X248962514Y-51061400D02*
X248943514Y-51080400D01*
X251192000Y-51061400D02*
X248962514Y-51061400D01*
%TO.N,col12*%
X250510194Y-52277400D02*
X239052046Y-52277400D01*
%TO.N,col3*%
X251211000Y-51080400D02*
X251192000Y-51061400D01*
%TO.N,col9*%
X238745607Y-53064400D02*
X239284085Y-53064400D01*
%TO.N,col6*%
X251668200Y-52121800D02*
X251310800Y-51764400D01*
%TO.N,col9*%
X231362160Y-52277400D02*
X231968560Y-52883800D01*
%TO.N,col6*%
X251310800Y-51764400D02*
X124466800Y-51764400D01*
%TO.N,col9*%
X251420400Y-54579400D02*
X252702600Y-53297200D01*
X245137200Y-52964600D02*
X246752000Y-54579400D01*
%TO.N,col3*%
X72673122Y-51164400D02*
X70236000Y-48727278D01*
X237086678Y-51164400D02*
X72673122Y-51164400D01*
%TO.N,col9*%
X239383885Y-52964600D02*
X245137200Y-52964600D01*
%TO.N,col5*%
X105440400Y-39218600D02*
X103332200Y-41326800D01*
X111130000Y-39218600D02*
X105440400Y-39218600D01*
X111003000Y-37720000D02*
X110901400Y-37821600D01*
%TO.N,GND*%
X124981400Y-38471600D02*
X126344600Y-37108400D01*
X103146000Y-38471600D02*
X124981400Y-38471600D01*
X101909800Y-37235400D02*
X103146000Y-38471600D01*
%TO.N,col5*%
X111003000Y-36450000D02*
X111003000Y-37720000D01*
%TO.N,Net-(D32-DOUT)*%
X124353000Y-35800000D02*
X126344600Y-33808400D01*
X98445200Y-35800000D02*
X124353000Y-35800000D01*
X97009800Y-37235400D02*
X98445200Y-35800000D01*
%TO.N,col4*%
X93096000Y-39269400D02*
X87863600Y-39269400D01*
X87863600Y-39269400D02*
X86009400Y-41123600D01*
X93121400Y-36373800D02*
X93121400Y-37745400D01*
%TO.N,GND*%
X77439200Y-38420800D02*
X100724400Y-38420800D01*
X100724400Y-38420800D02*
X101909800Y-37235400D01*
%TO.N,col4*%
X93121400Y-37745400D02*
X93096000Y-37770800D01*
X269306260Y-31674800D02*
X93121400Y-31674800D01*
X276407800Y-38776340D02*
X269306260Y-31674800D01*
%TO.N,GND*%
X76103400Y-37085000D02*
X77439200Y-38420800D01*
%TO.N,col4*%
X276407800Y-51969400D02*
X276407800Y-38776340D01*
%TO.N,row0*%
X268033963Y-78795124D02*
X268033963Y-59003963D01*
X267949600Y-80306965D02*
X267949600Y-78879487D01*
X268033963Y-59003963D02*
X264047400Y-55017400D01*
X267949600Y-78879487D02*
X268033963Y-78795124D01*
X267822600Y-80433965D02*
X267949600Y-80306965D01*
X264047400Y-55017400D02*
X263047400Y-55017400D01*
X267822600Y-84329000D02*
X267822600Y-80433965D01*
%TO.N,row1*%
X263072800Y-74753200D02*
X266628800Y-78309200D01*
X263072800Y-72365600D02*
X263072800Y-74753200D01*
%TO.N,row4*%
X260101000Y-79807800D02*
X260101000Y-100026200D01*
X267898800Y-120320800D02*
X263784000Y-124435600D01*
X260101000Y-100026200D02*
X267898800Y-107824000D01*
X267898800Y-107824000D02*
X267898800Y-120320800D01*
%TO.N,GND*%
X206405400Y-37159200D02*
X207319800Y-38073600D01*
X33001600Y-37948600D02*
X55222600Y-37948600D01*
X32110600Y-37057600D02*
X33001600Y-37948600D01*
X178821000Y-37847000D02*
X178897200Y-37847000D01*
X178897200Y-37847000D02*
X178960400Y-37910200D01*
X228249400Y-38228000D02*
X229443200Y-37034200D01*
X178109800Y-37135800D02*
X178821000Y-37847000D01*
X205654400Y-37910200D02*
X206405400Y-37159200D01*
X252912800Y-37923200D02*
X253674800Y-37161200D01*
X55222600Y-37948600D02*
X56037400Y-37133800D01*
X230332200Y-37923200D02*
X252912800Y-37923200D01*
X152199800Y-38405800D02*
X153522600Y-37083000D01*
X126418800Y-37108400D02*
X127716200Y-38405800D01*
X207319800Y-38073600D02*
X207319800Y-38228000D01*
X127716200Y-38405800D02*
X152199800Y-38405800D01*
X267517800Y-37161200D02*
X271454800Y-41098200D01*
X178960400Y-37910200D02*
X205654400Y-37910200D01*
X74960400Y-38228000D02*
X76103400Y-37085000D01*
X253674800Y-37161200D02*
X267517800Y-37161200D01*
X56037400Y-37133800D02*
X57131600Y-38228000D01*
X57131600Y-38228000D02*
X74960400Y-38228000D01*
X207319800Y-38228000D02*
X228249400Y-38228000D01*
X229443200Y-37034200D02*
X230332200Y-37923200D01*
%TO.N,Net-(D14-DOUT)*%
X53564600Y-36306600D02*
X56037400Y-33833800D01*
X27961600Y-36306600D02*
X53564600Y-36306600D01*
X27210600Y-37057600D02*
X27961600Y-36306600D01*
%TO.N,Data in LED*%
X269647560Y-32583200D02*
X272605800Y-35541440D01*
X33285000Y-32583200D02*
X269647560Y-32583200D01*
X32110600Y-33757600D02*
X33285000Y-32583200D01*
X272605800Y-35541440D02*
X272605800Y-62807200D01*
X272605800Y-62807200D02*
X271454800Y-63958200D01*
%TO.N,5V*%
X172406000Y-33032000D02*
X149373600Y-33032000D01*
X173960800Y-33084800D02*
X200731000Y-33084800D01*
X51888400Y-33082800D02*
X70501200Y-33082800D01*
X97009800Y-33935400D02*
X97760800Y-33184400D01*
X50223000Y-34748200D02*
X28201200Y-34748200D01*
X249525800Y-33110200D02*
X268546800Y-33110200D01*
X248774800Y-33861200D02*
X249525800Y-33110200D01*
X224543200Y-33734200D02*
X223917200Y-33108200D01*
X97009800Y-33935400D02*
X96108400Y-33034000D01*
X71954400Y-33034000D02*
X71203400Y-33785000D01*
X51137400Y-33833800D02*
X50223000Y-34748200D01*
X247896800Y-32983200D02*
X225294200Y-32983200D01*
X120820600Y-33184400D02*
X121444600Y-33808400D01*
X225294200Y-32983200D02*
X224543200Y-33734200D01*
X223917200Y-33108200D02*
X202256400Y-33108200D01*
X147897000Y-33057400D02*
X148622600Y-33783000D01*
X173209800Y-33835800D02*
X173960800Y-33084800D01*
X268546800Y-33110200D02*
X271454800Y-36018200D01*
X248774800Y-33861200D02*
X247896800Y-32983200D01*
X51137400Y-33833800D02*
X51888400Y-33082800D01*
X202256400Y-33108200D02*
X201505400Y-33859200D01*
X96108400Y-33034000D02*
X71954400Y-33034000D01*
X97760800Y-33184400D02*
X120820600Y-33184400D01*
X149373600Y-33032000D02*
X148622600Y-33783000D01*
X173209800Y-33835800D02*
X172406000Y-33032000D01*
X121444600Y-33808400D02*
X122195600Y-33057400D01*
X200731000Y-33084800D02*
X201505400Y-33859200D01*
X28201200Y-34748200D02*
X27210600Y-33757600D01*
X70501200Y-33082800D02*
X71203400Y-33785000D01*
X122195600Y-33057400D02*
X147897000Y-33057400D01*
%TO.N,Net-(D17-DOUT)*%
X75352400Y-34536000D02*
X76103400Y-33785000D01*
X57059748Y-34536000D02*
X75352400Y-34536000D01*
X54461948Y-37133800D02*
X57059748Y-34536000D01*
X51137400Y-37133800D02*
X54461948Y-37133800D01*
%TO.N,Net-(D29-DOUT)*%
X73057600Y-35230800D02*
X100614400Y-35230800D01*
X100614400Y-35230800D02*
X101909800Y-33935400D01*
X71203400Y-37085000D02*
X73057600Y-35230800D01*
%TO.N,Net-(D44-DOUT)*%
X127343548Y-34534000D02*
X152771600Y-34534000D01*
X124769148Y-37108400D02*
X127343548Y-34534000D01*
X121444600Y-37108400D02*
X124769148Y-37108400D01*
X152771600Y-34534000D02*
X153522600Y-33783000D01*
%TO.N,Net-(D47-DOUT)*%
X148622600Y-37083000D02*
X151947148Y-37083000D01*
X177358800Y-34586800D02*
X178109800Y-33835800D01*
X151947148Y-37083000D02*
X154443348Y-34586800D01*
X154443348Y-34586800D02*
X177358800Y-34586800D01*
%TO.N,Net-(D59-DOUT)*%
X174194000Y-36151600D02*
X173209800Y-37135800D01*
X204113000Y-36151600D02*
X174194000Y-36151600D01*
X206405400Y-33859200D02*
X204113000Y-36151600D01*
%TO.N,Net-(D64-DOUT)*%
X204829948Y-37159200D02*
X207503948Y-34485200D01*
X201505400Y-37159200D02*
X204829948Y-37159200D01*
X207503948Y-34485200D02*
X228692200Y-34485200D01*
X228692200Y-34485200D02*
X229443200Y-33734200D01*
%TO.N,Net-(D65-DOUT)*%
X252889400Y-34646600D02*
X253674800Y-33861200D01*
X230255348Y-34646600D02*
X252889400Y-34646600D01*
X224543200Y-37034200D02*
X227867748Y-37034200D01*
X227867748Y-37034200D02*
X230255348Y-34646600D01*
%TO.N,row1*%
X244911800Y-72111600D02*
X262818800Y-72111600D01*
%TO.N,col13*%
X244119400Y-66141600D02*
X246232200Y-68254400D01*
X265079000Y-68254400D02*
X266776200Y-69951600D01*
X246232200Y-68254400D02*
X265079000Y-68254400D01*
%TD*%
M02*
