%TF.GenerationSoftware,KiCad,Pcbnew,9.0.6*%
%TF.CreationDate,2026-06-16T19:37:33-04:00*%
%TF.ProjectId,keyboardepi pico,6b657962-6f61-4726-9465-706920706963,rev?*%
%TF.SameCoordinates,Original*%
%TF.FileFunction,Paste,Bot*%
%TF.FilePolarity,Positive*%
%FSLAX46Y46*%
G04 Gerber Fmt 4.6, Leading zero omitted, Abs format (unit mm)*
G04 Created by KiCad (PCBNEW 9.0.6) date 2026-06-16 19:37:33*
%MOMM*%
%LPD*%
G01*
G04 APERTURE LIST*
G04 Aperture macros list*
%AMRoundRect*
0 Rectangle with rounded corners*
0 $1 Rounding radius*
0 $2 $3 $4 $5 $6 $7 $8 $9 X,Y pos of 4 corners*
0 Add a 4 corners polygon primitive as box body*
4,1,4,$2,$3,$4,$5,$6,$7,$8,$9,$2,$3,0*
0 Add four circle primitives for the rounded corners*
1,1,$1+$1,$2,$3*
1,1,$1+$1,$4,$5*
1,1,$1+$1,$6,$7*
1,1,$1+$1,$8,$9*
0 Add four rect primitives between the rounded corners*
20,1,$1+$1,$2,$3,$4,$5,0*
20,1,$1+$1,$4,$5,$6,$7,0*
20,1,$1+$1,$6,$7,$8,$9,0*
20,1,$1+$1,$8,$9,$2,$3,0*%
G04 Aperture macros list end*
%ADD10RoundRect,0.250000X-1.025000X-1.000000X1.025000X-1.000000X1.025000X1.000000X-1.025000X1.000000X0*%
G04 APERTURE END LIST*
D10*
%TO.C,S41*%
X178395400Y-76378400D03*
X190395400Y-78578400D03*
%TD*%
%TO.C,S24*%
X142395400Y-59278400D03*
X154395400Y-61478400D03*
%TD*%
%TO.C,S4*%
X70344400Y-42268400D03*
X82344400Y-44468400D03*
%TD*%
%TO.C,S15*%
X250395400Y-42278400D03*
X262395400Y-44478400D03*
%TD*%
%TO.C,S10*%
X178305400Y-42278400D03*
X190305400Y-44478400D03*
%TD*%
%TO.C,S52*%
X106395400Y-93378400D03*
X118395400Y-95578400D03*
%TD*%
%TO.C,S31*%
X16395400Y-76378400D03*
X28395400Y-78578400D03*
%TD*%
%TO.C,S5*%
X88374400Y-42268400D03*
X100374400Y-44468400D03*
%TD*%
%TO.C,S58*%
X214395400Y-93478400D03*
X226395400Y-95678400D03*
%TD*%
%TO.C,S56*%
X178385400Y-93378400D03*
X190385400Y-95578400D03*
%TD*%
%TO.C,S19*%
X52395400Y-59328400D03*
X64395400Y-61528400D03*
%TD*%
%TO.C,S73*%
X214395400Y-110378400D03*
X226395400Y-112578400D03*
%TD*%
%TO.C,S22*%
X106395400Y-59228400D03*
X118395400Y-61428400D03*
%TD*%
%TO.C,S45*%
X234695400Y-76428400D03*
X246695400Y-78628400D03*
%TD*%
%TO.C,S75*%
X250405400Y-110428400D03*
X262405400Y-112628400D03*
%TD*%
%TO.C,S34*%
X52395400Y-76378400D03*
X64395400Y-78578400D03*
%TD*%
%TO.C,S42*%
X196395400Y-76378400D03*
X208395400Y-78578400D03*
%TD*%
%TO.C,S20*%
X70475400Y-59278400D03*
X82475400Y-61478400D03*
%TD*%
%TO.C,S11*%
X196295400Y-42278400D03*
X208295400Y-44478400D03*
%TD*%
%TO.C,S62*%
X34395400Y-110478400D03*
X46395400Y-112678400D03*
%TD*%
%TO.C,S53*%
X124395400Y-93378400D03*
X136395400Y-95578400D03*
%TD*%
%TO.C,S46*%
X16375400Y-93478400D03*
X28375400Y-95678400D03*
%TD*%
%TO.C,S50*%
X70395400Y-93378400D03*
X82395400Y-95578400D03*
%TD*%
%TO.C,S49*%
X52395400Y-93378400D03*
X64395400Y-95578400D03*
%TD*%
%TO.C,S38*%
X124395400Y-76278400D03*
X136395400Y-78478400D03*
%TD*%
%TO.C,S43*%
X214385400Y-76428400D03*
X226385400Y-78628400D03*
%TD*%
%TO.C,S6*%
X106374400Y-42268400D03*
X118374400Y-44468400D03*
%TD*%
%TO.C,S13*%
X232395400Y-42288400D03*
X244395400Y-44488400D03*
%TD*%
%TO.C,S57*%
X196395400Y-93328400D03*
X208395400Y-95528400D03*
%TD*%
%TO.C,S61*%
X16395400Y-110478400D03*
X28395400Y-112678400D03*
%TD*%
%TO.C,S26*%
X178295400Y-59378400D03*
X190295400Y-61578400D03*
%TD*%
%TO.C,S23*%
X124395400Y-59228400D03*
X136395400Y-61428400D03*
%TD*%
%TO.C,S40*%
X160405400Y-76328400D03*
X172405400Y-78528400D03*
%TD*%
%TO.C,S51*%
X88395400Y-93378400D03*
X100395400Y-95578400D03*
%TD*%
%TO.C,S60*%
X234695400Y-93378400D03*
X246695400Y-95578400D03*
%TD*%
%TO.C,S63*%
X52395400Y-110478400D03*
X64395400Y-112678400D03*
%TD*%
%TO.C,S18*%
X34475400Y-59278400D03*
X46475400Y-61478400D03*
%TD*%
%TO.C,S28*%
X214395400Y-59378400D03*
X226395400Y-61578400D03*
%TD*%
%TO.C,S37*%
X106445400Y-76328400D03*
X118445400Y-78528400D03*
%TD*%
%TO.C,S7*%
X124475400Y-42258400D03*
X136475400Y-44458400D03*
%TD*%
%TO.C,S33*%
X34405400Y-76378400D03*
X46405400Y-78578400D03*
%TD*%
%TO.C,S39*%
X142495400Y-76378400D03*
X154495400Y-78578400D03*
%TD*%
%TO.C,S17*%
X194101650Y-110378400D03*
X206101650Y-112578400D03*
%TD*%
%TO.C,S1*%
X16344400Y-42268400D03*
X28344400Y-44468400D03*
%TD*%
%TO.C,S30*%
X250395400Y-59378400D03*
X262395400Y-61578400D03*
%TD*%
%TO.C,S54*%
X142395400Y-93378400D03*
X154395400Y-95578400D03*
%TD*%
%TO.C,S14*%
X232395400Y-59328400D03*
X244395400Y-61528400D03*
%TD*%
%TO.C,S29*%
X72639150Y-110428400D03*
X84639150Y-112628400D03*
%TD*%
%TO.C,S25*%
X160395400Y-59328400D03*
X172395400Y-61528400D03*
%TD*%
%TO.C,S8*%
X142474400Y-42268400D03*
X154474400Y-44468400D03*
%TD*%
%TO.C,S16*%
X16395400Y-59278400D03*
X28395400Y-61478400D03*
%TD*%
%TO.C,S48*%
X34405400Y-93428400D03*
X46405400Y-95628400D03*
%TD*%
%TO.C,S3*%
X52354400Y-42268400D03*
X64354400Y-44468400D03*
%TD*%
%TO.C,S12*%
X214295400Y-42278400D03*
X226295400Y-44478400D03*
%TD*%
%TO.C,S2*%
X34344400Y-42268400D03*
X46344400Y-44468400D03*
%TD*%
%TO.C,S21*%
X88395400Y-59278400D03*
X100395400Y-61478400D03*
%TD*%
%TO.C,S27*%
X196395400Y-59378400D03*
X208395400Y-61578400D03*
%TD*%
%TO.C,S35*%
X70395400Y-76378400D03*
X82395400Y-78578400D03*
%TD*%
%TO.C,S74*%
X232405400Y-110378400D03*
X244405400Y-112578400D03*
%TD*%
%TO.C,S36*%
X88395400Y-76378400D03*
X100395400Y-78578400D03*
%TD*%
%TO.C,S9*%
X160374400Y-42278400D03*
X172374400Y-44478400D03*
%TD*%
%TO.C,S55*%
X160395400Y-93378400D03*
X172395400Y-95578400D03*
%TD*%
M02*
