%TF.GenerationSoftware,KiCad,Pcbnew,9.0.6*%
%TF.CreationDate,2026-06-16T19:37:33-04:00*%
%TF.ProjectId,keyboardepi pico,6b657962-6f61-4726-9465-706920706963,rev?*%
%TF.SameCoordinates,Original*%
%TF.FileFunction,Paste,Top*%
%TF.FilePolarity,Positive*%
%FSLAX46Y46*%
G04 Gerber Fmt 4.6, Leading zero omitted, Abs format (unit mm)*
G04 Created by KiCad (PCBNEW 9.0.6) date 2026-06-16 19:37:33*
%MOMM*%
%LPD*%
G01*
G04 APERTURE LIST*
G04 Aperture macros list*
%AMRoundRect*
0 Rectangle with rounded corners*
0 $1 Rounding radius*
0 $2 $3 $4 $5 $6 $7 $8 $9 X,Y pos of 4 corners*
0 Add a 4 corners polygon primitive as box body*
4,1,4,$2,$3,$4,$5,$6,$7,$8,$9,$2,$3,0*
0 Add four circle primitives for the rounded corners*
1,1,$1+$1,$2,$3*
1,1,$1+$1,$4,$5*
1,1,$1+$1,$6,$7*
1,1,$1+$1,$8,$9*
0 Add four rect primitives between the rounded corners*
20,1,$1+$1,$2,$3,$4,$5,0*
20,1,$1+$1,$4,$5,$6,$7,0*
20,1,$1+$1,$6,$7,$8,$9,0*
20,1,$1+$1,$8,$9,$2,$3,0*%
G04 Aperture macros list end*
%ADD10RoundRect,0.090000X-0.660000X-0.360000X0.660000X-0.360000X0.660000X0.360000X-0.660000X0.360000X0*%
G04 APERTURE END LIST*
D10*
%TO.C,D17*%
X51137400Y-33833800D03*
X51137400Y-37133800D03*
X56037400Y-37133800D03*
X56037400Y-33833800D03*
%TD*%
%TO.C,D59*%
X173209800Y-33835800D03*
X173209800Y-37135800D03*
X178109800Y-37135800D03*
X178109800Y-33835800D03*
%TD*%
%TO.C,D66*%
X248774800Y-33861200D03*
X248774800Y-37161200D03*
X253674800Y-37161200D03*
X253674800Y-33861200D03*
%TD*%
%TO.C,D64*%
X201505400Y-33859200D03*
X201505400Y-37159200D03*
X206405400Y-37159200D03*
X206405400Y-33859200D03*
%TD*%
%TO.C,D32*%
X97009800Y-33935400D03*
X97009800Y-37235400D03*
X101909800Y-37235400D03*
X101909800Y-33935400D03*
%TD*%
%TO.C,D29*%
X71203400Y-33785000D03*
X71203400Y-37085000D03*
X76103400Y-37085000D03*
X76103400Y-33785000D03*
%TD*%
%TO.C,D44*%
X121444600Y-33808400D03*
X121444600Y-37108400D03*
X126344600Y-37108400D03*
X126344600Y-33808400D03*
%TD*%
%TO.C,D14*%
X27210600Y-33757600D03*
X27210600Y-37057600D03*
X32110600Y-37057600D03*
X32110600Y-33757600D03*
%TD*%
%TO.C,D47*%
X148622600Y-33783000D03*
X148622600Y-37083000D03*
X153522600Y-37083000D03*
X153522600Y-33783000D03*
%TD*%
%TO.C,D65*%
X224543200Y-33734200D03*
X224543200Y-37034200D03*
X229443200Y-37034200D03*
X229443200Y-33734200D03*
%TD*%
M02*
