%TF.GenerationSoftware,KiCad,Pcbnew,9.0.6*%
%TF.CreationDate,2025-12-29T14:25:08-05:00*%
%TF.ProjectId,keyboardepi pico,6b657962-6f61-4726-9465-706920706963,rev?*%
%TF.SameCoordinates,Original*%
%TF.FileFunction,Copper,L2,Bot*%
%TF.FilePolarity,Positive*%
%FSLAX46Y46*%
G04 Gerber Fmt 4.6, Leading zero omitted, Abs format (unit mm)*
G04 Created by KiCad (PCBNEW 9.0.6) date 2025-12-29 14:25:08*
%MOMM*%
%LPD*%
G01*
G04 APERTURE LIST*
G04 Aperture macros list*
%AMRoundRect*
0 Rectangle with rounded corners*
0 $1 Rounding radius*
0 $2 $3 $4 $5 $6 $7 $8 $9 X,Y pos of 4 corners*
0 Add a 4 corners polygon primitive as box body*
4,1,4,$2,$3,$4,$5,$6,$7,$8,$9,$2,$3,0*
0 Add four circle primitives for the rounded corners*
1,1,$1+$1,$2,$3*
1,1,$1+$1,$4,$5*
1,1,$1+$1,$6,$7*
1,1,$1+$1,$8,$9*
0 Add four rect primitives between the rounded corners*
20,1,$1+$1,$2,$3,$4,$5,0*
20,1,$1+$1,$4,$5,$6,$7,0*
20,1,$1+$1,$6,$7,$8,$9,0*
20,1,$1+$1,$8,$9,$2,$3,0*%
G04 Aperture macros list end*
%TA.AperFunction,SMDPad,CuDef*%
%ADD10RoundRect,0.250000X-1.025000X-1.000000X1.025000X-1.000000X1.025000X1.000000X-1.025000X1.000000X0*%
%TD*%
%TA.AperFunction,SMDPad,CuDef*%
%ADD11RoundRect,0.250000X0.300000X-0.300000X0.300000X0.300000X-0.300000X0.300000X-0.300000X-0.300000X0*%
%TD*%
%TA.AperFunction,SMDPad,CuDef*%
%ADD12RoundRect,0.090000X0.660000X0.360000X-0.660000X0.360000X-0.660000X-0.360000X0.660000X-0.360000X0*%
%TD*%
%TA.AperFunction,ComponentPad*%
%ADD13O,1.700000X1.700000*%
%TD*%
%TA.AperFunction,SMDPad,CuDef*%
%ADD14R,3.500000X1.700000*%
%TD*%
%TA.AperFunction,ComponentPad*%
%ADD15R,1.700000X1.700000*%
%TD*%
%TA.AperFunction,SMDPad,CuDef*%
%ADD16R,1.700000X3.500000*%
%TD*%
%TA.AperFunction,ViaPad*%
%ADD17C,0.600000*%
%TD*%
%TA.AperFunction,Conductor*%
%ADD18C,0.200000*%
%TD*%
G04 APERTURE END LIST*
D10*
%TO.P,S41,1,1*%
%TO.N,col10*%
X179000000Y-54000000D03*
%TO.P,S41,2,2*%
%TO.N,Net-(D41-A)*%
X191000000Y-56200000D03*
%TD*%
D11*
%TO.P,D15,1,K*%
%TO.N,row0*%
X263499600Y-30584600D03*
%TO.P,D15,2,A*%
%TO.N,Net-(D15-A)*%
X263499600Y-27784600D03*
%TD*%
%TO.P,D31,1,K*%
%TO.N,row2*%
X29413200Y-64087200D03*
%TO.P,D31,2,A*%
%TO.N,Net-(D31-A)*%
X29413200Y-61287200D03*
%TD*%
%TO.P,D68,1,K*%
%TO.N,row4*%
X208457800Y-95888000D03*
%TO.P,D68,2,A*%
%TO.N,Net-(D68-A)*%
X208457800Y-93088000D03*
%TD*%
D10*
%TO.P,S24,1,1*%
%TO.N,col8*%
X143000000Y-36900000D03*
%TO.P,S24,2,2*%
%TO.N,Net-(D24-A)*%
X155000000Y-39100000D03*
%TD*%
%TO.P,S4,1,1*%
%TO.N,col3*%
X70949000Y-19890000D03*
%TO.P,S4,2,2*%
%TO.N,Net-(D4-A)*%
X82949000Y-22090000D03*
%TD*%
%TO.P,S15,1,1*%
%TO.N,col14*%
X251000000Y-19900000D03*
%TO.P,S15,2,2*%
%TO.N,Net-(D15-A)*%
X263000000Y-22100000D03*
%TD*%
%TO.P,S10,1,1*%
%TO.N,col9*%
X178910000Y-19900000D03*
%TO.P,S10,2,2*%
%TO.N,Net-(D10-A)*%
X190910000Y-22100000D03*
%TD*%
D11*
%TO.P,D12,1,K*%
%TO.N,row0*%
X227406200Y-31245000D03*
%TO.P,D12,2,A*%
%TO.N,Net-(D12-A)*%
X227406200Y-28445000D03*
%TD*%
D10*
%TO.P,S52,1,1*%
%TO.N,col6*%
X107000000Y-71000000D03*
%TO.P,S52,2,2*%
%TO.N,Net-(D52-A)*%
X119000000Y-73200000D03*
%TD*%
D11*
%TO.P,D7,1,K*%
%TO.N,row0*%
X137591800Y-32769000D03*
%TO.P,D7,2,A*%
%TO.N,Net-(D7-A)*%
X137591800Y-29969000D03*
%TD*%
D10*
%TO.P,S31,1,1*%
%TO.N,col0*%
X17000000Y-54000000D03*
%TO.P,S31,2,2*%
%TO.N,Net-(D31-A)*%
X29000000Y-56200000D03*
%TD*%
D11*
%TO.P,D37,1,K*%
%TO.N,row2*%
X119557800Y-64493600D03*
%TO.P,D37,2,A*%
%TO.N,Net-(D37-A)*%
X119557800Y-61693600D03*
%TD*%
D10*
%TO.P,S5,1,1*%
%TO.N,col4*%
X88979000Y-19890000D03*
%TO.P,S5,2,2*%
%TO.N,Net-(D5-A)*%
X100979000Y-22090000D03*
%TD*%
%TO.P,S58,1,1*%
%TO.N,col12*%
X215000000Y-71100000D03*
%TO.P,S58,2,2*%
%TO.N,Net-(D58-A)*%
X227000000Y-73300000D03*
%TD*%
D11*
%TO.P,D2,1,K*%
%TO.N,row0*%
X47421800Y-32515000D03*
%TO.P,D2,2,A*%
%TO.N,Net-(D2-A)*%
X47421800Y-29715000D03*
%TD*%
%TO.P,D5,1,K*%
%TO.N,row0*%
X101498400Y-32845200D03*
%TO.P,D5,2,A*%
%TO.N,Net-(D5-A)*%
X101498400Y-30045200D03*
%TD*%
D10*
%TO.P,S56,1,1*%
%TO.N,col10*%
X178990000Y-71000000D03*
%TO.P,S56,2,2*%
%TO.N,Net-(D56-A)*%
X190990000Y-73200000D03*
%TD*%
D11*
%TO.P,D63,1,K*%
%TO.N,row4*%
X66116200Y-97031000D03*
%TO.P,D63,2,A*%
%TO.N,Net-(D63-A)*%
X66116200Y-94231000D03*
%TD*%
D10*
%TO.P,S73,1,1*%
%TO.N,col12*%
X215000000Y-88000000D03*
%TO.P,S73,2,2*%
%TO.N,Net-(D73-A)*%
X227000000Y-90200000D03*
%TD*%
%TO.P,S22,1,1*%
%TO.N,col6*%
X107000000Y-36850000D03*
%TO.P,S22,2,2*%
%TO.N,Net-(D22-A)*%
X119000000Y-39050000D03*
%TD*%
%TO.P,S45,1,1*%
%TO.N,col14*%
X235300000Y-54050000D03*
%TO.P,S45,2,2*%
%TO.N,Net-(D45-A)*%
X247300000Y-56250000D03*
%TD*%
%TO.P,S75,1,1*%
%TO.N,col14*%
X251010000Y-88050000D03*
%TO.P,S75,2,2*%
%TO.N,Net-(D75-A)*%
X263010000Y-90250000D03*
%TD*%
D11*
%TO.P,D39,1,K*%
%TO.N,row2*%
X155575000Y-65560400D03*
%TO.P,D39,2,A*%
%TO.N,Net-(D39-A)*%
X155575000Y-62760400D03*
%TD*%
D10*
%TO.P,S34,1,1*%
%TO.N,col3*%
X53000000Y-54000000D03*
%TO.P,S34,2,2*%
%TO.N,Net-(D34-A)*%
X65000000Y-56200000D03*
%TD*%
D11*
%TO.P,D22,1,K*%
%TO.N,row1*%
X119507000Y-46586600D03*
%TO.P,D22,2,A*%
%TO.N,Net-(D22-A)*%
X119507000Y-43786600D03*
%TD*%
D10*
%TO.P,S42,1,1*%
%TO.N,col11*%
X197000000Y-54000000D03*
%TO.P,S42,2,2*%
%TO.N,Net-(D42-A)*%
X209000000Y-56200000D03*
%TD*%
%TO.P,S20,1,1*%
%TO.N,col4*%
X71080000Y-36900000D03*
%TO.P,S20,2,2*%
%TO.N,Net-(D20-A)*%
X83080000Y-39100000D03*
%TD*%
D11*
%TO.P,D75,1,K*%
%TO.N,row4*%
X264287000Y-96065800D03*
%TO.P,D75,2,A*%
%TO.N,Net-(D75-A)*%
X264287000Y-93265800D03*
%TD*%
%TO.P,D21,1,K*%
%TO.N,row1*%
X101549200Y-46104000D03*
%TO.P,D21,2,A*%
%TO.N,Net-(D21-A)*%
X101549200Y-43304000D03*
%TD*%
D10*
%TO.P,S11,1,1*%
%TO.N,col10*%
X196900000Y-19900000D03*
%TO.P,S11,2,2*%
%TO.N,Net-(D11-A)*%
X208900000Y-22100000D03*
%TD*%
D11*
%TO.P,D24,1,K*%
%TO.N,row1*%
X155473400Y-46437200D03*
%TO.P,D24,2,A*%
%TO.N,Net-(D24-A)*%
X155473400Y-43637200D03*
%TD*%
%TO.P,D43,1,K*%
%TO.N,row2*%
X227863400Y-64547400D03*
%TO.P,D43,2,A*%
%TO.N,Net-(D43-A)*%
X227863400Y-61747400D03*
%TD*%
D10*
%TO.P,S62,1,1*%
%TO.N,col1*%
X35000000Y-88100000D03*
%TO.P,S62,2,2*%
%TO.N,Net-(D62-A)*%
X47000000Y-90300000D03*
%TD*%
D11*
%TO.P,D45,1,K*%
%TO.N,row2*%
X248996200Y-64265000D03*
%TO.P,D45,2,A*%
%TO.N,Net-(D45-A)*%
X248996200Y-61465000D03*
%TD*%
D10*
%TO.P,S53,1,1*%
%TO.N,col7*%
X125000000Y-71000000D03*
%TO.P,S53,2,2*%
%TO.N,Net-(D53-A)*%
X137000000Y-73200000D03*
%TD*%
D11*
%TO.P,D11,1,K*%
%TO.N,row0*%
X209346800Y-31095600D03*
%TO.P,D11,2,A*%
%TO.N,Net-(D11-A)*%
X209346800Y-28295600D03*
%TD*%
%TO.P,D41,1,K*%
%TO.N,row2*%
X191414400Y-64925400D03*
%TO.P,D41,2,A*%
%TO.N,Net-(D41-A)*%
X191414400Y-62125400D03*
%TD*%
D10*
%TO.P,S46,1,1*%
%TO.N,col0*%
X16980000Y-71100000D03*
%TO.P,S46,2,2*%
%TO.N,Net-(D46-A)*%
X28980000Y-73300000D03*
%TD*%
%TO.P,S50,1,1*%
%TO.N,col4*%
X71000000Y-71000000D03*
%TO.P,S50,2,2*%
%TO.N,Net-(D50-A)*%
X83000000Y-73200000D03*
%TD*%
%TO.P,S49,1,1*%
%TO.N,col3*%
X53000000Y-71000000D03*
%TO.P,S49,2,2*%
%TO.N,Net-(D49-A)*%
X65000000Y-73200000D03*
%TD*%
D11*
%TO.P,D120,1,K*%
%TO.N,row1*%
X245440200Y-46307200D03*
%TO.P,D120,2,A*%
%TO.N,Net-(D120-A)*%
X245440200Y-43507200D03*
%TD*%
%TO.P,D27,1,K*%
%TO.N,row1*%
X209550000Y-46891400D03*
%TO.P,D27,2,A*%
%TO.N,Net-(D27-A)*%
X209550000Y-44091400D03*
%TD*%
%TO.P,D34,1,K*%
%TO.N,row2*%
X65582800Y-63680800D03*
%TO.P,D34,2,A*%
%TO.N,Net-(D34-A)*%
X65582800Y-60880800D03*
%TD*%
%TO.P,D30,1,K*%
%TO.N,row1*%
X263601200Y-46383400D03*
%TO.P,D30,2,A*%
%TO.N,Net-(D30-A)*%
X263601200Y-43583400D03*
%TD*%
%TO.P,D26,1,K*%
%TO.N,row1*%
X191541400Y-46764400D03*
%TO.P,D26,2,A*%
%TO.N,Net-(D26-A)*%
X191541400Y-43964400D03*
%TD*%
%TO.P,D61,1,K*%
%TO.N,row4*%
X29514800Y-97564400D03*
%TO.P,D61,2,A*%
%TO.N,Net-(D61-A)*%
X29514800Y-94764400D03*
%TD*%
%TO.P,D40,1,K*%
%TO.N,row2*%
X173456600Y-65611200D03*
%TO.P,D40,2,A*%
%TO.N,Net-(D40-A)*%
X173456600Y-62811200D03*
%TD*%
D10*
%TO.P,S38,1,1*%
%TO.N,col7*%
X125000000Y-53900000D03*
%TO.P,S38,2,2*%
%TO.N,Net-(D38-A)*%
X137000000Y-56100000D03*
%TD*%
D11*
%TO.P,D6,1,K*%
%TO.N,row0*%
X119507000Y-32743600D03*
%TO.P,D6,2,A*%
%TO.N,Net-(D6-A)*%
X119507000Y-29943600D03*
%TD*%
%TO.P,D62,1,K*%
%TO.N,row4*%
X47498000Y-97767600D03*
%TO.P,D62,2,A*%
%TO.N,Net-(D62-A)*%
X47498000Y-94967600D03*
%TD*%
%TO.P,D36,1,K*%
%TO.N,row2*%
X101523800Y-63477600D03*
%TO.P,D36,2,A*%
%TO.N,Net-(D36-A)*%
X101523800Y-60677600D03*
%TD*%
D10*
%TO.P,S43,1,1*%
%TO.N,col12*%
X214990000Y-54050000D03*
%TO.P,S43,2,2*%
%TO.N,Net-(D43-A)*%
X226990000Y-56250000D03*
%TD*%
%TO.P,S6,1,1*%
%TO.N,col5*%
X106979000Y-19890000D03*
%TO.P,S6,2,2*%
%TO.N,Net-(D6-A)*%
X118979000Y-22090000D03*
%TD*%
D11*
%TO.P,D20,1,K*%
%TO.N,row1*%
X83540600Y-46180200D03*
%TO.P,D20,2,A*%
%TO.N,Net-(D20-A)*%
X83540600Y-43380200D03*
%TD*%
%TO.P,D54,1,K*%
%TO.N,row3*%
X155575000Y-81003600D03*
%TO.P,D54,2,A*%
%TO.N,Net-(D54-A)*%
X155575000Y-78203600D03*
%TD*%
D10*
%TO.P,S13,1,1*%
%TO.N,col12*%
X233000000Y-19910000D03*
%TO.P,S13,2,2*%
%TO.N,Net-(D13-A)*%
X245000000Y-22110000D03*
%TD*%
D11*
%TO.P,D33,1,K*%
%TO.N,row2*%
X47523400Y-63960200D03*
%TO.P,D33,2,A*%
%TO.N,Net-(D33-A)*%
X47523400Y-61160200D03*
%TD*%
D10*
%TO.P,S57,1,1*%
%TO.N,col11*%
X197000000Y-70950000D03*
%TO.P,S57,2,2*%
%TO.N,Net-(D57-A)*%
X209000000Y-73150000D03*
%TD*%
%TO.P,S61,1,1*%
%TO.N,col0*%
X17000000Y-88100000D03*
%TO.P,S61,2,2*%
%TO.N,Net-(D61-A)*%
X29000000Y-90300000D03*
%TD*%
%TO.P,S26,1,1*%
%TO.N,col10*%
X178900000Y-37000000D03*
%TO.P,S26,2,2*%
%TO.N,Net-(D26-A)*%
X190900000Y-39200000D03*
%TD*%
%TO.P,S23,1,1*%
%TO.N,col7*%
X125000000Y-36850000D03*
%TO.P,S23,2,2*%
%TO.N,Net-(D23-A)*%
X137000000Y-39050000D03*
%TD*%
%TO.P,S40,1,1*%
%TO.N,col9*%
X161010000Y-53950000D03*
%TO.P,S40,2,2*%
%TO.N,Net-(D40-A)*%
X173010000Y-56150000D03*
%TD*%
D11*
%TO.P,D55,1,K*%
%TO.N,row3*%
X173456600Y-81257600D03*
%TO.P,D55,2,A*%
%TO.N,Net-(D55-A)*%
X173456600Y-78457600D03*
%TD*%
D10*
%TO.P,S51,1,1*%
%TO.N,col5*%
X89000000Y-71000000D03*
%TO.P,S51,2,2*%
%TO.N,Net-(D51-A)*%
X101000000Y-73200000D03*
%TD*%
D11*
%TO.P,D28,1,K*%
%TO.N,row1*%
X227457000Y-46383400D03*
%TO.P,D28,2,A*%
%TO.N,Net-(D28-A)*%
X227457000Y-43583400D03*
%TD*%
D10*
%TO.P,S60,1,1*%
%TO.N,col14*%
X235300000Y-71000000D03*
%TO.P,S60,2,2*%
%TO.N,Net-(D60-A)*%
X247300000Y-73200000D03*
%TD*%
D11*
%TO.P,D50,1,K*%
%TO.N,row3*%
X83439000Y-82172000D03*
%TO.P,D50,2,A*%
%TO.N,Net-(D50-A)*%
X83439000Y-79372000D03*
%TD*%
%TO.P,D35,1,K*%
%TO.N,row2*%
X83489800Y-63325200D03*
%TO.P,D35,2,A*%
%TO.N,Net-(D35-A)*%
X83489800Y-60525200D03*
%TD*%
D10*
%TO.P,S63,1,1*%
%TO.N,col2*%
X53000000Y-88100000D03*
%TO.P,S63,2,2*%
%TO.N,Net-(D63-A)*%
X65000000Y-90300000D03*
%TD*%
D11*
%TO.P,D1,1,K*%
%TO.N,row0*%
X29489400Y-32311800D03*
%TO.P,D1,2,A*%
%TO.N,Net-(D1-A)*%
X29489400Y-29511800D03*
%TD*%
%TO.P,D18,1,K*%
%TO.N,row1*%
X47523400Y-46310200D03*
%TO.P,D18,2,A*%
%TO.N,Net-(D18-A)*%
X47523400Y-43510200D03*
%TD*%
%TO.P,D74,1,K*%
%TO.N,row4*%
X245618000Y-97488200D03*
%TO.P,D74,2,A*%
%TO.N,Net-(D74-A)*%
X245618000Y-94688200D03*
%TD*%
%TO.P,D3,1,K*%
%TO.N,row0*%
X65405000Y-32159400D03*
%TO.P,D3,2,A*%
%TO.N,Net-(D3-A)*%
X65405000Y-29359400D03*
%TD*%
D10*
%TO.P,S18,1,1*%
%TO.N,col2*%
X35080000Y-36900000D03*
%TO.P,S18,2,2*%
%TO.N,Net-(D18-A)*%
X47080000Y-39100000D03*
%TD*%
D11*
%TO.P,D13,1,K*%
%TO.N,row0*%
X245491000Y-30486000D03*
%TO.P,D13,2,A*%
%TO.N,Net-(D13-A)*%
X245491000Y-27686000D03*
%TD*%
%TO.P,D38,1,K*%
%TO.N,row2*%
X137490200Y-65814400D03*
%TO.P,D38,2,A*%
%TO.N,Net-(D38-A)*%
X137490200Y-63014400D03*
%TD*%
D10*
%TO.P,S28,1,1*%
%TO.N,col12*%
X215000000Y-37000000D03*
%TO.P,S28,2,2*%
%TO.N,Net-(D28-A)*%
X227000000Y-39200000D03*
%TD*%
D11*
%TO.P,D4,1,K*%
%TO.N,row0*%
X83464400Y-32769000D03*
%TO.P,D4,2,A*%
%TO.N,Net-(D4-A)*%
X83464400Y-29969000D03*
%TD*%
D10*
%TO.P,S37,1,1*%
%TO.N,col6*%
X107050000Y-53950000D03*
%TO.P,S37,2,2*%
%TO.N,Net-(D37-A)*%
X119050000Y-56150000D03*
%TD*%
D11*
%TO.P,D25,1,K*%
%TO.N,row1*%
X173482000Y-46281800D03*
%TO.P,D25,2,A*%
%TO.N,Net-(D25-A)*%
X173482000Y-43481800D03*
%TD*%
%TO.P,D58,1,K*%
%TO.N,row3*%
X227888800Y-78743000D03*
%TO.P,D58,2,A*%
%TO.N,Net-(D58-A)*%
X227888800Y-75943000D03*
%TD*%
%TO.P,D23,1,K*%
%TO.N,row1*%
X137515600Y-46688200D03*
%TO.P,D23,2,A*%
%TO.N,Net-(D23-A)*%
X137515600Y-43888200D03*
%TD*%
%TO.P,D57,1,K*%
%TO.N,row3*%
X209524600Y-80952800D03*
%TO.P,D57,2,A*%
%TO.N,Net-(D57-A)*%
X209524600Y-78152800D03*
%TD*%
%TO.P,D56,1,K*%
%TO.N,row3*%
X191465200Y-80851200D03*
%TO.P,D56,2,A*%
%TO.N,Net-(D56-A)*%
X191465200Y-78051200D03*
%TD*%
%TO.P,D52,1,K*%
%TO.N,row3*%
X119557800Y-81638600D03*
%TO.P,D52,2,A*%
%TO.N,Net-(D52-A)*%
X119557800Y-78838600D03*
%TD*%
%TO.P,D51,1,K*%
%TO.N,row3*%
X101498400Y-82324400D03*
%TO.P,D51,2,A*%
%TO.N,Net-(D51-A)*%
X101498400Y-79524400D03*
%TD*%
%TO.P,D60,1,K*%
%TO.N,row3*%
X248005600Y-80063800D03*
%TO.P,D60,2,A*%
%TO.N,Net-(D60-A)*%
X248005600Y-77263800D03*
%TD*%
D10*
%TO.P,S7,1,1*%
%TO.N,col6*%
X125080000Y-19880000D03*
%TO.P,S7,2,2*%
%TO.N,Net-(D7-A)*%
X137080000Y-22080000D03*
%TD*%
%TO.P,S33,1,1*%
%TO.N,col2*%
X35010000Y-54000000D03*
%TO.P,S33,2,2*%
%TO.N,Net-(D33-A)*%
X47010000Y-56200000D03*
%TD*%
%TO.P,S39,1,1*%
%TO.N,col8*%
X143100000Y-54000000D03*
%TO.P,S39,2,2*%
%TO.N,Net-(D39-A)*%
X155100000Y-56200000D03*
%TD*%
%TO.P,S17,1,1*%
%TO.N,row3*%
X194706250Y-88000000D03*
%TO.P,S17,2,2*%
%TO.N,Net-(D68-A)*%
X206706250Y-90200000D03*
%TD*%
%TO.P,S1,1,1*%
%TO.N,col0*%
X16949000Y-19890000D03*
%TO.P,S1,2,2*%
%TO.N,Net-(D1-A)*%
X28949000Y-22090000D03*
%TD*%
%TO.P,S30,1,1*%
%TO.N,col14*%
X251000000Y-37000000D03*
%TO.P,S30,2,2*%
%TO.N,Net-(D30-A)*%
X263000000Y-39200000D03*
%TD*%
%TO.P,S54,1,1*%
%TO.N,col8*%
X143000000Y-71000000D03*
%TO.P,S54,2,2*%
%TO.N,Net-(D54-A)*%
X155000000Y-73200000D03*
%TD*%
%TO.P,S14,1,1*%
%TO.N,col13*%
X233000000Y-36950000D03*
%TO.P,S14,2,2*%
%TO.N,Net-(D120-A)*%
X245000000Y-39150000D03*
%TD*%
D11*
%TO.P,D53,1,K*%
%TO.N,row3*%
X137414000Y-81714800D03*
%TO.P,D53,2,A*%
%TO.N,Net-(D53-A)*%
X137414000Y-78914800D03*
%TD*%
D10*
%TO.P,S29,1,1*%
%TO.N,row3*%
X73243750Y-88050000D03*
%TO.P,S29,2,2*%
%TO.N,Net-(D121-A)*%
X85243750Y-90250000D03*
%TD*%
D11*
%TO.P,D42,1,K*%
%TO.N,row2*%
X209524600Y-64595200D03*
%TO.P,D42,2,A*%
%TO.N,Net-(D42-A)*%
X209524600Y-61795200D03*
%TD*%
%TO.P,D9,1,K*%
%TO.N,row0*%
X173456600Y-32718200D03*
%TO.P,D9,2,A*%
%TO.N,Net-(D9-A)*%
X173456600Y-29918200D03*
%TD*%
%TO.P,D10,1,K*%
%TO.N,row0*%
X191414400Y-32515000D03*
%TO.P,D10,2,A*%
%TO.N,Net-(D10-A)*%
X191414400Y-29715000D03*
%TD*%
%TO.P,D73,1,K*%
%TO.N,row4*%
X227533200Y-97818400D03*
%TO.P,D73,2,A*%
%TO.N,Net-(D73-A)*%
X227533200Y-95018400D03*
%TD*%
D10*
%TO.P,S25,1,1*%
%TO.N,col9*%
X161000000Y-36950000D03*
%TO.P,S25,2,2*%
%TO.N,Net-(D25-A)*%
X173000000Y-39150000D03*
%TD*%
D11*
%TO.P,D46,1,K*%
%TO.N,row3*%
X29514800Y-82349800D03*
%TO.P,D46,2,A*%
%TO.N,Net-(D46-A)*%
X29514800Y-79549800D03*
%TD*%
D10*
%TO.P,S16,1,1*%
%TO.N,col0*%
X17000000Y-36900000D03*
%TO.P,S16,2,2*%
%TO.N,Net-(D16-A)*%
X29000000Y-39100000D03*
%TD*%
%TO.P,S48,1,1*%
%TO.N,col2*%
X35010000Y-71050000D03*
%TO.P,S48,2,2*%
%TO.N,Net-(D48-A)*%
X47010000Y-73250000D03*
%TD*%
D11*
%TO.P,D49,1,K*%
%TO.N,row3*%
X65405000Y-82172000D03*
%TO.P,D49,2,A*%
%TO.N,Net-(D49-A)*%
X65405000Y-79372000D03*
%TD*%
D10*
%TO.P,S3,1,1*%
%TO.N,col2*%
X52959000Y-19890000D03*
%TO.P,S3,2,2*%
%TO.N,Net-(D3-A)*%
X64959000Y-22090000D03*
%TD*%
D11*
%TO.P,D121,1,K*%
%TO.N,row4*%
X86944200Y-97310400D03*
%TO.P,D121,2,A*%
%TO.N,Net-(D121-A)*%
X86944200Y-94510400D03*
%TD*%
D10*
%TO.P,S12,1,1*%
%TO.N,col11*%
X214900000Y-19900000D03*
%TO.P,S12,2,2*%
%TO.N,Net-(D12-A)*%
X226900000Y-22100000D03*
%TD*%
%TO.P,S2,1,1*%
%TO.N,col1*%
X34949000Y-19890000D03*
%TO.P,S2,2,2*%
%TO.N,Net-(D2-A)*%
X46949000Y-22090000D03*
%TD*%
D11*
%TO.P,D16,1,K*%
%TO.N,row1*%
X29565600Y-46434200D03*
%TO.P,D16,2,A*%
%TO.N,Net-(D16-A)*%
X29565600Y-43634200D03*
%TD*%
D10*
%TO.P,S21,1,1*%
%TO.N,col5*%
X89000000Y-36900000D03*
%TO.P,S21,2,2*%
%TO.N,Net-(D21-A)*%
X101000000Y-39100000D03*
%TD*%
%TO.P,S27,1,1*%
%TO.N,col11*%
X197000000Y-37000000D03*
%TO.P,S27,2,2*%
%TO.N,Net-(D27-A)*%
X209000000Y-39200000D03*
%TD*%
%TO.P,S35,1,1*%
%TO.N,col4*%
X71000000Y-54000000D03*
%TO.P,S35,2,2*%
%TO.N,Net-(D35-A)*%
X83000000Y-56200000D03*
%TD*%
%TO.P,S74,1,1*%
%TO.N,col13*%
X233010000Y-88000000D03*
%TO.P,S74,2,2*%
%TO.N,Net-(D74-A)*%
X245010000Y-90200000D03*
%TD*%
D11*
%TO.P,D48,1,K*%
%TO.N,row3*%
X47472600Y-82095800D03*
%TO.P,D48,2,A*%
%TO.N,Net-(D48-A)*%
X47472600Y-79295800D03*
%TD*%
D10*
%TO.P,S36,1,1*%
%TO.N,col5*%
X89000000Y-54000000D03*
%TO.P,S36,2,2*%
%TO.N,Net-(D36-A)*%
X101000000Y-56200000D03*
%TD*%
%TO.P,S9,1,1*%
%TO.N,col8*%
X160979000Y-19900000D03*
%TO.P,S9,2,2*%
%TO.N,Net-(D9-A)*%
X172979000Y-22100000D03*
%TD*%
D11*
%TO.P,D19,1,K*%
%TO.N,row1*%
X65506600Y-46332600D03*
%TO.P,D19,2,A*%
%TO.N,Net-(D19-A)*%
X65506600Y-43532600D03*
%TD*%
D10*
%TO.P,S55,1,1*%
%TO.N,col9*%
X161000000Y-71000000D03*
%TO.P,S55,2,2*%
%TO.N,Net-(D55-A)*%
X173000000Y-73200000D03*
%TD*%
D12*
%TO.P,D14,1,VDD*%
%TO.N,5v*%
X40716200Y-12067000D03*
%TO.P,D14,2,DOUT*%
%TO.N,Net-(D14-DOUT)*%
X40716200Y-15367000D03*
%TO.P,D14,3,VSS*%
%TO.N,gnd*%
X35816200Y-15367000D03*
%TO.P,D14,4,DIN*%
%TO.N,data in led*%
X35816200Y-12067000D03*
%TD*%
%TO.P,D17,1,VDD*%
%TO.N,5v*%
X77444600Y-11252200D03*
%TO.P,D17,2,DOUT*%
%TO.N,Net-(D17-DOUT)*%
X77444600Y-14552200D03*
%TO.P,D17,3,VSS*%
%TO.N,gnd*%
X72544600Y-14552200D03*
%TO.P,D17,4,DIN*%
%TO.N,Net-(D14-DOUT)*%
X72544600Y-11252200D03*
%TD*%
%TO.P,D29,1,VDD*%
%TO.N,5v*%
X113030000Y-11404600D03*
%TO.P,D29,2,DOUT*%
%TO.N,Net-(D29-DOUT)*%
X113030000Y-14704600D03*
%TO.P,D29,3,VSS*%
%TO.N,gnd*%
X108130000Y-14704600D03*
%TO.P,D29,4,DIN*%
%TO.N,Net-(D17-DOUT)*%
X108130000Y-11404600D03*
%TD*%
%TO.P,D44,1,VDD*%
%TO.N,5v*%
X184785000Y-11889200D03*
%TO.P,D44,2,DOUT*%
%TO.N,Net-(D44-DOUT)*%
X184785000Y-15189200D03*
%TO.P,D44,3,VSS*%
%TO.N,gnd*%
X179885000Y-15189200D03*
%TO.P,D44,4,DIN*%
%TO.N,Net-(D32-DOUT)*%
X179885000Y-11889200D03*
%TD*%
%TO.P,D47,1,VDD*%
%TO.N,5v*%
X221183200Y-11557000D03*
%TO.P,D47,2,DOUT*%
%TO.N,Net-(D47-DOUT)*%
X221183200Y-14857000D03*
%TO.P,D47,3,VSS*%
%TO.N,gnd*%
X216283200Y-14857000D03*
%TO.P,D47,4,DIN*%
%TO.N,Net-(D44-DOUT)*%
X216283200Y-11557000D03*
%TD*%
%TO.P,D64,1,VDD*%
%TO.N,5v*%
X183210200Y-88747600D03*
%TO.P,D64,2,DOUT*%
%TO.N,Net-(D64-DOUT)*%
X183210200Y-92047600D03*
%TO.P,D64,3,VSS*%
%TO.N,gnd*%
X178310200Y-92047600D03*
%TO.P,D64,4,DIN*%
%TO.N,Net-(D59-DOUT)*%
X178310200Y-88747600D03*
%TD*%
%TO.P,D59,1,VDD*%
%TO.N,5v*%
X253390400Y-12039600D03*
%TO.P,D59,2,DOUT*%
%TO.N,Net-(D59-DOUT)*%
X253390400Y-15339600D03*
%TO.P,D59,3,VSS*%
%TO.N,gnd*%
X248490400Y-15339600D03*
%TO.P,D59,4,DIN*%
%TO.N,Net-(D47-DOUT)*%
X248490400Y-12039600D03*
%TD*%
D13*
%TO.P,U1,1,GPIO0*%
%TO.N,col0*%
X287496250Y-13970000D03*
D14*
X288396250Y-13970000D03*
D13*
%TO.P,U1,2,GPIO1*%
%TO.N,col1*%
X287496250Y-16510000D03*
D14*
X288396250Y-16510000D03*
D15*
%TO.P,U1,3,GND*%
%TO.N,unconnected-(U1-GND-Pad3)*%
X287496250Y-19050000D03*
D14*
X288396250Y-19050000D03*
D13*
%TO.P,U1,4,GPIO2*%
%TO.N,col2*%
X287496250Y-21590000D03*
D14*
X288396250Y-21590000D03*
D13*
%TO.P,U1,5,GPIO3*%
%TO.N,col3*%
X287496250Y-24130000D03*
D14*
X288396250Y-24130000D03*
D13*
%TO.P,U1,6,GPIO4*%
%TO.N,col4*%
X287496250Y-26670000D03*
D14*
X288396250Y-26670000D03*
D13*
%TO.P,U1,7,GPIO5*%
%TO.N,col5*%
X287496250Y-29210000D03*
D14*
X288396250Y-29210000D03*
D15*
%TO.P,U1,8,GND*%
%TO.N,unconnected-(U1-GND-Pad8)*%
X287496250Y-31750000D03*
D14*
X288396250Y-31750000D03*
D13*
%TO.P,U1,9,GPIO6*%
%TO.N,col6*%
X287496250Y-34290000D03*
D14*
X288396250Y-34290000D03*
D13*
%TO.P,U1,10,GPIO7*%
%TO.N,col7*%
X287496250Y-36830000D03*
D14*
X288396250Y-36830000D03*
D13*
%TO.P,U1,11,GPIO8*%
%TO.N,col8*%
X287496250Y-39370000D03*
D14*
X288396250Y-39370000D03*
D13*
%TO.P,U1,12,GPIO9*%
%TO.N,col9*%
X287496250Y-41910000D03*
D14*
X288396250Y-41910000D03*
D15*
%TO.P,U1,13,GND*%
%TO.N,unconnected-(U1-GND-Pad13)*%
X287496250Y-44450000D03*
D14*
X288396250Y-44450000D03*
D13*
%TO.P,U1,14,GPIO10*%
%TO.N,col10*%
X287496250Y-46990000D03*
D14*
X288396250Y-46990000D03*
D13*
%TO.P,U1,15,GPIO11*%
%TO.N,col11*%
X287496250Y-49530000D03*
D14*
X288396250Y-49530000D03*
D13*
%TO.P,U1,16,GPIO12*%
%TO.N,col12*%
X287496250Y-52070000D03*
D14*
X288396250Y-52070000D03*
D13*
%TO.P,U1,17,GPIO13*%
%TO.N,col13*%
X287496250Y-54610000D03*
D14*
X288396250Y-54610000D03*
D15*
%TO.P,U1,18,GND*%
%TO.N,unconnected-(U1-GND-Pad18)*%
X287496250Y-57150000D03*
D14*
X288396250Y-57150000D03*
D13*
%TO.P,U1,19,GPIO14*%
%TO.N,col14*%
X287496250Y-59690000D03*
D14*
X288396250Y-59690000D03*
D13*
%TO.P,U1,20,GPIO15*%
%TO.N,unconnected-(U1-GPIO15-Pad20)*%
X287496250Y-62230000D03*
D14*
X288396250Y-62230000D03*
D13*
%TO.P,U1,21,GPIO16*%
%TO.N,row0*%
X269716250Y-62230000D03*
D14*
X268816250Y-62230000D03*
D13*
%TO.P,U1,22,GPIO17*%
%TO.N,row1*%
X269716250Y-59690000D03*
D14*
X268816250Y-59690000D03*
D15*
%TO.P,U1,23,GND*%
%TO.N,unconnected-(U1-GND-Pad23)*%
X269716250Y-57150000D03*
D14*
X268816250Y-57150000D03*
D13*
%TO.P,U1,24,GPIO18*%
%TO.N,row2*%
X269716250Y-54610000D03*
D14*
X268816250Y-54610000D03*
D13*
%TO.P,U1,25,GPIO19*%
%TO.N,row3*%
X269716250Y-52070000D03*
D14*
X268816250Y-52070000D03*
D13*
%TO.P,U1,26,GPIO20*%
%TO.N,row4*%
X269716250Y-49530000D03*
D14*
X268816250Y-49530000D03*
D13*
%TO.P,U1,27,GPIO21*%
%TO.N,unconnected-(U1-GPIO21-Pad27)*%
X269716250Y-46990000D03*
D14*
X268816250Y-46990000D03*
D15*
%TO.P,U1,28,GND*%
%TO.N,gnd*%
X269716250Y-44450000D03*
D14*
X268816250Y-44450000D03*
D13*
%TO.P,U1,29,GPIO22*%
%TO.N,data in led*%
X269716250Y-41910000D03*
D14*
X268816250Y-41910000D03*
D13*
%TO.P,U1,30,RUN*%
%TO.N,unconnected-(U1-RUN-Pad30)*%
X269716250Y-39370000D03*
D14*
X268816250Y-39370000D03*
D13*
%TO.P,U1,31,GPIO26_ADC0*%
%TO.N,unconnected-(U1-GPIO26_ADC0-Pad31)*%
X269716250Y-36830000D03*
D14*
X268816250Y-36830000D03*
D13*
%TO.P,U1,32,GPIO27_ADC1*%
%TO.N,unconnected-(U1-GPIO27_ADC1-Pad32)*%
X269716250Y-34290000D03*
D14*
X268816250Y-34290000D03*
D15*
%TO.P,U1,33,AGND*%
%TO.N,unconnected-(U1-AGND-Pad33)*%
X269716250Y-31750000D03*
D14*
X268816250Y-31750000D03*
D13*
%TO.P,U1,34,GPIO28_ADC2*%
%TO.N,unconnected-(U1-GPIO28_ADC2-Pad34)*%
X269716250Y-29210000D03*
D14*
X268816250Y-29210000D03*
D13*
%TO.P,U1,35,ADC_VREF*%
%TO.N,unconnected-(U1-ADC_VREF-Pad35)*%
X269716250Y-26670000D03*
D14*
X268816250Y-26670000D03*
D13*
%TO.P,U1,36,3V3*%
%TO.N,unconnected-(U1-3V3-Pad36)*%
X269716250Y-24130000D03*
D14*
X268816250Y-24130000D03*
D13*
%TO.P,U1,37,3V3_EN*%
%TO.N,unconnected-(U1-3V3_EN-Pad37)*%
X269716250Y-21590000D03*
D14*
X268816250Y-21590000D03*
D15*
%TO.P,U1,38,GND*%
%TO.N,unconnected-(U1-GND-Pad38)*%
X269716250Y-19050000D03*
D14*
X268816250Y-19050000D03*
D13*
%TO.P,U1,39,VSYS*%
%TO.N,unconnected-(U1-VSYS-Pad39)*%
X269716250Y-16510000D03*
D14*
X268816250Y-16510000D03*
D13*
%TO.P,U1,40,VBUS*%
%TO.N,5v*%
X269716250Y-13970000D03*
D14*
X268816250Y-13970000D03*
D13*
%TO.P,U1,41,SWCLK*%
%TO.N,unconnected-(U1-SWCLK-Pad41)*%
X281146250Y-62000000D03*
D16*
X281146250Y-62900000D03*
D15*
%TO.P,U1,42,GND*%
%TO.N,unconnected-(U1-GND-Pad42)*%
X278606250Y-62000000D03*
D16*
X278606250Y-62900000D03*
D13*
%TO.P,U1,43,SWDIO*%
%TO.N,unconnected-(U1-SWDIO-Pad43)*%
X276066250Y-62000000D03*
D16*
X276066250Y-62900000D03*
%TD*%
D12*
%TO.P,D32,1,VDD*%
%TO.N,5v*%
X148691600Y-11709400D03*
%TO.P,D32,2,DOUT*%
%TO.N,Net-(D32-DOUT)*%
X148691600Y-15009400D03*
%TO.P,D32,3,VSS*%
%TO.N,gnd*%
X143791600Y-15009400D03*
%TO.P,D32,4,DIN*%
%TO.N,Net-(D29-DOUT)*%
X143791600Y-11709400D03*
%TD*%
%TO.P,D67,1,VDD*%
%TO.N,5v*%
X259054600Y-70510400D03*
%TO.P,D67,2,DOUT*%
%TO.N,unconnected-(D67-DOUT-Pad2)*%
X259054600Y-73810400D03*
%TO.P,D67,3,VSS*%
%TO.N,gnd*%
X254154600Y-73810400D03*
%TO.P,D67,4,DIN*%
%TO.N,Net-(D66-DOUT)*%
X254154600Y-70510400D03*
%TD*%
%TO.P,D65,1,VDD*%
%TO.N,5v*%
X146862800Y-88673400D03*
%TO.P,D65,2,DOUT*%
%TO.N,Net-(D65-DOUT)*%
X146862800Y-91973400D03*
%TO.P,D65,3,VSS*%
%TO.N,gnd*%
X141962800Y-91973400D03*
%TO.P,D65,4,DIN*%
%TO.N,Net-(D64-DOUT)*%
X141962800Y-88673400D03*
%TD*%
%TO.P,D66,1,VDD*%
%TO.N,5v*%
X110413800Y-90045000D03*
%TO.P,D66,2,DOUT*%
%TO.N,unconnected-(D66-DOUT-Pad2)*%
X110413800Y-93345000D03*
%TO.P,D66,3,VSS*%
%TO.N,gnd*%
X105513800Y-93345000D03*
%TO.P,D66,4,DIN*%
%TO.N,Net-(D65-DOUT)*%
X105513800Y-90045000D03*
%TD*%
D10*
%TO.P,S19,1,1*%
%TO.N,col3*%
X53000000Y-36950000D03*
%TO.P,S19,2,2*%
%TO.N,Net-(D19-A)*%
X65000000Y-39150000D03*
%TD*%
D11*
%TO.P,D8,1,K*%
%TO.N,row0*%
X155524200Y-32743600D03*
%TO.P,D8,2,A*%
%TO.N,Net-(D8-A)*%
X155524200Y-29943600D03*
%TD*%
D10*
%TO.P,S8,1,1*%
%TO.N,col7*%
X143079000Y-19890000D03*
%TO.P,S8,2,2*%
%TO.N,Net-(D8-A)*%
X155079000Y-22090000D03*
%TD*%
D17*
%TO.N,row4*%
X263753600Y-71348600D03*
X261010400Y-54914800D03*
X240817400Y-98679000D03*
X236016800Y-98679000D03*
X207137000Y-99974400D03*
X176149000Y-98933000D03*
%TO.N,Net-(D6-A)*%
X120472200Y-28956000D03*
%TO.N,Net-(D5-A)*%
X101549200Y-26339800D03*
%TO.N,Net-(D3-A)*%
X65506600Y-26009600D03*
%TO.N,row0*%
X34950400Y-32435800D03*
X40944800Y-32385000D03*
X51943000Y-32385000D03*
X59893200Y-31775400D03*
X69977000Y-32613600D03*
X75692000Y-32689800D03*
X99466400Y-30962600D03*
X111302800Y-32562800D03*
X104749600Y-32537400D03*
X121894600Y-32766000D03*
X131724400Y-32537400D03*
X147828000Y-32918400D03*
X142976600Y-32842200D03*
X161112200Y-31699200D03*
X167563800Y-31546800D03*
X175336200Y-32359600D03*
X185267600Y-32512000D03*
X207441800Y-31292800D03*
X201701400Y-31623000D03*
X214757000Y-31445200D03*
X220726000Y-31394400D03*
X258572000Y-30530800D03*
X255803400Y-29895800D03*
%TO.N,Net-(D4-A)*%
X83235800Y-27330400D03*
X83947000Y-28422600D03*
%TO.N,row3*%
X29718000Y-85699600D03*
X45999400Y-85242400D03*
%TO.N,row2*%
X31013400Y-63525400D03*
X39903400Y-64008000D03*
X52349400Y-63754000D03*
X54330600Y-63931800D03*
X71882000Y-64414400D03*
X69520251Y-63800151D03*
X89916000Y-63195200D03*
X86639400Y-63373000D03*
X104292400Y-64287400D03*
X109880400Y-64363600D03*
X125603000Y-66014600D03*
X119862600Y-66421000D03*
X139776200Y-65100200D03*
X145186400Y-65328800D03*
X157302200Y-65151000D03*
X161848800Y-64516000D03*
X180213000Y-66548000D03*
X175031400Y-66725800D03*
X194970400Y-66598800D03*
X198018400Y-66014600D03*
X245084600Y-65913000D03*
X229920800Y-64693800D03*
X251891800Y-63627000D03*
X249174000Y-65735200D03*
%TO.N,row1*%
X214299800Y-46939200D03*
X225018600Y-46431200D03*
X206883000Y-46939200D03*
X196240400Y-46812200D03*
X189357000Y-46609000D03*
X178409600Y-46431200D03*
X160248600Y-46329600D03*
X170865800Y-46558200D03*
X152831800Y-46837600D03*
X142519400Y-46609000D03*
X134569200Y-46609000D03*
X124206000Y-46456600D03*
X106273600Y-45923200D03*
X117398800Y-46355000D03*
X88290400Y-46126400D03*
X99060000Y-46304200D03*
X81203800Y-46609000D03*
X69875400Y-46304200D03*
X52400200Y-46151800D03*
X63373000Y-46507400D03*
X45110400Y-46964600D03*
X30556200Y-48260000D03*
X229793800Y-45643800D03*
X241604800Y-46355000D03*
%TO.N,Net-(D120-A)*%
X245193879Y-41345800D03*
X245262400Y-42595800D03*
%TO.N,row1*%
X264820400Y-47726600D03*
%TO.N,row0*%
X93954600Y-30073600D03*
X229057200Y-31673800D03*
X265506200Y-51333400D03*
X265627806Y-55103777D03*
X265912600Y-52933600D03*
%TO.N,Net-(D3-A)*%
X65151000Y-24155400D03*
%TO.N,Net-(D5-A)*%
X100888800Y-24257000D03*
%TO.N,Net-(D6-A)*%
X119303800Y-27813000D03*
%TO.N,Net-(D7-A)*%
X137134600Y-24104600D03*
X138125200Y-25984200D03*
%TO.N,Net-(D8-A)*%
X157099000Y-25273000D03*
X156006800Y-23876000D03*
%TO.N,Net-(D10-A)*%
X193421000Y-28186000D03*
X191389000Y-27814000D03*
%TO.N,data in led*%
X265353800Y-21920200D03*
X265836400Y-11150600D03*
X139801600Y-11114800D03*
X263296400Y-12903200D03*
X264718800Y-16230600D03*
%TO.N,gnd*%
X259588000Y-15290800D03*
X264718800Y-54737000D03*
X266012253Y-16354694D03*
X265054864Y-57114200D03*
X260604000Y-16306800D03*
X264971728Y-52906397D03*
X264210800Y-44831000D03*
X258038600Y-14782800D03*
X266454687Y-50389752D03*
%TO.N,5v*%
X267589000Y-103733600D03*
X257302000Y-13055600D03*
X291465000Y-79324200D03*
X265024479Y-14931622D03*
X177927000Y-95504000D03*
X288391600Y-78638400D03*
X261950200Y-14300200D03*
X269240000Y-11114800D03*
X292875543Y-80211400D03*
X186258200Y-91262200D03*
%TO.N,row1*%
X263550400Y-48133000D03*
X263753600Y-54762400D03*
X263702800Y-56464200D03*
X264083800Y-51511200D03*
X266566248Y-57150000D03*
X263423400Y-50114200D03*
%TO.N,Net-(D29-DOUT)*%
X118795800Y-14605000D03*
X140716000Y-13131800D03*
%TO.N,row2*%
X263433800Y-53335219D03*
%TO.N,Net-(D44-DOUT)*%
X215036400Y-11684000D03*
X209956400Y-15290800D03*
%TO.N,Net-(D59-DOUT)*%
X270535400Y-101701600D03*
X292151895Y-11848848D03*
%TO.N,row4*%
X263118600Y-64516000D03*
%TO.N,col0*%
X19170388Y-18355748D03*
X292633400Y-10337800D03*
%TO.N,col1*%
X266297619Y-17654494D03*
X36449000Y-18389600D03*
%TO.N,col2*%
X262204200Y-15290800D03*
%TO.N,col3*%
X70949000Y-19890000D03*
%TO.N,col4*%
X88925400Y-22682200D03*
%TO.N,col5*%
X106979000Y-19890000D03*
%TO.N,col6*%
X264987950Y-36891865D03*
X259664200Y-28498800D03*
X281406600Y-40436800D03*
%TO.N,col7*%
X155295600Y-24434800D03*
%TO.N,col8*%
X260096000Y-13705600D03*
X160979000Y-19900000D03*
X265676187Y-14385929D03*
X265455400Y-13469000D03*
%TO.N,col9*%
X182727600Y-29946600D03*
X222182881Y-30595000D03*
X251688600Y-39725600D03*
X237667800Y-30759400D03*
X263403800Y-37389018D03*
X260604000Y-35280600D03*
X276783800Y-48107600D03*
%TO.N,col10*%
X181229000Y-67868800D03*
%TO.N,col11*%
X215519000Y-21666200D03*
%TO.N,col12*%
X248031000Y-54152800D03*
X236448600Y-57581800D03*
X260604000Y-64922400D03*
X231876600Y-58749000D03*
%TO.N,col14*%
X250721023Y-37278977D03*
%TO.N,col13*%
X231495600Y-82143600D03*
X289460200Y-64530843D03*
X234365800Y-63576200D03*
X229539800Y-47091600D03*
X231546400Y-68783200D03*
%TD*%
D18*
%TO.N,Net-(D61-A)*%
X29514800Y-92430600D02*
X29514800Y-94764400D01*
X29000000Y-91915800D02*
X29514800Y-92430600D01*
X29000000Y-90300000D02*
X29000000Y-91915800D01*
%TO.N,Net-(D62-A)*%
X47498000Y-92659200D02*
X47498000Y-94967600D01*
X47000000Y-92161200D02*
X47498000Y-92659200D01*
X47000000Y-90300000D02*
X47000000Y-92161200D01*
%TO.N,Net-(D63-A)*%
X66116200Y-92913200D02*
X66116200Y-94231000D01*
X65000000Y-91797000D02*
X66116200Y-92913200D01*
X65000000Y-90300000D02*
X65000000Y-91797000D01*
%TO.N,Net-(D121-A)*%
X86944200Y-92938600D02*
X86944200Y-94510400D01*
X85243750Y-91238150D02*
X86944200Y-92938600D01*
%TO.N,Net-(D68-A)*%
X208457800Y-91951550D02*
X208457800Y-93088000D01*
X206706250Y-90200000D02*
X208457800Y-91951550D01*
%TO.N,Net-(D73-A)*%
X227533200Y-93243400D02*
X227533200Y-95018400D01*
X227000000Y-92710200D02*
X227533200Y-93243400D01*
X227000000Y-90200000D02*
X227000000Y-92710200D01*
%TO.N,Net-(D74-A)*%
X245010000Y-92305200D02*
X245618000Y-92913200D01*
X245618000Y-92913200D02*
X245618000Y-94688200D01*
X245010000Y-90200000D02*
X245010000Y-92305200D01*
%TO.N,Net-(D75-A)*%
X264287000Y-91299800D02*
X264287000Y-93265800D01*
X264553200Y-91033600D02*
X264287000Y-91299800D01*
%TO.N,row4*%
X265138000Y-72733000D02*
X263753600Y-71348600D01*
X265138000Y-95214800D02*
X265138000Y-72733000D01*
X264287000Y-96065800D02*
X265138000Y-95214800D01*
X262864600Y-97488200D02*
X264287000Y-96065800D01*
X245618000Y-97488200D02*
X262864600Y-97488200D01*
X241858800Y-98679000D02*
X243049600Y-97488200D01*
X240817400Y-98679000D02*
X241858800Y-98679000D01*
X235156200Y-97818400D02*
X236016800Y-98679000D01*
X227533200Y-97818400D02*
X235156200Y-97818400D01*
X243049600Y-97488200D02*
X245618000Y-97488200D01*
X210388200Y-97818400D02*
X227533200Y-97818400D01*
X208457800Y-95888000D02*
X210388200Y-97818400D01*
X208457800Y-98653600D02*
X208457800Y-95888000D01*
X207137000Y-99974400D02*
X208457800Y-98653600D01*
X174526400Y-97310400D02*
X176149000Y-98933000D01*
X86944200Y-97310400D02*
X174526400Y-97310400D01*
X86664800Y-97031000D02*
X86944200Y-97310400D01*
X66116200Y-97031000D02*
X86664800Y-97031000D01*
X57782000Y-97031000D02*
X66116200Y-97031000D01*
X57045400Y-97767600D02*
X57782000Y-97031000D01*
X47498000Y-97767600D02*
X57045400Y-97767600D01*
X47294800Y-97564400D02*
X47498000Y-97767600D01*
X29514800Y-97564400D02*
X47294800Y-97564400D01*
%TO.N,Net-(D58-A)*%
X227888800Y-74188800D02*
X227000000Y-73300000D01*
X227888800Y-75943000D02*
X227888800Y-74188800D01*
%TO.N,Net-(D51-A)*%
X101498400Y-76987400D02*
X101498400Y-79524400D01*
X101000000Y-76489000D02*
X101498400Y-76987400D01*
%TO.N,row2*%
X229774400Y-64547400D02*
X229920800Y-64693800D01*
X227863400Y-64547400D02*
X229774400Y-64547400D01*
X227832000Y-64547400D02*
X225323400Y-67056000D01*
X227863400Y-64547400D02*
X227832000Y-64547400D01*
%TO.N,Net-(D19-A)*%
X65506600Y-42113200D02*
X65000000Y-41606600D01*
%TO.N,row0*%
X228628400Y-31245000D02*
X229057200Y-31673800D01*
X227406200Y-31245000D02*
X228628400Y-31245000D01*
%TO.N,col12*%
X215000000Y-65031514D02*
X215000000Y-37000000D01*
X225976286Y-65031514D02*
X215000000Y-65031514D01*
X231876600Y-59131200D02*
X225976286Y-65031514D01*
X231876600Y-58749000D02*
X231876600Y-59131200D01*
%TO.N,Net-(D8-A)*%
X155524200Y-28752800D02*
X155524200Y-29943600D01*
X155219400Y-28448000D02*
X155524200Y-28752800D01*
%TO.N,Net-(D7-A)*%
X137591800Y-28448000D02*
X137591800Y-29969000D01*
X137566400Y-28422600D02*
X137591800Y-28448000D01*
%TO.N,Net-(D6-A)*%
X120472200Y-28978400D02*
X119507000Y-29943600D01*
X120472200Y-28956000D02*
X120472200Y-28978400D01*
%TO.N,col6*%
X119883161Y-28625800D02*
X120345200Y-28163761D01*
X113974200Y-28625800D02*
X119883161Y-28625800D01*
X107000000Y-35600000D02*
X113974200Y-28625800D01*
X120345200Y-28163761D02*
X120345200Y-24614800D01*
X107000000Y-36850000D02*
X107000000Y-35600000D01*
X120345200Y-24614800D02*
X125080000Y-19880000D01*
%TO.N,Net-(D5-A)*%
X101498400Y-26390600D02*
X101549200Y-26339800D01*
X101498400Y-30045200D02*
X101498400Y-26390600D01*
%TO.N,Net-(D4-A)*%
X83947000Y-29486400D02*
X83464400Y-29969000D01*
X83947000Y-28422600D02*
X83947000Y-29486400D01*
%TO.N,col3*%
X65237361Y-25359600D02*
X65479400Y-25359600D01*
X64856600Y-25740361D02*
X65237361Y-25359600D01*
X59713600Y-31125400D02*
X64856600Y-25982400D01*
X59243200Y-31595800D02*
X59243200Y-31506161D01*
%TO.N,Net-(D3-A)*%
X65405000Y-26111200D02*
X65405000Y-29359400D01*
%TO.N,col3*%
X59243200Y-31506161D02*
X59623961Y-31125400D01*
X59623961Y-31125400D02*
X59713600Y-31125400D01*
X53889000Y-36950000D02*
X59243200Y-31595800D01*
%TO.N,Net-(D3-A)*%
X65506600Y-26009600D02*
X65405000Y-26111200D01*
%TO.N,col3*%
X64856600Y-25982400D02*
X64856600Y-25740361D01*
X65479400Y-25359600D02*
X70949000Y-19890000D01*
%TO.N,Net-(D2-A)*%
X47421800Y-25831799D02*
X47421800Y-29715000D01*
X46949000Y-25359000D02*
X47421800Y-25831799D01*
X46949000Y-22090000D02*
X46949000Y-25359000D01*
%TO.N,col2*%
X45628000Y-20539000D02*
X47792400Y-20539000D01*
X45364400Y-20802600D02*
X45628000Y-20539000D01*
X45364400Y-26144800D02*
X45364400Y-20802600D01*
X45599800Y-26380200D02*
X45364400Y-26144800D01*
X45599800Y-26380200D02*
X35080000Y-36900000D01*
X47792400Y-19890000D02*
X47792400Y-20539000D01*
X52090000Y-19890000D02*
X47792400Y-19890000D01*
%TO.N,Net-(D1-A)*%
X29489400Y-25668000D02*
X28949000Y-25127600D01*
X29489400Y-29511800D02*
X29489400Y-25668000D01*
%TO.N,col1*%
X31496000Y-23139400D02*
X34745400Y-19890000D01*
X31496000Y-28919040D02*
X31496000Y-23139400D01*
X31438400Y-28976640D02*
X31496000Y-28919040D01*
X30340400Y-28976640D02*
X31438400Y-28976640D01*
X29858840Y-30556200D02*
X30048200Y-30556200D01*
X31496000Y-63088761D02*
X31496000Y-35704560D01*
X30048200Y-30556200D02*
X30340400Y-30264000D01*
X28638400Y-31776640D02*
X29858840Y-30556200D01*
X31663400Y-63256161D02*
X31496000Y-63088761D01*
X28638400Y-32846960D02*
X28638400Y-31776640D01*
X31663400Y-86038400D02*
X31663400Y-63256161D01*
X33725000Y-88100000D02*
X31663400Y-86038400D01*
X30340400Y-30264000D02*
X30340400Y-28976640D01*
X31496000Y-35704560D02*
X28638400Y-32846960D01*
X35000000Y-88100000D02*
X33725000Y-88100000D01*
%TO.N,row0*%
X34826400Y-32311800D02*
X29489400Y-32311800D01*
X34950400Y-32435800D02*
X34826400Y-32311800D01*
X41074800Y-32515000D02*
X40944800Y-32385000D01*
X47421800Y-32515000D02*
X41074800Y-32515000D01*
X51943000Y-32385000D02*
X51813000Y-32515000D01*
X65405000Y-32159400D02*
X60277200Y-32159400D01*
X60277200Y-32159400D02*
X59893200Y-31775400D01*
X51813000Y-32515000D02*
X47421800Y-32515000D01*
X69141800Y-32159400D02*
X65405000Y-32159400D01*
X69596000Y-32613600D02*
X69141800Y-32159400D01*
X69977000Y-32613600D02*
X69596000Y-32613600D01*
X83385200Y-32689800D02*
X75692000Y-32689800D01*
X83464400Y-32769000D02*
X83385200Y-32689800D01*
X85344000Y-32715200D02*
X85290200Y-32769000D01*
X85290200Y-32769000D02*
X83464400Y-32769000D01*
X99615800Y-30962600D02*
X99466400Y-30962600D01*
X101498400Y-32845200D02*
X99615800Y-30962600D01*
X104749600Y-32537400D02*
X104441800Y-32845200D01*
X111483600Y-32743600D02*
X111302800Y-32562800D01*
X104441800Y-32845200D02*
X101498400Y-32845200D01*
X119507000Y-32743600D02*
X111483600Y-32743600D01*
X121872200Y-32743600D02*
X119507000Y-32743600D01*
X121894600Y-32766000D02*
X121872200Y-32743600D01*
X131956000Y-32769000D02*
X131724400Y-32537400D01*
X137591800Y-32769000D02*
X131956000Y-32769000D01*
X142903400Y-32769000D02*
X137591800Y-32769000D01*
X142976600Y-32842200D02*
X142903400Y-32769000D01*
X148002800Y-32743600D02*
X147828000Y-32918400D01*
X155524200Y-32743600D02*
X148002800Y-32743600D01*
X160067800Y-32743600D02*
X155524200Y-32743600D01*
X161112200Y-31699200D02*
X160067800Y-32743600D01*
X168735200Y-32718200D02*
X167563800Y-31546800D01*
X173456600Y-32718200D02*
X168735200Y-32718200D01*
%TO.N,Net-(D9-A)*%
X173456600Y-27813000D02*
X172979000Y-27335400D01*
X173456600Y-29918200D02*
X173456600Y-27813000D01*
%TO.N,row0*%
X174977600Y-32718200D02*
X173456600Y-32718200D01*
X175336200Y-32359600D02*
X174977600Y-32718200D01*
X185270600Y-32515000D02*
X185267600Y-32512000D01*
X191414400Y-32515000D02*
X185270600Y-32515000D01*
X209149600Y-31292800D02*
X209346800Y-31095600D01*
X207441800Y-31292800D02*
X209149600Y-31292800D01*
X200809400Y-32515000D02*
X201701400Y-31623000D01*
X191414400Y-32515000D02*
X200809400Y-32515000D01*
%TO.N,col11*%
X201970639Y-32273000D02*
X201727000Y-32273000D01*
X202351400Y-31892239D02*
X201970639Y-32273000D01*
X207324000Y-26676000D02*
X202351400Y-31648600D01*
X207324000Y-20864840D02*
X207324000Y-26676000D01*
X213451000Y-20549000D02*
X207639840Y-20549000D01*
X214100000Y-19900000D02*
X213451000Y-20549000D01*
X202351400Y-31648600D02*
X202351400Y-31892239D01*
X207639840Y-20549000D02*
X207324000Y-20864840D01*
X201727000Y-32273000D02*
X197000000Y-37000000D01*
%TO.N,Net-(D10-A)*%
X191741600Y-29715000D02*
X191414400Y-29715000D01*
X192811400Y-30784800D02*
X191741600Y-29715000D01*
%TO.N,Net-(D11-A)*%
X209346800Y-22546800D02*
X208900000Y-22100000D01*
X209346800Y-28295600D02*
X209346800Y-22546800D01*
%TO.N,row0*%
X210452200Y-32201000D02*
X209346800Y-31095600D01*
X214001200Y-32201000D02*
X210452200Y-32201000D01*
X214757000Y-31445200D02*
X214001200Y-32201000D01*
X220875400Y-31245000D02*
X220726000Y-31394400D01*
%TO.N,col9*%
X223659200Y-29909000D02*
X222973200Y-30595000D01*
X236817400Y-29909000D02*
X223659200Y-29909000D01*
X237667800Y-30759400D02*
X236817400Y-29909000D01*
X222973200Y-30595000D02*
X222182881Y-30595000D01*
%TO.N,row0*%
X227406200Y-31245000D02*
X220875400Y-31245000D01*
%TO.N,Net-(D12-A)*%
X227406200Y-27533600D02*
X227406200Y-28445000D01*
X227634800Y-27305000D02*
X227406200Y-27533600D01*
%TO.N,col12*%
X215000000Y-35750000D02*
X215000000Y-37000000D01*
X223527600Y-27222400D02*
X215000000Y-35750000D01*
X226046715Y-27222400D02*
X223527600Y-27222400D01*
X226555200Y-27730885D02*
X226046715Y-27222400D01*
X226871040Y-29296000D02*
X226555200Y-28980160D01*
X227941360Y-29296000D02*
X226871040Y-29296000D01*
X228513400Y-24396600D02*
X228513400Y-28723960D01*
X226555200Y-28980160D02*
X226555200Y-27730885D01*
X233000000Y-19910000D02*
X228513400Y-24396600D01*
X228513400Y-28723960D02*
X227941360Y-29296000D01*
%TO.N,row0*%
X229594400Y-32211000D02*
X229057200Y-31673800D01*
X238639000Y-30486000D02*
X238639000Y-31744000D01*
X238639000Y-31744000D02*
X238172000Y-32211000D01*
X245491000Y-30486000D02*
X238639000Y-30486000D01*
X238172000Y-32211000D02*
X229594400Y-32211000D01*
X247472200Y-30556200D02*
X247402000Y-30486000D01*
X248129400Y-29899000D02*
X247472200Y-30556200D01*
X247402000Y-30486000D02*
X245491000Y-30486000D01*
X255800200Y-29899000D02*
X248129400Y-29899000D01*
X255803400Y-29895800D02*
X255800200Y-29899000D01*
%TO.N,Net-(D13-A)*%
X245000000Y-25112200D02*
X245491000Y-25603200D01*
X245491000Y-25603200D02*
X245491000Y-27686000D01*
%TO.N,Net-(D15-A)*%
X263000000Y-24290800D02*
X263000000Y-22100000D01*
X263499600Y-24790400D02*
X263000000Y-24290800D01*
X263499600Y-27784600D02*
X263499600Y-24790400D01*
%TO.N,row0*%
X258651200Y-30584600D02*
X263499600Y-30584600D01*
X258597400Y-30530800D02*
X258651200Y-30584600D01*
X258572000Y-30530800D02*
X258597400Y-30530800D01*
X264200400Y-50027600D02*
X265506200Y-51333400D01*
X263819639Y-47483000D02*
X264200400Y-47863761D01*
X264200400Y-47863761D02*
X264200400Y-50027600D01*
X261789686Y-47483000D02*
X263819639Y-47483000D01*
X260905686Y-46599000D02*
X261789686Y-47483000D01*
X260771800Y-46599000D02*
X260905686Y-46599000D01*
X260048800Y-45876000D02*
X260771800Y-46599000D01*
X251087600Y-39476657D02*
X251087600Y-43654878D01*
X253308722Y-45876000D02*
X260048800Y-45876000D01*
X255910057Y-39124600D02*
X251439657Y-39124600D01*
X251087600Y-43654878D02*
X253308722Y-45876000D01*
X263499600Y-31535057D02*
X255910057Y-39124600D01*
X263499600Y-30584600D02*
X263499600Y-31535057D01*
X251439657Y-39124600D02*
X251087600Y-39476657D01*
%TO.N,col14*%
X251000000Y-35618439D02*
X251000000Y-37000000D01*
X256453400Y-30165039D02*
X251000000Y-35618439D01*
X256453400Y-29989286D02*
X256453400Y-30165039D01*
X257266686Y-29176000D02*
X256453400Y-29989286D01*
X259906239Y-29176000D02*
X257266686Y-29176000D01*
X260314200Y-28768039D02*
X259906239Y-29176000D01*
X255691278Y-23024000D02*
X258540200Y-25872922D01*
X258540200Y-25872922D02*
X258540200Y-26455561D01*
X258540200Y-26455561D02*
X260314200Y-28229561D01*
X260314200Y-28229561D02*
X260314200Y-28768039D01*
X252874000Y-23024000D02*
X255691278Y-23024000D01*
X251000000Y-21150000D02*
X252874000Y-23024000D01*
X251000000Y-19900000D02*
X251000000Y-21150000D01*
%TO.N,Net-(D4-A)*%
X83134200Y-27228800D02*
X83235800Y-27330400D01*
%TO.N,col4*%
X82284761Y-27298600D02*
X79431400Y-27298600D01*
X71080000Y-35650000D02*
X71080000Y-36900000D01*
X82966561Y-27980400D02*
X82284761Y-27298600D01*
X83505039Y-27980400D02*
X82966561Y-27980400D01*
X83966000Y-27519439D02*
X83505039Y-27980400D01*
X79431400Y-27298600D02*
X71080000Y-35650000D01*
X88090000Y-19890000D02*
X83966000Y-24014000D01*
X83966000Y-24014000D02*
X83966000Y-27519439D01*
%TO.N,row3*%
X227888800Y-80988900D02*
X236276200Y-80988900D01*
X227888800Y-78743000D02*
X227888800Y-80988900D01*
X209524600Y-80952800D02*
X209524600Y-87898400D01*
X209524600Y-87898400D02*
X209626200Y-88000000D01*
X209626200Y-88000000D02*
X210642200Y-88000000D01*
%TO.N,Net-(D57-A)*%
X209524600Y-75488800D02*
X209524600Y-78152800D01*
X209000000Y-74964200D02*
X209524600Y-75488800D01*
X209000000Y-73150000D02*
X209000000Y-74964200D01*
%TO.N,Net-(D56-A)*%
X191465200Y-76352400D02*
X191465200Y-78051200D01*
X190990000Y-75877200D02*
X191465200Y-76352400D01*
X190990000Y-73200000D02*
X190990000Y-75877200D01*
%TO.N,Net-(D54-A)*%
X155575000Y-76936600D02*
X155575000Y-78203600D01*
X155000000Y-76361600D02*
X155575000Y-76936600D01*
X155000000Y-73200000D02*
X155000000Y-76361600D01*
%TO.N,Net-(D53-A)*%
X137414000Y-77114400D02*
X137414000Y-78914800D01*
X137000000Y-76700400D02*
X137414000Y-77114400D01*
X137000000Y-73200000D02*
X137000000Y-76700400D01*
%TO.N,Net-(D52-A)*%
X119557800Y-76225400D02*
X119557800Y-78838600D01*
X119583200Y-76200000D02*
X119557800Y-76225400D01*
%TO.N,Net-(D51-A)*%
X101000000Y-73200000D02*
X101000000Y-76489000D01*
%TO.N,Net-(D50-A)*%
X83000000Y-77539000D02*
X83439000Y-77978000D01*
X83439000Y-77978000D02*
X83439000Y-79372000D01*
X83000000Y-73200000D02*
X83000000Y-77539000D01*
%TO.N,Net-(D49-A)*%
X65405000Y-77216000D02*
X65405000Y-79372000D01*
X65000000Y-76811000D02*
X65405000Y-77216000D01*
X65000000Y-73200000D02*
X65000000Y-76811000D01*
%TO.N,Net-(D48-A)*%
X47472600Y-76352400D02*
X47472600Y-79295800D01*
X47010000Y-75889800D02*
X47472600Y-76352400D01*
X47010000Y-73250000D02*
X47010000Y-75889800D01*
%TO.N,Net-(D46-A)*%
X29514800Y-76631800D02*
X29514800Y-79549800D01*
X28980000Y-76097000D02*
X29514800Y-76631800D01*
X28980000Y-73300000D02*
X28980000Y-76097000D01*
%TO.N,row3*%
X45999400Y-85242400D02*
X47472600Y-83769200D01*
X29514800Y-85496400D02*
X29718000Y-85699600D01*
X47472600Y-83769200D02*
X47472600Y-82095800D01*
X29514800Y-82349800D02*
X29514800Y-85496400D01*
X64276000Y-83301000D02*
X65405000Y-82172000D01*
X48677800Y-83301000D02*
X64276000Y-83301000D01*
X47472600Y-82095800D02*
X48677800Y-83301000D01*
X67365750Y-82172000D02*
X73243750Y-88050000D01*
X65405000Y-82172000D02*
X67365750Y-82172000D01*
X83337400Y-85674200D02*
X75619550Y-85674200D01*
X83439000Y-82172000D02*
X83439000Y-85572600D01*
X83439000Y-85572600D02*
X83337400Y-85674200D01*
X101498400Y-82324400D02*
X101498400Y-83275600D01*
X101473000Y-83301000D02*
X89850800Y-83301000D01*
X101498400Y-83275600D02*
X101473000Y-83301000D01*
X119557800Y-81638600D02*
X119557800Y-83301000D01*
X137490200Y-83301000D02*
X119557800Y-83301000D01*
X137414000Y-83224800D02*
X137490200Y-83301000D01*
X137414000Y-81714800D02*
X137414000Y-83224800D01*
X119557800Y-83301000D02*
X101473000Y-83301000D01*
X155575000Y-81003600D02*
X155575000Y-83199400D01*
X155575000Y-83199400D02*
X155676600Y-83301000D01*
X155676600Y-83301000D02*
X137490200Y-83301000D01*
%TO.N,Net-(D55-A)*%
X173000000Y-76302200D02*
X173000000Y-73200000D01*
X173456600Y-76758800D02*
X173000000Y-76302200D01*
X173456600Y-78457600D02*
X173456600Y-76758800D01*
%TO.N,row3*%
X173456600Y-81257600D02*
X173456600Y-83174000D01*
X173583600Y-83301000D02*
X155676600Y-83301000D01*
X173456600Y-83174000D02*
X173583600Y-83301000D01*
X191465200Y-81777000D02*
X191465200Y-80851200D01*
X189941200Y-83301000D02*
X191465200Y-81777000D01*
X189941200Y-83301000D02*
X173583600Y-83301000D01*
X248005600Y-80063800D02*
X248005600Y-82234440D01*
X248005600Y-82234440D02*
X249749840Y-83978680D01*
%TO.N,Net-(D60-A)*%
X248005600Y-75488800D02*
X248005600Y-77263800D01*
X247300000Y-74783200D02*
X248005600Y-75488800D01*
X247300000Y-73200000D02*
X247300000Y-74783200D01*
%TO.N,Net-(D43-A)*%
X227863400Y-60528200D02*
X227863400Y-61747400D01*
X226990000Y-56250000D02*
X226990000Y-59654800D01*
X226990000Y-59654800D02*
X227863400Y-60528200D01*
%TO.N,Net-(D42-A)*%
X209524600Y-59664600D02*
X209524600Y-61795200D01*
X209000000Y-59140000D02*
X209524600Y-59664600D01*
X209000000Y-56200000D02*
X209000000Y-59140000D01*
%TO.N,Net-(D41-A)*%
X191000000Y-59402600D02*
X191414400Y-59817000D01*
X191414400Y-59817000D02*
X191414400Y-62125400D01*
X191000000Y-56200000D02*
X191000000Y-59402600D01*
%TO.N,Net-(D40-A)*%
X173456600Y-61087000D02*
X173456600Y-62811200D01*
X173010000Y-60640400D02*
X173456600Y-61087000D01*
X173010000Y-56150000D02*
X173010000Y-60640400D01*
%TO.N,Net-(D38-A)*%
X137490200Y-61290200D02*
X137490200Y-63014400D01*
X137000000Y-60800000D02*
X137490200Y-61290200D01*
X137000000Y-56100000D02*
X137000000Y-60800000D01*
%TO.N,Net-(D37-A)*%
X119050000Y-59258400D02*
X119050000Y-56150000D01*
X119557800Y-59766200D02*
X119050000Y-59258400D01*
X119557800Y-61693600D02*
X119557800Y-59766200D01*
%TO.N,Net-(D36-A)*%
X101000000Y-60153800D02*
X101523800Y-60677600D01*
X101000000Y-56200000D02*
X101000000Y-60153800D01*
%TO.N,Net-(D35-A)*%
X83489800Y-58688400D02*
X83489800Y-60525200D01*
X83000000Y-58198600D02*
X83489800Y-58688400D01*
%TO.N,Net-(D34-A)*%
X65000000Y-58777000D02*
X65582800Y-59359800D01*
X65000000Y-56200000D02*
X65000000Y-58777000D01*
X65582800Y-59359800D02*
X65582800Y-60880800D01*
%TO.N,Net-(D33-A)*%
X47010000Y-59379800D02*
X47010000Y-56200000D01*
X47523400Y-59893200D02*
X47010000Y-59379800D01*
X47523400Y-61160200D02*
X47523400Y-59893200D01*
%TO.N,Net-(D31-A)*%
X29000000Y-58616400D02*
X29000000Y-56200000D01*
X29413200Y-59029600D02*
X29000000Y-58616400D01*
X29413200Y-61287200D02*
X29413200Y-59029600D01*
%TO.N,row2*%
X29975000Y-63525400D02*
X29413200Y-64087200D01*
X31013400Y-63525400D02*
X29975000Y-63525400D01*
X39951200Y-63960200D02*
X39903400Y-64008000D01*
X47523400Y-63960200D02*
X39951200Y-63960200D01*
X52143200Y-63960200D02*
X47523400Y-63960200D01*
X52349400Y-63754000D02*
X52143200Y-63960200D01*
X54581600Y-63680800D02*
X54330600Y-63931800D01*
X65582800Y-63680800D02*
X54581600Y-63680800D01*
X69400900Y-63680800D02*
X65582800Y-63680800D01*
X69520251Y-63800151D02*
X69400900Y-63680800D01*
X72971200Y-63325200D02*
X71882000Y-64414400D01*
X83489800Y-63325200D02*
X72971200Y-63325200D01*
X86591600Y-63325200D02*
X83489800Y-63325200D01*
X90198400Y-63477600D02*
X89916000Y-63195200D01*
X101523800Y-63477600D02*
X90198400Y-63477600D01*
X86639400Y-63373000D02*
X86591600Y-63325200D01*
X103482600Y-63477600D02*
X101523800Y-63477600D01*
X104292400Y-64287400D02*
X103482600Y-63477600D01*
X119427800Y-64363600D02*
X109880400Y-64363600D01*
X119557800Y-64493600D02*
X119427800Y-64363600D01*
X119557800Y-66116200D02*
X119557800Y-64493600D01*
X119862600Y-66421000D02*
X119557800Y-66116200D01*
X125803200Y-65814400D02*
X125603000Y-66014600D01*
X137490200Y-65814400D02*
X125803200Y-65814400D01*
X139062000Y-65814400D02*
X137490200Y-65814400D01*
X139776200Y-65100200D02*
X139062000Y-65814400D01*
X145418000Y-65560400D02*
X145186400Y-65328800D01*
X155575000Y-65560400D02*
X145418000Y-65560400D01*
%TO.N,Net-(D39-A)*%
X155100000Y-60129400D02*
X155100000Y-56200000D01*
X155575000Y-60604400D02*
X155100000Y-60129400D01*
X155575000Y-62760400D02*
X155575000Y-60604400D01*
%TO.N,row2*%
X155984400Y-65151000D02*
X155575000Y-65560400D01*
X157302200Y-65151000D02*
X155984400Y-65151000D01*
X162944000Y-65611200D02*
X161848800Y-64516000D01*
X173456600Y-65611200D02*
X162944000Y-65611200D01*
X174571200Y-66725800D02*
X173456600Y-65611200D01*
X175031400Y-66725800D02*
X174571200Y-66725800D01*
X181835600Y-64925400D02*
X180213000Y-66548000D01*
X191414400Y-64925400D02*
X181835600Y-64925400D01*
X192890600Y-64925400D02*
X191414400Y-64925400D01*
X194564000Y-66598800D02*
X192890600Y-64925400D01*
X194970400Y-66598800D02*
X194564000Y-66598800D01*
X208105200Y-66014600D02*
X198018400Y-66014600D01*
X209524600Y-64595200D02*
X208105200Y-66014600D01*
X225323400Y-67056000D02*
X211607400Y-67056000D01*
X211607400Y-67056000D02*
X209524600Y-64973200D01*
X209524600Y-64973200D02*
X209524600Y-64595200D01*
X248996200Y-65913000D02*
X249174000Y-65735200D01*
X245084600Y-65913000D02*
X248996200Y-65913000D01*
%TO.N,col12*%
X216023714Y-73076000D02*
X215000000Y-74099714D01*
X220224685Y-73076000D02*
X216023714Y-73076000D01*
X215000000Y-74099714D02*
X215000000Y-88000000D01*
X227902286Y-65398400D02*
X220224685Y-73076000D01*
X230135439Y-65398400D02*
X227902286Y-65398400D01*
X230570800Y-64963039D02*
X230135439Y-65398400D01*
X230570800Y-64424561D02*
X230570800Y-64963039D01*
X230040525Y-63894286D02*
X230570800Y-64424561D01*
X232982085Y-63620600D02*
X229680086Y-63620600D01*
X235045200Y-61226115D02*
X235045200Y-61557485D01*
X235045200Y-61557485D02*
X232982085Y-63620600D01*
X234810885Y-60991800D02*
X235045200Y-61226115D01*
X234810885Y-59720993D02*
X234810885Y-60991800D01*
X233838892Y-58749000D02*
X234810885Y-59720993D01*
X229680086Y-63620600D02*
X229406400Y-63894286D01*
X229406400Y-63894286D02*
X230040525Y-63894286D01*
X231876600Y-58749000D02*
X233838892Y-58749000D01*
%TO.N,row2*%
X249097800Y-65760600D02*
X249148600Y-65760600D01*
X249148600Y-65760600D02*
X249174000Y-65735200D01*
%TO.N,row3*%
X252586000Y-86814840D02*
X249749840Y-83978680D01*
X252586000Y-89285160D02*
X252586000Y-86814840D01*
X249749840Y-89601000D02*
X252270160Y-89601000D01*
X252270160Y-89601000D02*
X252586000Y-89285160D01*
X227152200Y-80988900D02*
X227888800Y-80988900D01*
X243738300Y-88451000D02*
X248599840Y-88451000D01*
X236276200Y-80988900D02*
X243738300Y-88451000D01*
X248599840Y-88451000D02*
X249749840Y-89601000D01*
%TO.N,row2*%
X248996200Y-65659000D02*
X249097800Y-65760600D01*
X248996200Y-64265000D02*
X248996200Y-65659000D01*
%TO.N,Net-(D45-A)*%
X247300000Y-58552600D02*
X247300000Y-56250000D01*
X248996200Y-61465000D02*
X248996200Y-60248800D01*
X248996200Y-60248800D02*
X247300000Y-58552600D01*
%TO.N,col9*%
X263663782Y-37649000D02*
X263403800Y-37389018D01*
X264260160Y-37649000D02*
X263663782Y-37649000D01*
%TO.N,gnd*%
X265245800Y-17020330D02*
X265911436Y-16354694D01*
X265245800Y-18655714D02*
X265245800Y-17020330D01*
X266007800Y-19417714D02*
X265245800Y-18655714D01*
X266007800Y-22185439D02*
X266007800Y-19417714D01*
X265911436Y-16354694D02*
X266012253Y-16354694D01*
X264576000Y-23617239D02*
X266007800Y-22185439D01*
X264576000Y-36384575D02*
X264576000Y-23617239D01*
X264053800Y-36906775D02*
X264576000Y-36384575D01*
X264401886Y-37217400D02*
X264070514Y-37217400D01*
X264053800Y-37200686D02*
X264053800Y-36906775D01*
X264660160Y-37483315D02*
X264660160Y-37475674D01*
X264660160Y-37475674D02*
X264401886Y-37217400D01*
X264976000Y-37799154D02*
X264660160Y-37483315D01*
X264070514Y-37217400D02*
X264053800Y-37200686D01*
X264976000Y-41271750D02*
X264976000Y-37799154D01*
X268154250Y-44450000D02*
X264976000Y-41271750D01*
%TO.N,Net-(D28-A)*%
X227000000Y-42189600D02*
X227457000Y-42646600D01*
X227000000Y-39200000D02*
X227000000Y-42189600D01*
X227457000Y-42646600D02*
X227457000Y-43583400D01*
%TO.N,Net-(D27-A)*%
X209000000Y-41029800D02*
X209550000Y-41579800D01*
X209550000Y-41579800D02*
X209550000Y-44091400D01*
X209000000Y-39200000D02*
X209000000Y-41029800D01*
%TO.N,Net-(D26-A)*%
X191541400Y-42011600D02*
X191541400Y-43964400D01*
X190900000Y-41370200D02*
X191541400Y-42011600D01*
X190900000Y-39200000D02*
X190900000Y-41370200D01*
%TO.N,Net-(D25-A)*%
X173482000Y-42697400D02*
X173482000Y-43481800D01*
X173000000Y-42215400D02*
X173482000Y-42697400D01*
X173000000Y-39150000D02*
X173000000Y-42215400D01*
%TO.N,Net-(D24-A)*%
X155473400Y-41681400D02*
X155473400Y-43637200D01*
X155000000Y-41208000D02*
X155473400Y-41681400D01*
X155000000Y-39100000D02*
X155000000Y-41208000D01*
%TO.N,Net-(D23-A)*%
X137210800Y-42316400D02*
X137515600Y-42621200D01*
X137515600Y-42621200D02*
X137515600Y-43888200D01*
X137210800Y-42240200D02*
X137210800Y-42316400D01*
%TO.N,Net-(D22-A)*%
X119507000Y-41783000D02*
X119507000Y-43786600D01*
X119634000Y-41656000D02*
X119507000Y-41783000D01*
%TO.N,Net-(D21-A)*%
X101549200Y-41402000D02*
X101549200Y-43304000D01*
%TO.N,Net-(D20-A)*%
X83080000Y-41424000D02*
X83540600Y-41884600D01*
X83540600Y-41884600D02*
X83540600Y-43380200D01*
X83080000Y-39100000D02*
X83080000Y-41424000D01*
%TO.N,Net-(D19-A)*%
X65506600Y-42113200D02*
X65506600Y-43532600D01*
X65000000Y-39150000D02*
X65000000Y-41606600D01*
%TO.N,Net-(D18-A)*%
X47080000Y-41593600D02*
X47523400Y-42037000D01*
X47523400Y-42037000D02*
X47523400Y-43510200D01*
X47080000Y-39100000D02*
X47080000Y-41593600D01*
%TO.N,row1*%
X229054200Y-46383400D02*
X229793800Y-45643800D01*
X227457000Y-46383400D02*
X229054200Y-46383400D01*
X225066400Y-46383400D02*
X227457000Y-46383400D01*
X225018600Y-46431200D02*
X225066400Y-46383400D01*
X214252000Y-46891400D02*
X214299800Y-46939200D01*
X209550000Y-46891400D02*
X214252000Y-46891400D01*
X206930800Y-46891400D02*
X209550000Y-46891400D01*
X206883000Y-46939200D02*
X206930800Y-46891400D01*
X196192600Y-46764400D02*
X196240400Y-46812200D01*
X191541400Y-46764400D02*
X196192600Y-46764400D01*
X191538400Y-46764400D02*
X191389000Y-46913800D01*
X191541400Y-46764400D02*
X191538400Y-46764400D01*
X189512400Y-46764400D02*
X191541400Y-46764400D01*
X173482000Y-46281800D02*
X178260200Y-46281800D01*
%TO.N,col10*%
X179059600Y-46700439D02*
X179059600Y-46161961D01*
X179059600Y-46161961D02*
X178900000Y-46002361D01*
X178900000Y-46860039D02*
X179059600Y-46700439D01*
X178900000Y-46002361D02*
X178900000Y-37000000D01*
%TO.N,row1*%
X189357000Y-46609000D02*
X189512400Y-46764400D01*
%TO.N,col10*%
X178900000Y-70910000D02*
X178900000Y-46860039D01*
%TO.N,row1*%
X178260200Y-46281800D02*
X178409600Y-46431200D01*
X171142200Y-46281800D02*
X173482000Y-46281800D01*
X170865800Y-46558200D02*
X171142200Y-46281800D01*
X160141000Y-46437200D02*
X160248600Y-46329600D01*
X155473400Y-46437200D02*
X160141000Y-46437200D01*
X153232200Y-46437200D02*
X155473400Y-46437200D01*
X152831800Y-46837600D02*
X153232200Y-46437200D01*
X142440200Y-46688200D02*
X142519400Y-46609000D01*
%TO.N,col8*%
X143000000Y-46170361D02*
X143000000Y-36900000D01*
%TO.N,row1*%
X137515600Y-46688200D02*
X142440200Y-46688200D01*
%TO.N,col8*%
X143169400Y-46339761D02*
X143000000Y-46170361D01*
X143000000Y-47047639D02*
X143169400Y-46878239D01*
X143169400Y-46878239D02*
X143169400Y-46339761D01*
X143000000Y-71000000D02*
X143000000Y-47047639D01*
%TO.N,row1*%
X134648400Y-46688200D02*
X137515600Y-46688200D01*
X124076000Y-46586600D02*
X124206000Y-46456600D01*
X119507000Y-46586600D02*
X124076000Y-46586600D01*
X134569200Y-46609000D02*
X134648400Y-46688200D01*
X117630400Y-46586600D02*
X119507000Y-46586600D01*
X117398800Y-46355000D02*
X117630400Y-46586600D01*
X106092800Y-46104000D02*
X106273600Y-45923200D01*
X101549200Y-46104000D02*
X106092800Y-46104000D01*
X99260200Y-46104000D02*
X101549200Y-46104000D01*
X99060000Y-46304200D02*
X99260200Y-46104000D01*
X88236600Y-46180200D02*
X88290400Y-46126400D01*
X83540600Y-46180200D02*
X88236600Y-46180200D01*
X81632600Y-46180200D02*
X83540600Y-46180200D01*
X81203800Y-46609000D02*
X81632600Y-46180200D01*
X69847000Y-46332600D02*
X69875400Y-46304200D01*
X65506600Y-46332600D02*
X69847000Y-46332600D01*
X63547800Y-46332600D02*
X65506600Y-46332600D01*
X63373000Y-46507400D02*
X63547800Y-46332600D01*
X52241800Y-46310200D02*
X52400200Y-46151800D01*
X47523400Y-46310200D02*
X52241800Y-46310200D01*
X45764800Y-46310200D02*
X47523400Y-46310200D01*
X45110400Y-46964600D02*
X45764800Y-46310200D01*
X29565600Y-47269400D02*
X30556200Y-48260000D01*
X29565600Y-46434200D02*
X29565600Y-47269400D01*
%TO.N,Net-(D16-A)*%
X29000000Y-41192000D02*
X29000000Y-39100000D01*
X29565600Y-41757600D02*
X29000000Y-41192000D01*
X29565600Y-43634200D02*
X29565600Y-41757600D01*
%TO.N,col13*%
X233000000Y-43631400D02*
X233000000Y-36950000D01*
%TO.N,row1*%
X245440200Y-46307200D02*
X241652600Y-46307200D01*
X241652600Y-46307200D02*
X241604800Y-46355000D01*
%TO.N,col13*%
X229539800Y-47091600D02*
X233000000Y-43631400D01*
%TO.N,row1*%
X245440200Y-46307200D02*
X245806200Y-46307200D01*
X245806200Y-46307200D02*
X246498000Y-46999000D01*
%TO.N,Net-(D120-A)*%
X245440200Y-43507200D02*
X245440200Y-42773600D01*
%TO.N,col14*%
X246054200Y-41945800D02*
X250721023Y-37278977D01*
X244993161Y-41945800D02*
X246054200Y-41945800D01*
%TO.N,Net-(D120-A)*%
X245440200Y-42773600D02*
X245262400Y-42595800D01*
%TO.N,col14*%
X235300000Y-51638961D02*
X244993161Y-41945800D01*
X235300000Y-54050000D02*
X235300000Y-51638961D01*
%TO.N,Net-(D30-A)*%
X264185400Y-42646600D02*
X264185400Y-42999200D01*
%TO.N,col6*%
X264987950Y-37245419D02*
X264987950Y-36891865D01*
X265376000Y-39131750D02*
X265375999Y-37633468D01*
X281322400Y-40521000D02*
X266765250Y-40521000D01*
X281406600Y-40436800D02*
X281322400Y-40521000D01*
%TO.N,col9*%
X264576000Y-42470100D02*
X264576000Y-37964840D01*
X264586400Y-42480500D02*
X264576000Y-42470100D01*
X266765250Y-45601000D02*
X264586400Y-43422150D01*
%TO.N,col6*%
X266765250Y-40521000D02*
X265376000Y-39131750D01*
%TO.N,col9*%
X274277200Y-45601000D02*
X266765250Y-45601000D01*
X264586400Y-43422150D02*
X264586400Y-42480500D01*
X276783800Y-48107600D02*
X274277200Y-45601000D01*
X263342818Y-37450000D02*
X263403800Y-37389018D01*
X264576000Y-37964840D02*
X264260160Y-37649000D01*
%TO.N,Net-(D30-A)*%
X264185400Y-42999200D02*
X263601200Y-43583400D01*
%TO.N,col6*%
X265375999Y-37633468D02*
X264987950Y-37245419D01*
%TO.N,row1*%
X261874000Y-48133000D02*
X263550400Y-48133000D01*
X260740000Y-46999000D02*
X261874000Y-48133000D01*
X246498000Y-46999000D02*
X260740000Y-46999000D01*
X263601200Y-46507400D02*
X264820400Y-47726600D01*
X263601200Y-46383400D02*
X263601200Y-46507400D01*
%TO.N,row0*%
X265749023Y-55103777D02*
X265627806Y-55103777D01*
X91313000Y-32715200D02*
X85344000Y-32715200D01*
X265912600Y-52933600D02*
X265912600Y-54940200D01*
X93954600Y-30073600D02*
X91313000Y-32715200D01*
X265912600Y-54940200D02*
X265749023Y-55103777D01*
%TO.N,Net-(D1-A)*%
X28949000Y-25127600D02*
X28949000Y-22090000D01*
%TO.N,Net-(D3-A)*%
X64959000Y-23963400D02*
X64959000Y-22090000D01*
X65151000Y-24155400D02*
X64959000Y-23963400D01*
%TO.N,Net-(D4-A)*%
X82949000Y-27043600D02*
X83134200Y-27228800D01*
X82949000Y-22090000D02*
X82949000Y-27043600D01*
%TO.N,Net-(D5-A)*%
X100979000Y-24166800D02*
X100979000Y-22090000D01*
X100888800Y-24257000D02*
X100979000Y-24166800D01*
%TO.N,Net-(D6-A)*%
X118979000Y-22090000D02*
X118979000Y-27488200D01*
X118979000Y-27488200D02*
X119303800Y-27813000D01*
%TO.N,Net-(D7-A)*%
X137134600Y-24104600D02*
X137080000Y-24050000D01*
X137080000Y-24050000D02*
X137080000Y-22080000D01*
X137566400Y-26543000D02*
X138125200Y-25984200D01*
X137566400Y-28422600D02*
X137566400Y-26543000D01*
%TO.N,Net-(D8-A)*%
X155219400Y-27152600D02*
X155219400Y-28448000D01*
X157099000Y-25273000D02*
X155219400Y-27152600D01*
X155079000Y-22948200D02*
X156006800Y-23876000D01*
%TO.N,Net-(D9-A)*%
X172979000Y-27335400D02*
X172979000Y-22100000D01*
%TO.N,Net-(D10-A)*%
X193421000Y-30175200D02*
X192811400Y-30784800D01*
X190910000Y-27335000D02*
X191389000Y-27814000D01*
X190910000Y-22100000D02*
X190910000Y-27335000D01*
X193421000Y-28186000D02*
X193421000Y-30175200D01*
%TO.N,Net-(D12-A)*%
X226900000Y-26570200D02*
X227634800Y-27305000D01*
X226900000Y-22100000D02*
X226900000Y-26570200D01*
%TO.N,Net-(D13-A)*%
X245000000Y-22110000D02*
X245000000Y-25112200D01*
%TO.N,data in led*%
X264083800Y-12903200D02*
X263296400Y-12903200D01*
X264718800Y-21285200D02*
X265353800Y-21920200D01*
X107100062Y-10293400D02*
X107139863Y-10253600D01*
X71554463Y-10101200D02*
X76859286Y-10101200D01*
X71362262Y-10293400D02*
X71554463Y-10101200D01*
X76859286Y-10101200D02*
X77051485Y-10293400D01*
X264718800Y-16230600D02*
X264718800Y-21285200D01*
X77051485Y-10293400D02*
X107100062Y-10293400D01*
X265836400Y-11150600D02*
X264083800Y-12903200D01*
X107139863Y-10253600D02*
X112444686Y-10253600D01*
X113854452Y-10653600D02*
X114081000Y-10880148D01*
X114081000Y-10880148D02*
X114081000Y-10922000D01*
X112844686Y-10653600D02*
X113854452Y-10653600D01*
X35943200Y-12067000D02*
X37716800Y-10293400D01*
X37716800Y-10293400D02*
X71362262Y-10293400D01*
X114081000Y-10922000D02*
X139608800Y-10922000D01*
X139608800Y-10922000D02*
X139801600Y-11114800D01*
X112444686Y-10253600D02*
X112844686Y-10653600D01*
%TO.N,Net-(D14-DOUT)*%
X41878200Y-14205000D02*
X69591800Y-14205000D01*
X40716200Y-15367000D02*
X41878200Y-14205000D01*
X69591800Y-14205000D02*
X72544600Y-11252200D01*
%TO.N,gnd*%
X264210800Y-44831000D02*
X265607800Y-46228000D01*
X142733200Y-13951000D02*
X108883600Y-13951000D01*
X290061200Y-88127700D02*
X290061200Y-64281900D01*
X187489100Y-102509000D02*
X275679900Y-102509000D01*
X179313800Y-15760400D02*
X144542600Y-15760400D01*
X178310200Y-93330100D02*
X187489100Y-102509000D01*
X73295600Y-15303200D02*
X72544600Y-14552200D01*
X141962800Y-91973400D02*
X144172600Y-94183200D01*
X107531400Y-15303200D02*
X73295600Y-15303200D01*
X105513800Y-93345000D02*
X106885400Y-91973400D01*
X36567200Y-16118000D02*
X35816200Y-15367000D01*
X256617748Y-66471800D02*
X265353800Y-66471800D01*
X265353800Y-66471800D02*
X265353800Y-56953686D01*
X259588000Y-15290800D02*
X260604000Y-16306800D01*
X108883600Y-13951000D02*
X108130000Y-14704600D01*
X144172600Y-94183200D02*
X176174600Y-94183200D01*
X108130000Y-14704600D02*
X107531400Y-15303200D01*
X106885400Y-91973400D02*
X141962800Y-91973400D01*
X248040400Y-15789600D02*
X217215800Y-15789600D01*
X265054864Y-57008303D02*
X265054864Y-57114200D01*
X176174600Y-94183200D02*
X178310200Y-92047600D01*
X265198967Y-56864200D02*
X265054864Y-57008303D01*
X265607800Y-49542865D02*
X266454687Y-50389752D01*
X257844400Y-14588600D02*
X258038600Y-14782800D01*
X144542600Y-15760400D02*
X143791600Y-15009400D01*
X72544600Y-14552200D02*
X70978800Y-16118000D01*
X265353800Y-56953686D02*
X265264314Y-56864200D01*
X215833201Y-14407001D02*
X180667199Y-14407001D01*
X286669300Y-66471800D02*
X265353800Y-66471800D01*
X265264314Y-56864200D02*
X265198967Y-56864200D01*
X70978800Y-16118000D02*
X36567200Y-16118000D01*
X217215800Y-15789600D02*
X216283200Y-14857000D01*
X216283200Y-14857000D02*
X215833201Y-14407001D01*
X253103600Y-72759400D02*
X253103600Y-69985948D01*
X178310200Y-92047600D02*
X178310200Y-93330100D01*
X254154600Y-73810400D02*
X253103600Y-72759400D01*
X249241400Y-14588600D02*
X257844400Y-14588600D01*
X180667199Y-14407001D02*
X179885000Y-15189200D01*
X289709143Y-63929843D02*
X289211257Y-63929843D01*
X275679900Y-102509000D02*
X290061200Y-88127700D01*
X289211257Y-63929843D02*
X286669300Y-66471800D01*
X264718800Y-54737000D02*
X264718800Y-53159325D01*
X248490400Y-15339600D02*
X248040400Y-15789600D01*
X143791600Y-15009400D02*
X142733200Y-13951000D01*
X179885000Y-15189200D02*
X179313800Y-15760400D01*
X290061200Y-64281900D02*
X289709143Y-63929843D01*
X264718800Y-53159325D02*
X264971728Y-52906397D01*
X248490400Y-15339600D02*
X249241400Y-14588600D01*
X253103600Y-69985948D02*
X256617748Y-66471800D01*
X265607800Y-46228000D02*
X265607800Y-49542865D01*
%TO.N,5v*%
X112279000Y-10653600D02*
X113030000Y-11404600D01*
X280263600Y-70510400D02*
X288391600Y-78638400D01*
X76693600Y-10501200D02*
X77444600Y-11252200D01*
X179349400Y-87020400D02*
X181076600Y-88747600D01*
X269123400Y-11114800D02*
X269240000Y-11114800D01*
X183210200Y-88747600D02*
X185724800Y-91262200D01*
X177927000Y-103479600D02*
X178181000Y-103733600D01*
X291988343Y-79324200D02*
X292875543Y-80211400D01*
X184785000Y-11889200D02*
X185234999Y-12339199D01*
X262003200Y-14353200D02*
X264446057Y-14353200D01*
X269716250Y-13970000D02*
X268166850Y-12420600D01*
X177419000Y-87020400D02*
X179349400Y-87020400D01*
X184034000Y-11138200D02*
X184785000Y-11889200D01*
X141773948Y-12151600D02*
X142967148Y-10958400D01*
X185234999Y-12339199D02*
X220401001Y-12339199D01*
X268166850Y-12420600D02*
X268166850Y-12071350D01*
X261950200Y-14300200D02*
X262003200Y-14353200D01*
X253390400Y-12039600D02*
X255369600Y-12039600D01*
X146862800Y-87782400D02*
X146481800Y-87401400D01*
X107305548Y-10653600D02*
X112279000Y-10653600D01*
X141274800Y-87401400D02*
X138631200Y-90045000D01*
X222190600Y-10549600D02*
X251900400Y-10549600D01*
X113777000Y-12151600D02*
X141773948Y-12151600D01*
X149262800Y-11138200D02*
X184034000Y-11138200D01*
X146481800Y-87401400D02*
X141274800Y-87401400D01*
X264446057Y-14353200D02*
X265024479Y-14931622D01*
X185724800Y-91262200D02*
X186258200Y-91262200D01*
X255369600Y-12039600D02*
X256843800Y-13513800D01*
X146862800Y-88673400D02*
X175766000Y-88673400D01*
X256843800Y-13513800D02*
X257302000Y-13055600D01*
X147940600Y-10958400D02*
X148691600Y-11709400D01*
X40716200Y-12067000D02*
X70154348Y-12067000D01*
X177927000Y-95504000D02*
X177927000Y-103479600D01*
X138631200Y-90045000D02*
X110413800Y-90045000D01*
X291465000Y-79324200D02*
X291988343Y-79324200D01*
X220401001Y-12339199D02*
X221183200Y-11557000D01*
X221183200Y-11557000D02*
X222190600Y-10549600D01*
X259054600Y-70510400D02*
X280263600Y-70510400D01*
X268166850Y-12071350D02*
X269123400Y-11114800D01*
X77444600Y-11252200D02*
X106706948Y-11252200D01*
X70154348Y-12067000D02*
X71720148Y-10501200D01*
X113030000Y-11404600D02*
X113777000Y-12151600D01*
X71720148Y-10501200D02*
X76693600Y-10501200D01*
X142967148Y-10958400D02*
X147940600Y-10958400D01*
X251900400Y-10549600D02*
X253390400Y-12039600D01*
X148691600Y-11709400D02*
X149262800Y-11138200D01*
X146862800Y-88673400D02*
X146862800Y-87782400D01*
X106706948Y-11252200D02*
X107305548Y-10653600D01*
X178181000Y-103733600D02*
X267589000Y-103733600D01*
X181076600Y-88747600D02*
X183210200Y-88747600D01*
X175766000Y-88673400D02*
X177419000Y-87020400D01*
%TO.N,row1*%
X264083800Y-54432200D02*
X264083800Y-51511200D01*
X263423400Y-50114200D02*
X263423400Y-48260000D01*
X263753600Y-54762400D02*
X264083800Y-54432200D01*
X263423400Y-48260000D02*
X263550400Y-48133000D01*
X265880448Y-56464200D02*
X263702800Y-56464200D01*
X266566248Y-57150000D02*
X265880448Y-56464200D01*
%TO.N,Net-(D17-DOUT)*%
X104982400Y-14552200D02*
X108130000Y-11404600D01*
X77444600Y-14552200D02*
X104982400Y-14552200D01*
%TO.N,Net-(D21-A)*%
X101000000Y-40852800D02*
X101549200Y-41402000D01*
X101000000Y-39100000D02*
X101000000Y-40852800D01*
%TO.N,Net-(D22-A)*%
X119634000Y-41656000D02*
X119000000Y-41022000D01*
X119000000Y-41022000D02*
X119000000Y-39050000D01*
%TO.N,Net-(D23-A)*%
X137000000Y-39050000D02*
X137000000Y-42029400D01*
X137000000Y-42029400D02*
X137210800Y-42240200D01*
%TO.N,Net-(D29-DOUT)*%
X142369200Y-13131800D02*
X143791600Y-11709400D01*
X140716000Y-13131800D02*
X142369200Y-13131800D01*
X113030000Y-14704600D02*
X118696200Y-14704600D01*
X118696200Y-14704600D02*
X118795800Y-14605000D01*
%TO.N,Net-(D30-A)*%
X263000000Y-41461200D02*
X264185400Y-42646600D01*
X263000000Y-39200000D02*
X263000000Y-41461200D01*
%TO.N,Net-(D32-DOUT)*%
X148691600Y-15009400D02*
X176764800Y-15009400D01*
X176764800Y-15009400D02*
X179885000Y-11889200D01*
%TO.N,Net-(D35-A)*%
X83000000Y-56200000D02*
X83000000Y-58198600D01*
%TO.N,Net-(D44-DOUT)*%
X209854800Y-15189200D02*
X209956400Y-15290800D01*
X215036400Y-11684000D02*
X216156200Y-11684000D01*
X184785000Y-15189200D02*
X209854800Y-15189200D01*
%TO.N,row3*%
X89850800Y-83301000D02*
X87477600Y-85674200D01*
X190007250Y-83301000D02*
X189941200Y-83301000D01*
X212188840Y-88000000D02*
X213739840Y-89551000D01*
X194706250Y-88000000D02*
X190805225Y-84098975D01*
X200959315Y-88000000D02*
X209626200Y-88000000D01*
X210642200Y-88000000D02*
X212188840Y-88000000D01*
X216576000Y-86764840D02*
X222351940Y-80988900D01*
X196682250Y-89976000D02*
X198983315Y-89976000D01*
X190805225Y-84098975D02*
X190007250Y-83301000D01*
X87477600Y-85674200D02*
X83337400Y-85674200D01*
X198983315Y-89976000D02*
X200959315Y-88000000D01*
X75619550Y-85674200D02*
X73243750Y-88050000D01*
X222351940Y-80988900D02*
X227152200Y-80988900D01*
X216260160Y-89551000D02*
X216576000Y-89235160D01*
X216576000Y-89235160D02*
X216576000Y-86764840D01*
X213739840Y-89551000D02*
X216260160Y-89551000D01*
X194706250Y-88000000D02*
X196682250Y-89976000D01*
%TO.N,Net-(D47-DOUT)*%
X245673000Y-14857000D02*
X248490400Y-12039600D01*
X221183200Y-14857000D02*
X245673000Y-14857000D01*
%TO.N,Net-(D52-A)*%
X119583200Y-76200000D02*
X119000000Y-75616800D01*
X119000000Y-75616800D02*
X119000000Y-73200000D01*
%TO.N,Net-(D59-DOUT)*%
X257962400Y-13233400D02*
X258376800Y-12819000D01*
X258688600Y-15052039D02*
X258688600Y-14361161D01*
X258376800Y-12819000D02*
X262292961Y-12819000D01*
X184034652Y-91296600D02*
X187655200Y-94917148D01*
X258688600Y-14361161D02*
X257962400Y-13634961D01*
X270867250Y-12819000D02*
X273169250Y-15121000D01*
X263999486Y-13553200D02*
X264733686Y-12819000D01*
X253390400Y-15339600D02*
X254239200Y-15339600D01*
X263027161Y-13553200D02*
X263999486Y-13553200D01*
X258307839Y-15432800D02*
X258688600Y-15052039D01*
X254239200Y-15339600D02*
X255713400Y-16813800D01*
X264733686Y-12819000D02*
X266765250Y-12819000D01*
X257962400Y-13634961D02*
X257962400Y-13233400D01*
X292379400Y-13188850D02*
X292379400Y-12076353D01*
X180509500Y-88747600D02*
X183058500Y-91296600D01*
X255713400Y-16813800D02*
X257094400Y-15432800D01*
X187655200Y-94917148D02*
X187655200Y-102108000D01*
X266765250Y-12819000D02*
X266765250Y-15121000D01*
X266765250Y-15121000D02*
X270867250Y-15121000D01*
X178310200Y-88747600D02*
X180509500Y-88747600D01*
X292379400Y-12076353D02*
X292151895Y-11848848D01*
X270867250Y-15121000D02*
X270867250Y-12819000D01*
X273169250Y-15121000D02*
X290447250Y-15121000D01*
X270129000Y-102108000D02*
X270535400Y-101701600D01*
X183058500Y-91296600D02*
X184034652Y-91296600D01*
X262292961Y-12819000D02*
X263027161Y-13553200D01*
X257094400Y-15432800D02*
X258307839Y-15432800D01*
X290447250Y-15121000D02*
X292379400Y-13188850D01*
X187655200Y-102108000D02*
X270129000Y-102108000D01*
%TO.N,Net-(D64-DOUT)*%
X142805400Y-89516000D02*
X141962800Y-88673400D01*
X183210200Y-92047600D02*
X180678600Y-89516000D01*
X180678600Y-89516000D02*
X142805400Y-89516000D01*
%TO.N,Net-(D65-DOUT)*%
X139852400Y-89916000D02*
X138972400Y-90796000D01*
X146862800Y-91973400D02*
X144805400Y-89916000D01*
X144805400Y-89916000D02*
X139852400Y-89916000D01*
X138972400Y-90796000D02*
X106264800Y-90796000D01*
X106264800Y-90796000D02*
X105513800Y-90045000D01*
%TO.N,Net-(D75-A)*%
X264285000Y-90250000D02*
X264553200Y-90518200D01*
X263010000Y-90250000D02*
X264285000Y-90250000D01*
X264553200Y-90518200D02*
X264553200Y-91033600D01*
%TO.N,col0*%
X292633400Y-10337800D02*
X289903480Y-13067720D01*
X17636136Y-19890000D02*
X19170388Y-18355748D01*
X16949000Y-19890000D02*
X16949000Y-88049000D01*
X288398530Y-13067720D02*
X287496250Y-13970000D01*
X289903480Y-13067720D02*
X288398530Y-13067720D01*
%TO.N,col1*%
X287496250Y-16510000D02*
X286338241Y-17668009D01*
X266311134Y-17668009D02*
X266297619Y-17654494D01*
X36449000Y-18390000D02*
X34949000Y-19890000D01*
X36449000Y-18389600D02*
X36449000Y-18390000D01*
X286338241Y-17668009D02*
X266311134Y-17668009D01*
%TO.N,col2*%
X182341400Y-17724000D02*
X217300799Y-17724000D01*
X35010000Y-71050000D02*
X35010000Y-78926600D01*
X217498799Y-17526000D02*
X230352600Y-17526000D01*
X165421751Y-17724000D02*
X165646751Y-17949000D01*
X105156000Y-18110200D02*
X124002800Y-18110200D01*
X181640600Y-17724000D02*
X181991000Y-17373600D01*
X104800400Y-18465800D02*
X105156000Y-18110200D01*
X181467250Y-17724000D02*
X181640600Y-17724000D01*
X260527800Y-17907000D02*
X260908800Y-17526000D01*
X124282200Y-17830800D02*
X127510449Y-17830800D01*
X165646751Y-17949000D02*
X181242249Y-17949000D01*
X127637250Y-17704000D02*
X157911656Y-17704000D01*
X245214964Y-17734000D02*
X245387963Y-17907000D01*
X127510449Y-17830800D02*
X127637250Y-17704000D01*
X100558600Y-18465800D02*
X104800400Y-18465800D01*
X230560600Y-17734000D02*
X245214964Y-17734000D01*
X245387963Y-17907000D02*
X260527800Y-17907000D01*
X181991000Y-17373600D02*
X182341400Y-17724000D01*
X50853600Y-85953600D02*
X53000000Y-88100000D01*
X124002800Y-18110200D02*
X124282200Y-17830800D01*
X217300799Y-17724000D02*
X217498799Y-17526000D01*
X262686800Y-17526000D02*
X262686800Y-15773400D01*
X157931656Y-17724000D02*
X165421751Y-17724000D01*
X35010000Y-36970000D02*
X35010000Y-71050000D01*
X157911656Y-17704000D02*
X157931656Y-17724000D01*
X54991000Y-17780000D02*
X99872800Y-17780000D01*
X35010000Y-78926600D02*
X42037000Y-85953600D01*
X181242249Y-17949000D02*
X181467250Y-17724000D01*
X260908800Y-17526000D02*
X262686800Y-17526000D01*
X230352600Y-17526000D02*
X230560600Y-17734000D01*
X99872800Y-17780000D02*
X100558600Y-18465800D01*
X262686800Y-15773400D02*
X262204200Y-15290800D01*
X42037000Y-85953600D02*
X50853600Y-85953600D01*
X52959000Y-19812000D02*
X54991000Y-17780000D01*
%TO.N,col3*%
X53000000Y-71000000D02*
X53000000Y-36950000D01*
%TO.N,col4*%
X88925400Y-21869400D02*
X88979000Y-21815800D01*
X88925400Y-22682200D02*
X88925400Y-21869400D01*
X71000000Y-36980000D02*
X71000000Y-71000000D01*
X88979000Y-21815800D02*
X88979000Y-19890000D01*
%TO.N,col5*%
X100993000Y-24907000D02*
X89000000Y-36900000D01*
X101538800Y-24361200D02*
X101538800Y-24526239D01*
X106010000Y-19890000D02*
X101538800Y-24361200D01*
X89000000Y-36900000D02*
X89000000Y-71000000D01*
X101158039Y-24907000D02*
X100993000Y-24907000D01*
X101538800Y-24526239D02*
X101158039Y-24907000D01*
%TO.N,col6*%
X217082095Y-18664840D02*
X217622935Y-18124000D01*
X165481065Y-18349000D02*
X181407935Y-18349000D01*
X253308722Y-28776000D02*
X259387000Y-28776000D01*
X245049278Y-18134000D02*
X251624000Y-24708722D01*
X229678000Y-18134000D02*
X245049278Y-18134000D01*
X251624000Y-24708722D02*
X251624000Y-27091278D01*
X157765970Y-18124000D02*
X165256065Y-18124000D01*
X157745970Y-18104000D02*
X157765970Y-18124000D01*
X259387000Y-28776000D02*
X259664200Y-28498800D01*
X181407935Y-18349000D02*
X181632935Y-18124000D01*
X216476000Y-18664840D02*
X217082095Y-18664840D01*
X165256065Y-18124000D02*
X165481065Y-18349000D01*
X251624000Y-27091278D02*
X253308722Y-28776000D01*
X126026935Y-19880000D02*
X127802935Y-18104000D01*
X181632935Y-18124000D02*
X215935160Y-18124000D01*
X229668000Y-18124000D02*
X229678000Y-18134000D01*
X215935160Y-18124000D02*
X216476000Y-18664840D01*
X107000000Y-71000000D02*
X107000000Y-36850000D01*
X127802935Y-18104000D02*
X157745970Y-18104000D01*
X217622935Y-18124000D02*
X229668000Y-18124000D01*
%TO.N,col7*%
X143079000Y-20065200D02*
X130149600Y-32994600D01*
X128855400Y-32994600D02*
X125000000Y-36850000D01*
X143079000Y-19890000D02*
X146203000Y-23014000D01*
X149849935Y-23014000D02*
X151270735Y-24434800D01*
X125000000Y-36850000D02*
X125000000Y-71000000D01*
X146203000Y-23014000D02*
X149849935Y-23014000D01*
X130149600Y-32994600D02*
X128855400Y-32994600D01*
X151270735Y-24434800D02*
X155295600Y-24434800D01*
%TO.N,col8*%
X266598400Y-38176200D02*
X265834470Y-37412270D01*
X143000000Y-36781200D02*
X151688800Y-28092400D01*
X265834470Y-36906775D02*
X265607800Y-36680105D01*
X260582600Y-13219000D02*
X260096000Y-13705600D01*
X265834470Y-37412270D02*
X265834470Y-36906775D01*
X265645800Y-17222371D02*
X265863477Y-17004694D01*
X265645800Y-18490029D02*
X265645800Y-17222371D01*
X266662253Y-15639878D02*
X265676187Y-14653812D01*
X264626800Y-13953200D02*
X262861475Y-13953200D01*
X152984200Y-28092400D02*
X160979000Y-20097600D01*
X265455400Y-13469000D02*
X265283200Y-13296800D01*
X286302450Y-38176200D02*
X266598400Y-38176200D01*
X151688800Y-28092400D02*
X152984200Y-28092400D01*
X265863477Y-17004694D02*
X266281492Y-17004694D01*
X287496250Y-39370000D02*
X286302450Y-38176200D01*
X266281492Y-17004694D02*
X266662253Y-16623933D01*
X265607800Y-23151125D02*
X266407800Y-22351125D01*
X266407800Y-22351125D02*
X266407800Y-19252028D01*
X266407800Y-19252028D02*
X265645800Y-18490029D01*
X265676187Y-14653812D02*
X265676187Y-14385929D01*
X262861475Y-13953200D02*
X262127275Y-13219000D01*
X265283200Y-13296800D02*
X264626800Y-13953200D01*
X265607800Y-36680105D02*
X265607800Y-23151125D01*
X266662253Y-16623933D02*
X266662253Y-15639878D01*
X262127275Y-13219000D02*
X260582600Y-13219000D01*
%TO.N,col9*%
X171761200Y-26188800D02*
X161000000Y-36950000D01*
X171403000Y-24672914D02*
X171761200Y-25031114D01*
X178050000Y-19900000D02*
X177401000Y-20549000D01*
X177401000Y-20549000D02*
X171718840Y-20549000D01*
X182389322Y-29946600D02*
X178910000Y-26467278D01*
X161000000Y-36950000D02*
X161000000Y-71000000D01*
X171718840Y-20549000D02*
X171403000Y-20864840D01*
X256159000Y-39725600D02*
X251688600Y-39725600D01*
X260604000Y-35280600D02*
X256159000Y-39725600D01*
X171761200Y-25031114D02*
X171761200Y-26188800D01*
X182727600Y-29946600D02*
X182389322Y-29946600D01*
X178910000Y-26467278D02*
X178910000Y-19900000D01*
X171403000Y-20864840D02*
X171403000Y-24672914D01*
%TO.N,col10*%
X181229000Y-68761000D02*
X178990000Y-71000000D01*
X192039000Y-26913839D02*
X196900000Y-22052839D01*
X196900000Y-22052839D02*
X196900000Y-19900000D01*
X191119761Y-28640800D02*
X191658239Y-28640800D01*
X181229000Y-67868800D02*
X181229000Y-68761000D01*
X190054914Y-26892200D02*
X190510000Y-27347286D01*
X190510000Y-27347286D02*
X190510000Y-28031039D01*
X190510000Y-28031039D02*
X191119761Y-28640800D01*
X179800000Y-37000000D02*
X189907800Y-26892200D01*
X191658239Y-28640800D02*
X192039000Y-28260039D01*
X189907800Y-26892200D02*
X190054914Y-26892200D01*
X192039000Y-28260039D02*
X192039000Y-26913839D01*
%TO.N,col11*%
X215519000Y-21666200D02*
X215519000Y-20519000D01*
X197000000Y-37000000D02*
X197000000Y-70950000D01*
%TO.N,col12*%
X215000000Y-71100000D02*
X215000000Y-88000000D01*
X243244135Y-54152800D02*
X240646339Y-56750596D01*
X240646339Y-56750596D02*
X237279804Y-56750596D01*
X215000000Y-37000000D02*
X215000000Y-54040000D01*
X248031000Y-54152800D02*
X243244135Y-54152800D01*
X237279804Y-56750596D02*
X236448600Y-57581800D01*
%TO.N,col14*%
X235300000Y-60915229D02*
X235300000Y-54050000D01*
X251010000Y-88050000D02*
X243904400Y-88050000D01*
X235445200Y-70854800D02*
X235445200Y-61060429D01*
X243904400Y-88050000D02*
X236677200Y-80822800D01*
X236677200Y-79679800D02*
X235864400Y-78867000D01*
X235445200Y-61060429D02*
X235300000Y-60915229D01*
X236677200Y-80822800D02*
X236677200Y-79679800D01*
X235864400Y-78867000D02*
X235864400Y-71564400D01*
%TO.N,col13*%
X233010000Y-88000000D02*
X233010000Y-83658000D01*
X289509200Y-88112600D02*
X289509200Y-64579843D01*
X233634000Y-88624000D02*
X233634000Y-95191278D01*
X277270800Y-100351000D02*
X289509200Y-88112600D01*
X231546400Y-68783200D02*
X231546400Y-65825840D01*
X231546400Y-65825840D02*
X233796040Y-63576200D01*
X233796040Y-63576200D02*
X234365800Y-63576200D01*
X238793722Y-100351000D02*
X277270800Y-100351000D01*
X233634000Y-95191278D02*
X238793722Y-100351000D01*
X233010000Y-83658000D02*
X231495600Y-82143600D01*
X289509200Y-64579843D02*
X289460200Y-64530843D01*
%TO.N,Net-(D120-A)*%
X245000000Y-41215800D02*
X245000000Y-39150000D01*
X245186200Y-41402000D02*
X245000000Y-41215800D01*
%TO.N,row3*%
X265307839Y-52070000D02*
X269716250Y-52070000D01*
X264733800Y-51495961D02*
X265307839Y-52070000D01*
X264353039Y-50861200D02*
X264733800Y-51241961D01*
X251798880Y-52070000D02*
X262605761Y-52070000D01*
X249847200Y-65981239D02*
X249847200Y-60929840D01*
X264733800Y-51241961D02*
X264733800Y-51495961D01*
%TO.N,row4*%
X263118600Y-64516000D02*
X263118600Y-57023000D01*
X263118600Y-57023000D02*
X261010400Y-54914800D01*
%TO.N,row3*%
X249749840Y-54119040D02*
X251798880Y-52070000D01*
%TO.N,row2*%
X262794886Y-54241800D02*
X263433800Y-53602886D01*
X261822325Y-54241800D02*
X262794886Y-54241800D01*
X261445325Y-53864800D02*
X261822325Y-54241800D01*
X260575476Y-53864800D02*
X261445325Y-53864800D01*
%TO.N,row3*%
X263814561Y-50861200D02*
X264353039Y-50861200D01*
X249749840Y-60832480D02*
X249749840Y-54119040D01*
%TO.N,row2*%
X259960400Y-54479875D02*
X260575476Y-53864800D01*
X259960400Y-57311000D02*
X259960400Y-54479875D01*
X254889000Y-62382400D02*
X259960400Y-57311000D01*
X252653800Y-62382400D02*
X254889000Y-62382400D01*
%TO.N,col12*%
X260604000Y-55427639D02*
X260604000Y-64922400D01*
%TO.N,row2*%
X251891800Y-63627000D02*
X251891800Y-63144400D01*
%TO.N,col12*%
X260360400Y-55184039D02*
X260604000Y-55427639D01*
%TO.N,row3*%
X249847200Y-60929840D02*
X249749840Y-60832480D01*
%TO.N,col12*%
X260360400Y-54645561D02*
X260360400Y-55184039D01*
X260741161Y-54264800D02*
X260360400Y-54645561D01*
X262775839Y-55761000D02*
X261279639Y-54264800D01*
%TO.N,row2*%
X251891800Y-63144400D02*
X252653800Y-62382400D01*
%TO.N,row3*%
X249749840Y-83978680D02*
X249749840Y-66078599D01*
%TO.N,col12*%
X264934114Y-55734000D02*
X264907114Y-55761000D01*
X283805250Y-55761000D02*
X265495686Y-55761000D01*
X265468686Y-55734000D02*
X264934114Y-55734000D01*
X287496250Y-52070000D02*
X283805250Y-55761000D01*
%TO.N,row3*%
X249749840Y-66078599D02*
X249847200Y-65981239D01*
%TO.N,col12*%
X265495686Y-55761000D02*
X265468686Y-55734000D01*
X261279639Y-54264800D02*
X260741161Y-54264800D01*
%TO.N,row3*%
X262605761Y-52070000D02*
X263814561Y-50861200D01*
%TO.N,col12*%
X264907114Y-55761000D02*
X262775839Y-55761000D01*
%TO.N,row2*%
X263433800Y-53602886D02*
X263433800Y-53335219D01*
%TD*%
M02*
