M48
; DRILL file {KiCad 9.0.6} date 2026-01-21T17:51:49-0500
; FORMAT={-:-/ absolute / metric / decimal}
; #@! TF.CreationDate,2026-01-21T17:51:49-05:00
; #@! TF.GenerationSoftware,Kicad,Pcbnew,9.0.6
; #@! TF.FileFunction,Plated,1,2,PTH
FMAT,2
METRIC
; #@! TA.AperFunction,Plated,PTH,ViaDrill
T1C0.300
; #@! TA.AperFunction,Plated,PTH,ComponentDrill
T2C1.020
%
G90
G05
T1
X19.17Y-18.356
X29.718Y-85.7
X30.556Y-48.26
X31.013Y-63.525
X34.95Y-32.436
X36.449Y-18.39
X39.903Y-64.008
X40.945Y-32.385
X45.11Y-46.965
X45.999Y-85.242
X51.943Y-32.385
X52.349Y-63.754
X52.4Y-46.152
X54.331Y-63.932
X59.893Y-31.775
X63.373Y-46.507
X65.151Y-24.155
X65.507Y-26.01
X69.52Y-63.8
X69.875Y-46.304
X69.977Y-32.614
X70.949Y-19.89
X71.882Y-64.414
X75.692Y-32.69
X81.204Y-46.609
X83.236Y-27.33
X83.947Y-28.423
X86.639Y-63.373
X88.29Y-46.126
X88.925Y-22.682
X89.916Y-63.195
X93.955Y-30.074
X99.06Y-46.304
X99.466Y-30.963
X100.889Y-24.257
X101.549Y-26.34
X104.292Y-64.287
X104.75Y-32.537
X106.274Y-45.923
X106.979Y-19.89
X109.88Y-64.364
X111.303Y-32.563
X117.399Y-46.355
X119.304Y-27.813
X119.863Y-66.421
X120.472Y-28.956
X121.895Y-32.766
X124.206Y-46.457
X125.603Y-66.015
X131.724Y-32.537
X134.569Y-46.609
X137.135Y-24.105
X138.125Y-25.984
X139.776Y-65.1
X142.519Y-46.609
X142.977Y-32.842
X145.186Y-65.329
X147.828Y-32.918
X152.832Y-46.838
X155.296Y-24.435
X156.007Y-23.876
X157.099Y-25.273
X157.302Y-65.151
X160.249Y-46.33
X160.979Y-19.9
X161.112Y-31.699
X161.849Y-64.516
X167.564Y-31.547
X170.866Y-46.558
X175.031Y-66.726
X175.336Y-32.36
X176.149Y-98.933
X178.41Y-46.431
X180.213Y-66.548
X181.229Y-67.869
X182.728Y-29.947
X185.268Y-32.512
X189.357Y-46.609
X191.389Y-27.814
X193.421Y-28.186
X194.97Y-66.599
X196.24Y-46.812
X198.018Y-66.015
X201.701Y-31.623
X206.883Y-46.939
X207.137Y-99.974
X207.442Y-31.293
X214.3Y-46.939
X214.757Y-31.445
X215.519Y-21.666
X220.726Y-31.394
X222.183Y-30.595
X225.019Y-46.431
X229.057Y-31.674
X229.54Y-47.092
X229.794Y-45.644
X229.921Y-64.694
X231.496Y-82.144
X231.546Y-68.783
X231.877Y-58.749
X234.366Y-63.576
X236.017Y-98.679
X236.449Y-57.582
X237.668Y-30.759
X240.817Y-98.679
X241.605Y-46.355
X245.085Y-65.913
X245.194Y-41.346
X245.262Y-42.596
X248.031Y-54.153
X249.174Y-65.735
X250.721Y-37.279
X251.689Y-39.726
X251.892Y-63.627
X255.803Y-29.896
X258.572Y-30.531
X259.664Y-28.499
X260.175Y-16.792
X260.604Y-35.281
X260.604Y-64.922
X261.01Y-54.915
X261.153Y-16.627
X261.597Y-14.95
X263.404Y-37.389
X263.423Y-50.114
X263.434Y-53.335
X263.55Y-48.133
X263.754Y-54.762
X263.926Y-16.7
X264.084Y-51.511
X264.185Y-14.3
X264.516Y-15.672
X264.648Y-56.751
X264.82Y-47.727
X265.227Y-16.993
X265.496Y-55.761
X265.506Y-51.333
X265.663Y-54.928
X265.913Y-52.934
X266.068Y-65.981
X266.246Y-29.896
X266.298Y-17.654
X266.37Y-47.422
X266.37Y-51.308
X266.566Y-57.15
X266.903Y-53.07
X267.062Y-67.869
X267.071Y-55.738
X267.36Y-16.916
X267.868Y-49.53
X267.919Y-55.474
X268.097Y-58.115
X268.224Y-25.095
X268.63Y-53.67
X268.834Y-40.488
X273.558Y-51.054
X273.611Y-30.432
X273.812Y-62.738
X274.211Y-55.575
X274.345Y-58.293
X274.469Y-50.069
X275.895Y-18.669
X276.25Y-26.949
X279.552Y-58.877
X281.902Y-22.162
X283.083Y-44.958
X283.108Y-54.61
X285.75Y-28.245
X286.741Y-50.14
T2
X272.059Y-13.64
X272.059Y-16.18
X272.059Y-18.72
X272.059Y-21.26
X272.059Y-23.8
X272.059Y-26.34
X272.059Y-28.88
X272.059Y-31.42
X272.059Y-33.96
X272.059Y-36.5
X272.059Y-39.04
X272.059Y-41.58
X272.059Y-44.12
X272.059Y-46.66
X272.059Y-49.2
X272.059Y-51.74
X272.059Y-54.28
X272.059Y-56.82
X272.059Y-59.36
X272.059Y-61.9
X278.409Y-61.67
X280.949Y-61.67
X283.489Y-61.67
X289.839Y-13.64
X289.839Y-16.18
X289.839Y-18.72
X289.839Y-21.26
X289.839Y-23.8
X289.839Y-26.34
X289.839Y-28.88
X289.839Y-31.42
X289.839Y-33.96
X289.839Y-36.5
X289.839Y-39.04
X289.839Y-41.58
X289.839Y-44.12
X289.839Y-46.66
X289.839Y-49.2
X289.839Y-51.74
X289.839Y-54.28
X289.839Y-56.82
X289.839Y-59.36
X289.839Y-61.9
M30
