M48
; DRILL file {KiCad 9.0.6} date 2026-01-21T17:51:49-0500
; FORMAT={-:-/ absolute / metric / decimal}
; #@! TF.CreationDate,2026-01-21T17:51:49-05:00
; #@! TF.GenerationSoftware,Kicad,Pcbnew,9.0.6
; #@! TF.FileFunction,NonPlated,1,2,NPTH
FMAT,2
METRIC
; #@! TA.AperFunction,NonPlated,NPTH,ComponentDrill
T1C1.600
; #@! TA.AperFunction,NonPlated,NPTH,ComponentDrill
T2C1.900
; #@! TA.AperFunction,NonPlated,NPTH,ComponentDrill
T3C3.050
; #@! TA.AperFunction,NonPlated,NPTH,ComponentDrill
T4C3.200
; #@! TA.AperFunction,NonPlated,NPTH,ComponentDrill
T5C5.050
%
G90
G05
T1
X15.449Y-31.04
X15.48Y-82.25
X15.5Y-48.05
X15.5Y-65.15
X15.5Y-99.25
X33.449Y-31.04
X33.5Y-99.25
X33.51Y-65.15
X33.51Y-82.2
X33.58Y-48.05
X51.459Y-31.04
X51.5Y-48.1
X51.5Y-65.15
X51.5Y-82.15
X51.5Y-99.25
X69.449Y-31.04
X69.5Y-65.15
X69.5Y-82.15
X69.58Y-48.05
X71.744Y-99.2
X87.479Y-31.04
X87.5Y-48.05
X87.5Y-65.15
X87.5Y-82.15
X105.479Y-31.04
X105.5Y-48.0
X105.5Y-82.15
X105.55Y-65.1
X123.5Y-48.0
X123.5Y-65.05
X123.5Y-82.15
X123.58Y-31.03
X141.5Y-48.05
X141.5Y-82.15
X141.579Y-31.04
X141.6Y-65.15
X159.479Y-31.05
X159.5Y-48.1
X159.5Y-82.15
X159.51Y-65.1
X177.4Y-48.15
X177.41Y-31.05
X177.49Y-82.15
X177.5Y-65.15
X193.206Y-99.15
X195.4Y-31.05
X195.5Y-48.15
X195.5Y-65.15
X195.5Y-82.1
X213.4Y-31.05
X213.49Y-65.2
X213.5Y-48.15
X213.5Y-82.25
X213.5Y-99.15
X231.5Y-31.06
X231.5Y-48.1
X231.51Y-99.15
X233.8Y-65.2
X233.8Y-82.15
X249.5Y-31.05
X249.5Y-48.15
X249.51Y-99.2
T2
X14.949Y-25.89
X14.98Y-77.1
X15.0Y-42.9
X15.0Y-60.0
X15.0Y-94.1
X25.949Y-25.89
X25.98Y-77.1
X26.0Y-42.9
X26.0Y-60.0
X26.0Y-94.1
X32.949Y-25.89
X33.0Y-94.1
X33.01Y-60.0
X33.01Y-77.05
X33.08Y-42.9
X43.949Y-25.89
X44.0Y-94.1
X44.01Y-60.0
X44.01Y-77.05
X44.08Y-42.9
X50.959Y-25.89
X51.0Y-42.95
X51.0Y-60.0
X51.0Y-77.0
X51.0Y-94.1
X61.959Y-25.89
X62.0Y-42.95
X62.0Y-60.0
X62.0Y-77.0
X62.0Y-94.1
X68.949Y-25.89
X69.0Y-60.0
X69.0Y-77.0
X69.08Y-42.9
X71.244Y-94.05
X79.949Y-25.89
X80.0Y-60.0
X80.0Y-77.0
X80.08Y-42.9
X82.244Y-94.05
X86.979Y-25.89
X87.0Y-42.9
X87.0Y-60.0
X87.0Y-77.0
X97.979Y-25.89
X98.0Y-42.9
X98.0Y-60.0
X98.0Y-77.0
X104.979Y-25.89
X105.0Y-42.85
X105.0Y-77.0
X105.05Y-59.95
X115.979Y-25.89
X116.0Y-42.85
X116.0Y-77.0
X116.05Y-59.95
X123.0Y-42.85
X123.0Y-59.9
X123.0Y-77.0
X123.08Y-25.88
X134.0Y-42.85
X134.0Y-59.9
X134.0Y-77.0
X134.08Y-25.88
X141.0Y-42.9
X141.0Y-77.0
X141.079Y-25.89
X141.1Y-60.0
X152.0Y-42.9
X152.0Y-77.0
X152.079Y-25.89
X152.1Y-60.0
X158.979Y-25.9
X159.0Y-42.95
X159.0Y-77.0
X159.01Y-59.95
X169.979Y-25.9
X170.0Y-42.95
X170.0Y-77.0
X170.01Y-59.95
X176.9Y-43.0
X176.91Y-25.9
X176.99Y-77.0
X177.0Y-60.0
X187.9Y-43.0
X187.91Y-25.9
X187.99Y-77.0
X188.0Y-60.0
X192.706Y-94.0
X194.9Y-25.9
X195.0Y-43.0
X195.0Y-60.0
X195.0Y-76.95
X203.706Y-94.0
X205.9Y-25.9
X206.0Y-43.0
X206.0Y-60.0
X206.0Y-76.95
X212.9Y-25.9
X212.99Y-60.05
X213.0Y-43.0
X213.0Y-77.1
X213.0Y-94.0
X223.9Y-25.9
X223.99Y-60.05
X224.0Y-43.0
X224.0Y-77.1
X224.0Y-94.0
X231.0Y-25.91
X231.0Y-42.95
X231.01Y-94.0
X233.3Y-60.05
X233.3Y-77.0
X242.0Y-25.91
X242.0Y-42.95
X242.01Y-94.0
X244.3Y-60.05
X244.3Y-77.0
X249.0Y-25.9
X249.0Y-43.0
X249.01Y-94.05
X260.0Y-25.9
X260.0Y-43.0
X260.01Y-94.05
T3
X20.449Y-19.99
X20.48Y-71.2
X20.5Y-37.0
X20.5Y-54.1
X20.5Y-88.2
X25.449Y-22.09
X25.48Y-73.3
X25.5Y-39.1
X25.5Y-56.2
X25.5Y-90.3
X38.449Y-19.99
X38.5Y-88.2
X38.51Y-54.1
X38.51Y-71.15
X38.58Y-37.0
X43.449Y-22.09
X43.5Y-90.3
X43.51Y-56.2
X43.51Y-73.25
X43.58Y-39.1
X56.459Y-19.99
X56.5Y-37.05
X56.5Y-54.1
X56.5Y-71.1
X56.5Y-88.2
X61.459Y-22.09
X61.5Y-39.15
X61.5Y-56.2
X61.5Y-73.2
X61.5Y-90.3
X74.449Y-19.99
X74.5Y-54.1
X74.5Y-71.1
X74.58Y-37.0
X76.744Y-88.15
X79.449Y-22.09
X79.5Y-56.2
X79.5Y-73.2
X79.58Y-39.1
X81.744Y-90.25
X92.479Y-19.99
X92.5Y-37.0
X92.5Y-54.1
X92.5Y-71.1
X97.479Y-22.09
X97.5Y-39.1
X97.5Y-56.2
X97.5Y-73.2
X110.479Y-19.99
X110.5Y-36.95
X110.5Y-71.1
X110.55Y-54.05
X115.479Y-22.09
X115.5Y-39.05
X115.5Y-73.2
X115.55Y-56.15
X128.5Y-36.95
X128.5Y-54.0
X128.5Y-71.1
X128.58Y-19.98
X133.5Y-39.05
X133.5Y-56.1
X133.5Y-73.2
X133.58Y-22.08
X146.5Y-37.0
X146.5Y-71.1
X146.579Y-19.99
X146.6Y-54.1
X151.5Y-39.1
X151.5Y-73.2
X151.579Y-22.09
X151.6Y-56.2
X164.479Y-20.0
X164.5Y-37.05
X164.5Y-71.1
X164.51Y-54.05
X169.479Y-22.1
X169.5Y-39.15
X169.5Y-73.2
X169.51Y-56.15
X182.4Y-37.1
X182.41Y-20.0
X182.49Y-71.1
X182.5Y-54.1
X187.4Y-39.2
X187.41Y-22.1
X187.49Y-73.2
X187.5Y-56.2
X198.206Y-88.1
X200.4Y-20.0
X200.5Y-37.1
X200.5Y-54.1
X200.5Y-71.05
X203.206Y-90.2
X205.4Y-22.1
X205.5Y-39.2
X205.5Y-56.2
X205.5Y-73.15
X218.4Y-20.0
X218.49Y-54.15
X218.5Y-37.1
X218.5Y-71.2
X218.5Y-88.1
X223.4Y-22.1
X223.49Y-56.25
X223.5Y-39.2
X223.5Y-73.3
X223.5Y-90.2
X236.5Y-20.01
X236.5Y-37.05
X236.51Y-88.1
X238.8Y-54.15
X238.8Y-71.1
X241.5Y-22.11
X241.5Y-39.15
X241.51Y-90.2
X243.8Y-56.25
X243.8Y-73.2
X254.5Y-20.0
X254.5Y-37.1
X254.51Y-88.15
X259.5Y-22.1
X259.5Y-39.2
X259.51Y-90.25
T4
X7.036Y-14.707
X7.366Y-100.711
X296.977Y-14.986
X297.18Y-100.609
T5
X20.449Y-25.89
X20.48Y-77.1
X20.5Y-42.9
X20.5Y-60.0
X20.5Y-94.1
X38.449Y-25.89
X38.5Y-94.1
X38.51Y-60.0
X38.51Y-77.05
X38.58Y-42.9
X56.459Y-25.89
X56.5Y-42.95
X56.5Y-60.0
X56.5Y-77.0
X56.5Y-94.1
X74.449Y-25.89
X74.5Y-60.0
X74.5Y-77.0
X74.58Y-42.9
X76.744Y-94.05
X92.479Y-25.89
X92.5Y-42.9
X92.5Y-60.0
X92.5Y-77.0
X110.479Y-25.89
X110.5Y-42.85
X110.5Y-77.0
X110.55Y-59.95
X128.5Y-42.85
X128.5Y-59.9
X128.5Y-77.0
X128.58Y-25.88
X146.5Y-42.9
X146.5Y-77.0
X146.579Y-25.89
X146.6Y-60.0
X164.479Y-25.9
X164.5Y-42.95
X164.5Y-77.0
X164.51Y-59.95
X182.4Y-43.0
X182.41Y-25.9
X182.49Y-77.0
X182.5Y-60.0
X198.206Y-94.0
X200.4Y-25.9
X200.5Y-43.0
X200.5Y-60.0
X200.5Y-76.95
X218.4Y-25.9
X218.49Y-60.05
X218.5Y-43.0
X218.5Y-77.1
X218.5Y-94.0
X236.5Y-25.91
X236.5Y-42.95
X236.51Y-94.0
X238.8Y-60.05
X238.8Y-77.0
X254.5Y-25.9
X254.5Y-43.0
X254.51Y-94.05
M30
