%TF.GenerationSoftware,KiCad,Pcbnew,9.0.6*%
%TF.CreationDate,2025-12-29T18:01:22-05:00*%
%TF.ProjectId,keyboardepi pico,6b657962-6f61-4726-9465-706920706963,rev?*%
%TF.SameCoordinates,Original*%
%TF.FileFunction,Soldermask,Top*%
%TF.FilePolarity,Negative*%
%FSLAX46Y46*%
G04 Gerber Fmt 4.6, Leading zero omitted, Abs format (unit mm)*
G04 Created by KiCad (PCBNEW 9.0.6) date 2025-12-29 18:01:22*
%MOMM*%
%LPD*%
G01*
G04 APERTURE LIST*
%ADD10O,1.700000X1.700000*%
%ADD11R,1.700000X1.700000*%
%ADD12C,1.900000*%
%ADD13C,1.600000*%
%ADD14C,3.050000*%
%ADD15C,5.050000*%
%ADD16C,3.200000*%
G04 APERTURE END LIST*
D10*
%TO.C,U1*%
X289839400Y-13639800D03*
X289839400Y-16179800D03*
D11*
X289839400Y-18719800D03*
D10*
X289839400Y-21259800D03*
X289839400Y-23799800D03*
X289839400Y-26339800D03*
X289839400Y-28879800D03*
D11*
X289839400Y-31419800D03*
D10*
X289839400Y-33959800D03*
X289839400Y-36499800D03*
X289839400Y-39039800D03*
X289839400Y-41579800D03*
D11*
X289839400Y-44119800D03*
D10*
X289839400Y-46659800D03*
X289839400Y-49199800D03*
X289839400Y-51739800D03*
X289839400Y-54279800D03*
D11*
X289839400Y-56819800D03*
D10*
X289839400Y-59359800D03*
X289839400Y-61899800D03*
X272059400Y-61899800D03*
X272059400Y-59359800D03*
D11*
X272059400Y-56819800D03*
D10*
X272059400Y-54279800D03*
X272059400Y-51739800D03*
X272059400Y-49199800D03*
X272059400Y-46659800D03*
D11*
X272059400Y-44119800D03*
D10*
X272059400Y-41579800D03*
X272059400Y-39039800D03*
X272059400Y-36499800D03*
X272059400Y-33959800D03*
D11*
X272059400Y-31419800D03*
D10*
X272059400Y-28879800D03*
X272059400Y-26339800D03*
X272059400Y-23799800D03*
X272059400Y-21259800D03*
D11*
X272059400Y-18719800D03*
D10*
X272059400Y-16179800D03*
X272059400Y-13639800D03*
X283489400Y-61669800D03*
D11*
X280949400Y-61669800D03*
D10*
X278409400Y-61669800D03*
%TD*%
D12*
%TO.C,S41*%
X177000000Y-60000000D03*
D13*
X177500000Y-65150000D03*
D14*
X182500000Y-54100000D03*
D15*
X182500000Y-60000000D03*
D14*
X187500000Y-56200000D03*
D12*
X188000000Y-60000000D03*
%TD*%
%TO.C,S24*%
X141000000Y-42900000D03*
D13*
X141500000Y-48050000D03*
D14*
X146500000Y-37000000D03*
D15*
X146500000Y-42900000D03*
D14*
X151500000Y-39100000D03*
D12*
X152000000Y-42900000D03*
%TD*%
%TO.C,S4*%
X68949000Y-25890000D03*
D13*
X69449000Y-31040000D03*
D14*
X74449000Y-19990000D03*
D15*
X74449000Y-25890000D03*
D14*
X79449000Y-22090000D03*
D12*
X79949000Y-25890000D03*
%TD*%
%TO.C,S15*%
X249000000Y-25900000D03*
D13*
X249500000Y-31050000D03*
D14*
X254500000Y-20000000D03*
D15*
X254500000Y-25900000D03*
D14*
X259500000Y-22100000D03*
D12*
X260000000Y-25900000D03*
%TD*%
%TO.C,S10*%
X176910000Y-25900000D03*
D13*
X177410000Y-31050000D03*
D14*
X182410000Y-20000000D03*
D15*
X182410000Y-25900000D03*
D14*
X187410000Y-22100000D03*
D12*
X187910000Y-25900000D03*
%TD*%
%TO.C,S52*%
X105000000Y-77000000D03*
D13*
X105500000Y-82150000D03*
D14*
X110500000Y-71100000D03*
D15*
X110500000Y-77000000D03*
D14*
X115500000Y-73200000D03*
D12*
X116000000Y-77000000D03*
%TD*%
%TO.C,S31*%
X15000000Y-60000000D03*
D13*
X15500000Y-65150000D03*
D14*
X20500000Y-54100000D03*
D15*
X20500000Y-60000000D03*
D14*
X25500000Y-56200000D03*
D12*
X26000000Y-60000000D03*
%TD*%
%TO.C,S5*%
X86979000Y-25890000D03*
D13*
X87479000Y-31040000D03*
D14*
X92479000Y-19990000D03*
D15*
X92479000Y-25890000D03*
D14*
X97479000Y-22090000D03*
D12*
X97979000Y-25890000D03*
%TD*%
%TO.C,S58*%
X213000000Y-77100000D03*
D13*
X213500000Y-82250000D03*
D14*
X218500000Y-71200000D03*
D15*
X218500000Y-77100000D03*
D14*
X223500000Y-73300000D03*
D12*
X224000000Y-77100000D03*
%TD*%
%TO.C,S56*%
X176990000Y-77000000D03*
D13*
X177490000Y-82150000D03*
D14*
X182490000Y-71100000D03*
D15*
X182490000Y-77000000D03*
D14*
X187490000Y-73200000D03*
D12*
X187990000Y-77000000D03*
%TD*%
%TO.C,S19*%
X51000000Y-42950000D03*
D13*
X51500000Y-48100000D03*
D14*
X56500000Y-37050000D03*
D15*
X56500000Y-42950000D03*
D14*
X61500000Y-39150000D03*
D12*
X62000000Y-42950000D03*
%TD*%
%TO.C,S73*%
X213000000Y-94000000D03*
D13*
X213500000Y-99150000D03*
D14*
X218500000Y-88100000D03*
D15*
X218500000Y-94000000D03*
D14*
X223500000Y-90200000D03*
D12*
X224000000Y-94000000D03*
%TD*%
%TO.C,S22*%
X105000000Y-42850000D03*
D13*
X105500000Y-48000000D03*
D14*
X110500000Y-36950000D03*
D15*
X110500000Y-42850000D03*
D14*
X115500000Y-39050000D03*
D12*
X116000000Y-42850000D03*
%TD*%
%TO.C,S45*%
X233300000Y-60050000D03*
D13*
X233800000Y-65200000D03*
D14*
X238800000Y-54150000D03*
D15*
X238800000Y-60050000D03*
D14*
X243800000Y-56250000D03*
D12*
X244300000Y-60050000D03*
%TD*%
%TO.C,S75*%
X249010000Y-94050000D03*
D13*
X249510000Y-99200000D03*
D14*
X254510000Y-88150000D03*
D15*
X254510000Y-94050000D03*
D14*
X259510000Y-90250000D03*
D12*
X260010000Y-94050000D03*
%TD*%
%TO.C,S34*%
X51000000Y-60000000D03*
D13*
X51500000Y-65150000D03*
D14*
X56500000Y-54100000D03*
D15*
X56500000Y-60000000D03*
D14*
X61500000Y-56200000D03*
D12*
X62000000Y-60000000D03*
%TD*%
%TO.C,S42*%
X195000000Y-60000000D03*
D13*
X195500000Y-65150000D03*
D14*
X200500000Y-54100000D03*
D15*
X200500000Y-60000000D03*
D14*
X205500000Y-56200000D03*
D12*
X206000000Y-60000000D03*
%TD*%
%TO.C,S20*%
X69080000Y-42900000D03*
D13*
X69580000Y-48050000D03*
D14*
X74580000Y-37000000D03*
D15*
X74580000Y-42900000D03*
D14*
X79580000Y-39100000D03*
D12*
X80080000Y-42900000D03*
%TD*%
D16*
%TO.C,REF\u002A\u002A*%
X7035800Y-14706600D03*
%TD*%
D12*
%TO.C,S11*%
X194900000Y-25900000D03*
D13*
X195400000Y-31050000D03*
D14*
X200400000Y-20000000D03*
D15*
X200400000Y-25900000D03*
D14*
X205400000Y-22100000D03*
D12*
X205900000Y-25900000D03*
%TD*%
%TO.C,S62*%
X33000000Y-94100000D03*
D13*
X33500000Y-99250000D03*
D14*
X38500000Y-88200000D03*
D15*
X38500000Y-94100000D03*
D14*
X43500000Y-90300000D03*
D12*
X44000000Y-94100000D03*
%TD*%
%TO.C,S53*%
X123000000Y-77000000D03*
D13*
X123500000Y-82150000D03*
D14*
X128500000Y-71100000D03*
D15*
X128500000Y-77000000D03*
D14*
X133500000Y-73200000D03*
D12*
X134000000Y-77000000D03*
%TD*%
%TO.C,S46*%
X14980000Y-77100000D03*
D13*
X15480000Y-82250000D03*
D14*
X20480000Y-71200000D03*
D15*
X20480000Y-77100000D03*
D14*
X25480000Y-73300000D03*
D12*
X25980000Y-77100000D03*
%TD*%
D16*
%TO.C,REF\u002A\u002A*%
X7366000Y-100711000D03*
%TD*%
D12*
%TO.C,S50*%
X69000000Y-77000000D03*
D13*
X69500000Y-82150000D03*
D14*
X74500000Y-71100000D03*
D15*
X74500000Y-77000000D03*
D14*
X79500000Y-73200000D03*
D12*
X80000000Y-77000000D03*
%TD*%
%TO.C,S49*%
X51000000Y-77000000D03*
D13*
X51500000Y-82150000D03*
D14*
X56500000Y-71100000D03*
D15*
X56500000Y-77000000D03*
D14*
X61500000Y-73200000D03*
D12*
X62000000Y-77000000D03*
%TD*%
%TO.C,S38*%
X123000000Y-59900000D03*
D13*
X123500000Y-65050000D03*
D14*
X128500000Y-54000000D03*
D15*
X128500000Y-59900000D03*
D14*
X133500000Y-56100000D03*
D12*
X134000000Y-59900000D03*
%TD*%
%TO.C,S43*%
X212990000Y-60050000D03*
D13*
X213490000Y-65200000D03*
D14*
X218490000Y-54150000D03*
D15*
X218490000Y-60050000D03*
D14*
X223490000Y-56250000D03*
D12*
X223990000Y-60050000D03*
%TD*%
%TO.C,S6*%
X104979000Y-25890000D03*
D13*
X105479000Y-31040000D03*
D14*
X110479000Y-19990000D03*
D15*
X110479000Y-25890000D03*
D14*
X115479000Y-22090000D03*
D12*
X115979000Y-25890000D03*
%TD*%
%TO.C,S13*%
X231000000Y-25910000D03*
D13*
X231500000Y-31060000D03*
D14*
X236500000Y-20010000D03*
D15*
X236500000Y-25910000D03*
D14*
X241500000Y-22110000D03*
D12*
X242000000Y-25910000D03*
%TD*%
%TO.C,S57*%
X195000000Y-76950000D03*
D13*
X195500000Y-82100000D03*
D14*
X200500000Y-71050000D03*
D15*
X200500000Y-76950000D03*
D14*
X205500000Y-73150000D03*
D12*
X206000000Y-76950000D03*
%TD*%
%TO.C,S61*%
X15000000Y-94100000D03*
D13*
X15500000Y-99250000D03*
D14*
X20500000Y-88200000D03*
D15*
X20500000Y-94100000D03*
D14*
X25500000Y-90300000D03*
D12*
X26000000Y-94100000D03*
%TD*%
%TO.C,S26*%
X176900000Y-43000000D03*
D13*
X177400000Y-48150000D03*
D14*
X182400000Y-37100000D03*
D15*
X182400000Y-43000000D03*
D14*
X187400000Y-39200000D03*
D12*
X187900000Y-43000000D03*
%TD*%
%TO.C,S23*%
X123000000Y-42850000D03*
D13*
X123500000Y-48000000D03*
D14*
X128500000Y-36950000D03*
D15*
X128500000Y-42850000D03*
D14*
X133500000Y-39050000D03*
D12*
X134000000Y-42850000D03*
%TD*%
%TO.C,S40*%
X159010000Y-59950000D03*
D13*
X159510000Y-65100000D03*
D14*
X164510000Y-54050000D03*
D15*
X164510000Y-59950000D03*
D14*
X169510000Y-56150000D03*
D12*
X170010000Y-59950000D03*
%TD*%
%TO.C,S51*%
X87000000Y-77000000D03*
D13*
X87500000Y-82150000D03*
D14*
X92500000Y-71100000D03*
D15*
X92500000Y-77000000D03*
D14*
X97500000Y-73200000D03*
D12*
X98000000Y-77000000D03*
%TD*%
%TO.C,S60*%
X233300000Y-77000000D03*
D13*
X233800000Y-82150000D03*
D14*
X238800000Y-71100000D03*
D15*
X238800000Y-77000000D03*
D14*
X243800000Y-73200000D03*
D12*
X244300000Y-77000000D03*
%TD*%
%TO.C,S63*%
X51000000Y-94100000D03*
D13*
X51500000Y-99250000D03*
D14*
X56500000Y-88200000D03*
D15*
X56500000Y-94100000D03*
D14*
X61500000Y-90300000D03*
D12*
X62000000Y-94100000D03*
%TD*%
%TO.C,S18*%
X33080000Y-42900000D03*
D13*
X33580000Y-48050000D03*
D14*
X38580000Y-37000000D03*
D15*
X38580000Y-42900000D03*
D14*
X43580000Y-39100000D03*
D12*
X44080000Y-42900000D03*
%TD*%
%TO.C,S28*%
X213000000Y-43000000D03*
D13*
X213500000Y-48150000D03*
D14*
X218500000Y-37100000D03*
D15*
X218500000Y-43000000D03*
D14*
X223500000Y-39200000D03*
D12*
X224000000Y-43000000D03*
%TD*%
%TO.C,S37*%
X105050000Y-59950000D03*
D13*
X105550000Y-65100000D03*
D14*
X110550000Y-54050000D03*
D15*
X110550000Y-59950000D03*
D14*
X115550000Y-56150000D03*
D12*
X116050000Y-59950000D03*
%TD*%
%TO.C,S7*%
X123080000Y-25880000D03*
D13*
X123580000Y-31030000D03*
D14*
X128580000Y-19980000D03*
D15*
X128580000Y-25880000D03*
D14*
X133580000Y-22080000D03*
D12*
X134080000Y-25880000D03*
%TD*%
%TO.C,S33*%
X33010000Y-60000000D03*
D13*
X33510000Y-65150000D03*
D14*
X38510000Y-54100000D03*
D15*
X38510000Y-60000000D03*
D14*
X43510000Y-56200000D03*
D12*
X44010000Y-60000000D03*
%TD*%
%TO.C,S39*%
X141100000Y-60000000D03*
D13*
X141600000Y-65150000D03*
D14*
X146600000Y-54100000D03*
D15*
X146600000Y-60000000D03*
D14*
X151600000Y-56200000D03*
D12*
X152100000Y-60000000D03*
%TD*%
%TO.C,S17*%
X192706250Y-94000000D03*
D13*
X193206250Y-99150000D03*
D14*
X198206250Y-88100000D03*
D15*
X198206250Y-94000000D03*
D14*
X203206250Y-90200000D03*
D12*
X203706250Y-94000000D03*
%TD*%
%TO.C,S1*%
X14949000Y-25890000D03*
D13*
X15449000Y-31040000D03*
D14*
X20449000Y-19990000D03*
D15*
X20449000Y-25890000D03*
D14*
X25449000Y-22090000D03*
D12*
X25949000Y-25890000D03*
%TD*%
%TO.C,S30*%
X249000000Y-43000000D03*
D13*
X249500000Y-48150000D03*
D14*
X254500000Y-37100000D03*
D15*
X254500000Y-43000000D03*
D14*
X259500000Y-39200000D03*
D12*
X260000000Y-43000000D03*
%TD*%
%TO.C,S54*%
X141000000Y-77000000D03*
D13*
X141500000Y-82150000D03*
D14*
X146500000Y-71100000D03*
D15*
X146500000Y-77000000D03*
D14*
X151500000Y-73200000D03*
D12*
X152000000Y-77000000D03*
%TD*%
%TO.C,S14*%
X231000000Y-42950000D03*
D13*
X231500000Y-48100000D03*
D14*
X236500000Y-37050000D03*
D15*
X236500000Y-42950000D03*
D14*
X241500000Y-39150000D03*
D12*
X242000000Y-42950000D03*
%TD*%
%TO.C,S29*%
X71243750Y-94050000D03*
D13*
X71743750Y-99200000D03*
D14*
X76743750Y-88150000D03*
D15*
X76743750Y-94050000D03*
D14*
X81743750Y-90250000D03*
D12*
X82243750Y-94050000D03*
%TD*%
%TO.C,S25*%
X159000000Y-42950000D03*
D13*
X159500000Y-48100000D03*
D14*
X164500000Y-37050000D03*
D15*
X164500000Y-42950000D03*
D14*
X169500000Y-39150000D03*
D12*
X170000000Y-42950000D03*
%TD*%
%TO.C,S8*%
X141079000Y-25890000D03*
D13*
X141579000Y-31040000D03*
D14*
X146579000Y-19990000D03*
D15*
X146579000Y-25890000D03*
D14*
X151579000Y-22090000D03*
D12*
X152079000Y-25890000D03*
%TD*%
%TO.C,S16*%
X15000000Y-42900000D03*
D13*
X15500000Y-48050000D03*
D14*
X20500000Y-37000000D03*
D15*
X20500000Y-42900000D03*
D14*
X25500000Y-39100000D03*
D12*
X26000000Y-42900000D03*
%TD*%
%TO.C,S48*%
X33010000Y-77050000D03*
D13*
X33510000Y-82200000D03*
D14*
X38510000Y-71150000D03*
D15*
X38510000Y-77050000D03*
D14*
X43510000Y-73250000D03*
D12*
X44010000Y-77050000D03*
%TD*%
%TO.C,S3*%
X50959000Y-25890000D03*
D13*
X51459000Y-31040000D03*
D14*
X56459000Y-19990000D03*
D15*
X56459000Y-25890000D03*
D14*
X61459000Y-22090000D03*
D12*
X61959000Y-25890000D03*
%TD*%
%TO.C,S12*%
X212900000Y-25900000D03*
D13*
X213400000Y-31050000D03*
D14*
X218400000Y-20000000D03*
D15*
X218400000Y-25900000D03*
D14*
X223400000Y-22100000D03*
D12*
X223900000Y-25900000D03*
%TD*%
%TO.C,S2*%
X32949000Y-25890000D03*
D13*
X33449000Y-31040000D03*
D14*
X38449000Y-19990000D03*
D15*
X38449000Y-25890000D03*
D14*
X43449000Y-22090000D03*
D12*
X43949000Y-25890000D03*
%TD*%
%TO.C,S21*%
X87000000Y-42900000D03*
D13*
X87500000Y-48050000D03*
D14*
X92500000Y-37000000D03*
D15*
X92500000Y-42900000D03*
D14*
X97500000Y-39100000D03*
D12*
X98000000Y-42900000D03*
%TD*%
%TO.C,S27*%
X195000000Y-43000000D03*
D13*
X195500000Y-48150000D03*
D14*
X200500000Y-37100000D03*
D15*
X200500000Y-43000000D03*
D14*
X205500000Y-39200000D03*
D12*
X206000000Y-43000000D03*
%TD*%
%TO.C,S35*%
X69000000Y-60000000D03*
D13*
X69500000Y-65150000D03*
D14*
X74500000Y-54100000D03*
D15*
X74500000Y-60000000D03*
D14*
X79500000Y-56200000D03*
D12*
X80000000Y-60000000D03*
%TD*%
%TO.C,S74*%
X231010000Y-94000000D03*
D13*
X231510000Y-99150000D03*
D14*
X236510000Y-88100000D03*
D15*
X236510000Y-94000000D03*
D14*
X241510000Y-90200000D03*
D12*
X242010000Y-94000000D03*
%TD*%
%TO.C,S36*%
X87000000Y-60000000D03*
D13*
X87500000Y-65150000D03*
D14*
X92500000Y-54100000D03*
D15*
X92500000Y-60000000D03*
D14*
X97500000Y-56200000D03*
D12*
X98000000Y-60000000D03*
%TD*%
%TO.C,S9*%
X158979000Y-25900000D03*
D13*
X159479000Y-31050000D03*
D14*
X164479000Y-20000000D03*
D15*
X164479000Y-25900000D03*
D14*
X169479000Y-22100000D03*
D12*
X169979000Y-25900000D03*
%TD*%
%TO.C,S55*%
X159000000Y-77000000D03*
D13*
X159500000Y-82150000D03*
D14*
X164500000Y-71100000D03*
D15*
X164500000Y-77000000D03*
D14*
X169500000Y-73200000D03*
D12*
X170000000Y-77000000D03*
%TD*%
D16*
%TO.C,REF\u002A\u002A*%
X297180000Y-100609400D03*
%TD*%
%TO.C,REF\u002A\u002A*%
X296976800Y-14986000D03*
%TD*%
M02*
