M48
; DRILL file {KiCad 9.0.6} date 2026-06-16T19:37:38-0400
; FORMAT={-:-/ absolute / metric / decimal}
; #@! TF.CreationDate,2026-06-16T19:37:38-04:00
; #@! TF.GenerationSoftware,Kicad,Pcbnew,9.0.6
; #@! TF.FileFunction,NonPlated,1,2,NPTH
FMAT,2
METRIC
; #@! TA.AperFunction,NonPlated,NPTH,ComponentDrill
T1C1.600
; #@! TA.AperFunction,NonPlated,NPTH,ComponentDrill
T2C1.900
; #@! TA.AperFunction,NonPlated,NPTH,ComponentDrill
T3C3.050
; #@! TA.AperFunction,NonPlated,NPTH,ComponentDrill
T4C3.200
; #@! TA.AperFunction,NonPlated,NPTH,ComponentDrill
T5C5.050
%
G90
G05
T1
X14.844Y-53.418
X14.875Y-104.628
X14.895Y-70.428
X14.895Y-87.528
X14.895Y-121.628
X32.844Y-53.418
X32.895Y-121.628
X32.905Y-87.528
X32.905Y-104.578
X32.975Y-70.428
X50.854Y-53.418
X50.895Y-70.478
X50.895Y-87.528
X50.895Y-104.528
X50.895Y-121.628
X68.844Y-53.418
X68.895Y-87.528
X68.895Y-104.528
X68.975Y-70.428
X71.139Y-121.578
X86.874Y-53.418
X86.895Y-70.428
X86.895Y-87.528
X86.895Y-104.528
X104.874Y-53.418
X104.895Y-70.378
X104.895Y-104.528
X104.945Y-87.478
X122.895Y-70.378
X122.895Y-87.428
X122.895Y-104.528
X122.975Y-53.408
X140.895Y-70.428
X140.895Y-104.528
X140.974Y-53.418
X140.995Y-87.528
X158.874Y-53.428
X158.895Y-70.478
X158.895Y-104.528
X158.905Y-87.478
X176.795Y-70.528
X176.805Y-53.428
X176.885Y-104.528
X176.895Y-87.528
X192.602Y-121.528
X194.795Y-53.428
X194.895Y-70.528
X194.895Y-87.528
X194.895Y-104.478
X212.795Y-53.428
X212.885Y-87.578
X212.895Y-70.528
X212.895Y-104.628
X212.895Y-121.528
X230.895Y-53.438
X230.895Y-70.478
X230.905Y-121.528
X233.195Y-87.578
X233.195Y-104.528
X248.895Y-53.428
X248.895Y-70.528
X248.905Y-121.578
T2
X14.344Y-48.268
X14.375Y-99.478
X14.395Y-65.278
X14.395Y-82.378
X14.395Y-116.478
X25.344Y-48.268
X25.375Y-99.478
X25.395Y-65.278
X25.395Y-82.378
X25.395Y-116.478
X32.344Y-48.268
X32.395Y-116.478
X32.405Y-82.378
X32.405Y-99.428
X32.475Y-65.278
X43.344Y-48.268
X43.395Y-116.478
X43.405Y-82.378
X43.405Y-99.428
X43.475Y-65.278
X50.354Y-48.268
X50.395Y-65.328
X50.395Y-82.378
X50.395Y-99.378
X50.395Y-116.478
X61.354Y-48.268
X61.395Y-65.328
X61.395Y-82.378
X61.395Y-99.378
X61.395Y-116.478
X68.344Y-48.268
X68.395Y-82.378
X68.395Y-99.378
X68.475Y-65.278
X70.639Y-116.428
X79.344Y-48.268
X79.395Y-82.378
X79.395Y-99.378
X79.475Y-65.278
X81.639Y-116.428
X86.374Y-48.268
X86.395Y-65.278
X86.395Y-82.378
X86.395Y-99.378
X97.374Y-48.268
X97.395Y-65.278
X97.395Y-82.378
X97.395Y-99.378
X104.374Y-48.268
X104.395Y-65.228
X104.395Y-99.378
X104.445Y-82.328
X115.374Y-48.268
X115.395Y-65.228
X115.395Y-99.378
X115.445Y-82.328
X122.395Y-65.228
X122.395Y-82.278
X122.395Y-99.378
X122.475Y-48.258
X133.395Y-65.228
X133.395Y-82.278
X133.395Y-99.378
X133.475Y-48.258
X140.395Y-65.278
X140.395Y-99.378
X140.474Y-48.268
X140.495Y-82.378
X151.395Y-65.278
X151.395Y-99.378
X151.474Y-48.268
X151.495Y-82.378
X158.374Y-48.278
X158.395Y-65.328
X158.395Y-99.378
X158.405Y-82.328
X169.374Y-48.278
X169.395Y-65.328
X169.395Y-99.378
X169.405Y-82.328
X176.295Y-65.378
X176.305Y-48.278
X176.385Y-99.378
X176.395Y-82.378
X187.295Y-65.378
X187.305Y-48.278
X187.385Y-99.378
X187.395Y-82.378
X192.102Y-116.378
X194.295Y-48.278
X194.395Y-65.378
X194.395Y-82.378
X194.395Y-99.328
X203.102Y-116.378
X205.295Y-48.278
X205.395Y-65.378
X205.395Y-82.378
X205.395Y-99.328
X212.295Y-48.278
X212.385Y-82.428
X212.395Y-65.378
X212.395Y-99.478
X212.395Y-116.378
X223.295Y-48.278
X223.385Y-82.428
X223.395Y-65.378
X223.395Y-99.478
X223.395Y-116.378
X230.395Y-48.288
X230.395Y-65.328
X230.405Y-116.378
X232.695Y-82.428
X232.695Y-99.378
X241.395Y-48.288
X241.395Y-65.328
X241.405Y-116.378
X243.695Y-82.428
X243.695Y-99.378
X248.395Y-48.278
X248.395Y-65.378
X248.405Y-116.428
X259.395Y-48.278
X259.395Y-65.378
X259.405Y-116.428
T3
X19.844Y-42.368
X19.875Y-93.578
X19.895Y-59.378
X19.895Y-76.478
X19.895Y-110.578
X24.844Y-44.468
X24.875Y-95.678
X24.895Y-61.478
X24.895Y-78.578
X24.895Y-112.678
X37.844Y-42.368
X37.895Y-110.578
X37.905Y-76.478
X37.905Y-93.528
X37.975Y-59.378
X42.844Y-44.468
X42.895Y-112.678
X42.905Y-78.578
X42.905Y-95.628
X42.975Y-61.478
X55.854Y-42.368
X55.895Y-59.428
X55.895Y-76.478
X55.895Y-93.478
X55.895Y-110.578
X60.854Y-44.468
X60.895Y-61.528
X60.895Y-78.578
X60.895Y-95.578
X60.895Y-112.678
X73.844Y-42.368
X73.895Y-76.478
X73.895Y-93.478
X73.975Y-59.378
X76.139Y-110.528
X78.844Y-44.468
X78.895Y-78.578
X78.895Y-95.578
X78.975Y-61.478
X81.139Y-112.628
X91.874Y-42.368
X91.895Y-59.378
X91.895Y-76.478
X91.895Y-93.478
X96.874Y-44.468
X96.895Y-61.478
X96.895Y-78.578
X96.895Y-95.578
X109.874Y-42.368
X109.895Y-59.328
X109.895Y-93.478
X109.945Y-76.428
X114.874Y-44.468
X114.895Y-61.428
X114.895Y-95.578
X114.945Y-78.528
X127.895Y-59.328
X127.895Y-76.378
X127.895Y-93.478
X127.975Y-42.358
X132.895Y-61.428
X132.895Y-78.478
X132.895Y-95.578
X132.975Y-44.458
X145.895Y-59.378
X145.895Y-93.478
X145.974Y-42.368
X145.995Y-76.478
X150.895Y-61.478
X150.895Y-95.578
X150.974Y-44.468
X150.995Y-78.578
X163.874Y-42.378
X163.895Y-59.428
X163.895Y-93.478
X163.905Y-76.428
X168.874Y-44.478
X168.895Y-61.528
X168.895Y-95.578
X168.905Y-78.528
X181.795Y-59.478
X181.805Y-42.378
X181.885Y-93.478
X181.895Y-76.478
X186.795Y-61.578
X186.805Y-44.478
X186.885Y-95.578
X186.895Y-78.578
X197.602Y-110.478
X199.795Y-42.378
X199.895Y-59.478
X199.895Y-76.478
X199.895Y-93.428
X202.602Y-112.578
X204.795Y-44.478
X204.895Y-61.578
X204.895Y-78.578
X204.895Y-95.528
X217.795Y-42.378
X217.885Y-76.528
X217.895Y-59.478
X217.895Y-93.578
X217.895Y-110.478
X222.795Y-44.478
X222.885Y-78.628
X222.895Y-61.578
X222.895Y-95.678
X222.895Y-112.578
X235.895Y-42.388
X235.895Y-59.428
X235.905Y-110.478
X238.195Y-76.528
X238.195Y-93.478
X240.895Y-44.488
X240.895Y-61.528
X240.905Y-112.578
X243.195Y-78.628
X243.195Y-95.578
X253.895Y-42.378
X253.895Y-59.478
X253.905Y-110.528
X258.895Y-44.478
X258.895Y-61.578
X258.905Y-112.628
T4
X6.431Y-37.085
X6.761Y-123.089
X296.372Y-37.364
X296.575Y-122.988
T5
X19.844Y-48.268
X19.875Y-99.478
X19.895Y-65.278
X19.895Y-82.378
X19.895Y-116.478
X37.844Y-48.268
X37.895Y-116.478
X37.905Y-82.378
X37.905Y-99.428
X37.975Y-65.278
X55.854Y-48.268
X55.895Y-65.328
X55.895Y-82.378
X55.895Y-99.378
X55.895Y-116.478
X73.844Y-48.268
X73.895Y-82.378
X73.895Y-99.378
X73.975Y-65.278
X76.139Y-116.428
X91.874Y-48.268
X91.895Y-65.278
X91.895Y-82.378
X91.895Y-99.378
X109.874Y-48.268
X109.895Y-65.228
X109.895Y-99.378
X109.945Y-82.328
X127.895Y-65.228
X127.895Y-82.278
X127.895Y-99.378
X127.975Y-48.258
X145.895Y-65.278
X145.895Y-99.378
X145.974Y-48.268
X145.995Y-82.378
X163.874Y-48.278
X163.895Y-65.328
X163.895Y-99.378
X163.905Y-82.328
X181.795Y-65.378
X181.805Y-48.278
X181.885Y-99.378
X181.895Y-82.378
X197.602Y-116.378
X199.795Y-48.278
X199.895Y-65.378
X199.895Y-82.378
X199.895Y-99.328
X217.795Y-48.278
X217.885Y-82.428
X217.895Y-65.378
X217.895Y-99.478
X217.895Y-116.378
X235.895Y-48.288
X235.895Y-65.328
X235.905Y-116.378
X238.195Y-82.428
X238.195Y-99.378
X253.895Y-48.278
X253.895Y-65.378
X253.905Y-116.428
M30
