M48
; DRILL file {KiCad 9.0.6} date 2026-06-16T19:43:49-0400
; FORMAT={-:-/ absolute / metric / decimal}
; #@! TF.CreationDate,2026-06-16T19:43:49-04:00
; #@! TF.GenerationSoftware,Kicad,Pcbnew,9.0.6
; #@! TF.FileFunction,Plated,1,2,PTH
FMAT,2
METRIC
; #@! TA.AperFunction,Plated,PTH,ViaDrill
T1C0.300
; #@! TA.AperFunction,Plated,PTH,ComponentDrill
T2C0.800
; #@! TA.AperFunction,Plated,PTH,ComponentDrill
T3C1.020
%
G90
G05
T1
X70.236Y-45.365
X86.009Y-41.124
X93.096Y-37.771
X93.096Y-39.269
X93.121Y-31.675
X93.121Y-36.374
X103.332Y-41.327
X110.901Y-37.822
X111.003Y-36.45
X111.13Y-39.219
X124.236Y-51.995
X157.764Y-41.835
X158.399Y-37.618
X158.476Y-35.332
X159.034Y-38.888
X178.44Y-52.554
X202.494Y-41.124
X216.388Y-52.927
X218.948Y-56.236
X222.987Y-55.296
X239.015Y-52.414
X244.119Y-66.142
X251.119Y-52.886
X251.211Y-51.08
X251.668Y-52.122
X253.014Y-53.297
X254.565Y-54.365
X260.101Y-79.808
X266.629Y-78.309
X266.776Y-69.952
X267.823Y-84.329
X276.408Y-51.969
X278.135Y-48.058
X280.396Y-61.901
T2
X28.859Y-47.347
X28.859Y-54.967
X28.91Y-64.568
X28.91Y-72.188
X28.91Y-115.52
X28.91Y-123.14
X28.961Y-82.068
X28.961Y-89.688
X28.986Y-99.417
X28.986Y-107.037
X46.893Y-115.596
X46.893Y-123.216
X46.919Y-47.448
X46.919Y-55.068
X46.97Y-64.339
X46.97Y-71.959
X47.02Y-98.883
X47.02Y-106.503
X47.071Y-81.408
X47.071Y-89.028
X64.953Y-81.23
X64.953Y-88.85
X64.953Y-99.061
X64.953Y-106.681
X65.004Y-47.347
X65.004Y-54.967
X65.054Y-64.619
X65.054Y-72.239
X65.461Y-115.927
X65.461Y-123.547
X82.936Y-47.855
X82.936Y-55.475
X82.936Y-81.764
X82.936Y-89.384
X83.063Y-98.553
X83.063Y-106.173
X83.088Y-64.365
X83.088Y-71.985
X86.314Y-115.977
X86.314Y-123.597
X100.894Y-99.544
X100.894Y-107.164
X100.919Y-81.738
X100.919Y-89.358
X100.945Y-64.466
X100.945Y-72.086
X100.995Y-47.651
X100.995Y-55.271
X118.877Y-99.848
X118.877Y-107.468
X118.902Y-47.067
X118.902Y-54.687
X118.953Y-81.459
X118.953Y-89.079
X119.055Y-64.288
X119.055Y-71.908
X136.733Y-100.179
X136.733Y-107.799
X136.936Y-81.713
X136.936Y-89.333
X137.063Y-64.238
X137.063Y-71.858
X137.14Y-47.372
X137.14Y-54.992
X154.869Y-99.366
X154.869Y-106.986
X154.945Y-64.39
X154.945Y-72.01
X155.047Y-81.611
X155.047Y-89.231
X155.072Y-47.423
X155.072Y-55.043
X172.954Y-64.314
X172.954Y-71.934
X172.954Y-99.213
X172.954Y-106.833
X173.004Y-47.397
X173.004Y-55.017
X173.004Y-81.662
X173.004Y-89.282
X190.911Y-64.644
X190.911Y-72.264
X190.962Y-47.245
X190.962Y-54.865
X190.962Y-81.306
X190.962Y-88.926
X191.089Y-99.163
X191.089Y-106.783
X207.802Y-116.054
X207.802Y-123.674
X208.895Y-47.321
X208.895Y-54.941
X208.895Y-81.56
X208.895Y-89.18
X208.92Y-64.415
X208.92Y-72.035
X208.92Y-98.985
X208.92Y-106.605
X226.852Y-47.474
X226.852Y-55.094
X226.929Y-64.593
X226.929Y-72.213
X227.056Y-116.13
X227.056Y-123.75
X227.259Y-99.239
X227.259Y-106.859
X227.564Y-81.154
X227.564Y-88.774
X244.836Y-116.638
X244.836Y-124.258
X244.912Y-64.492
X244.912Y-72.112
X244.963Y-47.372
X244.963Y-54.992
X247.858Y-98.807
X247.858Y-106.427
X247.96Y-81.992
X247.96Y-89.612
X263.047Y-47.397
X263.047Y-55.017
X263.073Y-64.746
X263.073Y-72.366
X263.784Y-116.816
X263.784Y-124.436
T3
X271.455Y-36.018
X271.455Y-38.558
X271.455Y-41.098
X271.455Y-43.638
X271.455Y-46.178
X271.455Y-48.718
X271.455Y-51.258
X271.455Y-53.798
X271.455Y-56.338
X271.455Y-58.878
X271.455Y-61.418
X271.455Y-63.958
X271.455Y-66.498
X271.455Y-69.038
X271.455Y-71.578
X271.455Y-74.118
X271.455Y-76.658
X271.455Y-79.198
X271.455Y-81.738
X271.455Y-84.278
X277.805Y-84.048
X280.345Y-84.048
X282.885Y-84.048
X289.235Y-36.018
X289.235Y-38.558
X289.235Y-41.098
X289.235Y-43.638
X289.235Y-46.178
X289.235Y-48.718
X289.235Y-51.258
X289.235Y-53.798
X289.235Y-56.338
X289.235Y-58.878
X289.235Y-61.418
X289.235Y-63.958
X289.235Y-66.498
X289.235Y-69.038
X289.235Y-71.578
X289.235Y-74.118
X289.235Y-76.658
X289.235Y-79.198
X289.235Y-81.738
X289.235Y-84.278
M30
