%TF.GenerationSoftware,KiCad,Pcbnew,9.0.6*%
%TF.CreationDate,2026-06-16T19:44:00-04:00*%
%TF.ProjectId,keyboardepi pico,6b657962-6f61-4726-9465-706920706963,rev?*%
%TF.SameCoordinates,Original*%
%TF.FileFunction,Soldermask,Top*%
%TF.FilePolarity,Negative*%
%FSLAX46Y46*%
G04 Gerber Fmt 4.6, Leading zero omitted, Abs format (unit mm)*
G04 Created by KiCad (PCBNEW 9.0.6) date 2026-06-16 19:44:00*
%MOMM*%
%LPD*%
G01*
G04 APERTURE LIST*
G04 Aperture macros list*
%AMRoundRect*
0 Rectangle with rounded corners*
0 $1 Rounding radius*
0 $2 $3 $4 $5 $6 $7 $8 $9 X,Y pos of 4 corners*
0 Add a 4 corners polygon primitive as box body*
4,1,4,$2,$3,$4,$5,$6,$7,$8,$9,$2,$3,0*
0 Add four circle primitives for the rounded corners*
1,1,$1+$1,$2,$3*
1,1,$1+$1,$4,$5*
1,1,$1+$1,$6,$7*
1,1,$1+$1,$8,$9*
0 Add four rect primitives between the rounded corners*
20,1,$1+$1,$2,$3,$4,$5,0*
20,1,$1+$1,$4,$5,$6,$7,0*
20,1,$1+$1,$6,$7,$8,$9,0*
20,1,$1+$1,$8,$9,$2,$3,0*%
G04 Aperture macros list end*
%ADD10C,1.900000*%
%ADD11C,1.600000*%
%ADD12C,3.050000*%
%ADD13C,5.050000*%
%ADD14RoundRect,0.090000X-0.660000X-0.360000X0.660000X-0.360000X0.660000X0.360000X-0.660000X0.360000X0*%
%ADD15C,3.200000*%
%ADD16R,1.600000X1.600000*%
%ADD17O,1.600000X1.600000*%
%ADD18O,1.700000X1.700000*%
%ADD19R,1.700000X1.700000*%
G04 APERTURE END LIST*
D10*
%TO.C,S41*%
X176395400Y-82378400D03*
D11*
X176895400Y-87528400D03*
D12*
X181895400Y-76478400D03*
D13*
X181895400Y-82378400D03*
D12*
X186895400Y-78578400D03*
D10*
X187395400Y-82378400D03*
%TD*%
%TO.C,S24*%
X140395400Y-65278400D03*
D11*
X140895400Y-70428400D03*
D12*
X145895400Y-59378400D03*
D13*
X145895400Y-65278400D03*
D12*
X150895400Y-61478400D03*
D10*
X151395400Y-65278400D03*
%TD*%
%TO.C,S4*%
X68344400Y-48268400D03*
D11*
X68844400Y-53418400D03*
D12*
X73844400Y-42368400D03*
D13*
X73844400Y-48268400D03*
D12*
X78844400Y-44468400D03*
D10*
X79344400Y-48268400D03*
%TD*%
%TO.C,S15*%
X248395400Y-48278400D03*
D11*
X248895400Y-53428400D03*
D12*
X253895400Y-42378400D03*
D13*
X253895400Y-48278400D03*
D12*
X258895400Y-44478400D03*
D10*
X259395400Y-48278400D03*
%TD*%
%TO.C,S10*%
X176305400Y-48278400D03*
D11*
X176805400Y-53428400D03*
D12*
X181805400Y-42378400D03*
D13*
X181805400Y-48278400D03*
D12*
X186805400Y-44478400D03*
D10*
X187305400Y-48278400D03*
%TD*%
%TO.C,S52*%
X104395400Y-99378400D03*
D11*
X104895400Y-104528400D03*
D12*
X109895400Y-93478400D03*
D13*
X109895400Y-99378400D03*
D12*
X114895400Y-95578400D03*
D10*
X115395400Y-99378400D03*
%TD*%
D14*
%TO.C,D17*%
X51137400Y-33833800D03*
X51137400Y-37133800D03*
X56037400Y-37133800D03*
X56037400Y-33833800D03*
%TD*%
D10*
%TO.C,S31*%
X14395400Y-82378400D03*
D11*
X14895400Y-87528400D03*
D12*
X19895400Y-76478400D03*
D13*
X19895400Y-82378400D03*
D12*
X24895400Y-78578400D03*
D10*
X25395400Y-82378400D03*
%TD*%
D14*
%TO.C,D59*%
X173209800Y-33835800D03*
X173209800Y-37135800D03*
X178109800Y-37135800D03*
X178109800Y-33835800D03*
%TD*%
D10*
%TO.C,S5*%
X86374400Y-48268400D03*
D11*
X86874400Y-53418400D03*
D12*
X91874400Y-42368400D03*
D13*
X91874400Y-48268400D03*
D12*
X96874400Y-44468400D03*
D10*
X97374400Y-48268400D03*
%TD*%
%TO.C,S58*%
X212395400Y-99478400D03*
D11*
X212895400Y-104628400D03*
D12*
X217895400Y-93578400D03*
D13*
X217895400Y-99478400D03*
D12*
X222895400Y-95678400D03*
D10*
X223395400Y-99478400D03*
%TD*%
%TO.C,S56*%
X176385400Y-99378400D03*
D11*
X176885400Y-104528400D03*
D12*
X181885400Y-93478400D03*
D13*
X181885400Y-99378400D03*
D12*
X186885400Y-95578400D03*
D10*
X187385400Y-99378400D03*
%TD*%
%TO.C,S19*%
X50395400Y-65328400D03*
D11*
X50895400Y-70478400D03*
D12*
X55895400Y-59428400D03*
D13*
X55895400Y-65328400D03*
D12*
X60895400Y-61528400D03*
D10*
X61395400Y-65328400D03*
%TD*%
%TO.C,S73*%
X212395400Y-116378400D03*
D11*
X212895400Y-121528400D03*
D12*
X217895400Y-110478400D03*
D13*
X217895400Y-116378400D03*
D12*
X222895400Y-112578400D03*
D10*
X223395400Y-116378400D03*
%TD*%
%TO.C,S22*%
X104395400Y-65228400D03*
D11*
X104895400Y-70378400D03*
D12*
X109895400Y-59328400D03*
D13*
X109895400Y-65228400D03*
D12*
X114895400Y-61428400D03*
D10*
X115395400Y-65228400D03*
%TD*%
%TO.C,S45*%
X232695400Y-82428400D03*
D11*
X233195400Y-87578400D03*
D12*
X238195400Y-76528400D03*
D13*
X238195400Y-82428400D03*
D12*
X243195400Y-78628400D03*
D10*
X243695400Y-82428400D03*
%TD*%
%TO.C,S75*%
X248405400Y-116428400D03*
D11*
X248905400Y-121578400D03*
D12*
X253905400Y-110528400D03*
D13*
X253905400Y-116428400D03*
D12*
X258905400Y-112628400D03*
D10*
X259405400Y-116428400D03*
%TD*%
%TO.C,S34*%
X50395400Y-82378400D03*
D11*
X50895400Y-87528400D03*
D12*
X55895400Y-76478400D03*
D13*
X55895400Y-82378400D03*
D12*
X60895400Y-78578400D03*
D10*
X61395400Y-82378400D03*
%TD*%
D14*
%TO.C,D66*%
X248774800Y-33861200D03*
X248774800Y-37161200D03*
X253674800Y-37161200D03*
X253674800Y-33861200D03*
%TD*%
D10*
%TO.C,S42*%
X194395400Y-82378400D03*
D11*
X194895400Y-87528400D03*
D12*
X199895400Y-76478400D03*
D13*
X199895400Y-82378400D03*
D12*
X204895400Y-78578400D03*
D10*
X205395400Y-82378400D03*
%TD*%
%TO.C,S20*%
X68475400Y-65278400D03*
D11*
X68975400Y-70428400D03*
D12*
X73975400Y-59378400D03*
D13*
X73975400Y-65278400D03*
D12*
X78975400Y-61478400D03*
D10*
X79475400Y-65278400D03*
%TD*%
D15*
%TO.C,REF\u002A\u002A*%
X6431200Y-37085000D03*
%TD*%
D10*
%TO.C,S11*%
X194295400Y-48278400D03*
D11*
X194795400Y-53428400D03*
D12*
X199795400Y-42378400D03*
D13*
X199795400Y-48278400D03*
D12*
X204795400Y-44478400D03*
D10*
X205295400Y-48278400D03*
%TD*%
D14*
%TO.C,D64*%
X201505400Y-33859200D03*
X201505400Y-37159200D03*
X206405400Y-37159200D03*
X206405400Y-33859200D03*
%TD*%
D10*
%TO.C,S62*%
X32395400Y-116478400D03*
D11*
X32895400Y-121628400D03*
D12*
X37895400Y-110578400D03*
D13*
X37895400Y-116478400D03*
D12*
X42895400Y-112678400D03*
D10*
X43395400Y-116478400D03*
%TD*%
%TO.C,S53*%
X122395400Y-99378400D03*
D11*
X122895400Y-104528400D03*
D12*
X127895400Y-93478400D03*
D13*
X127895400Y-99378400D03*
D12*
X132895400Y-95578400D03*
D10*
X133395400Y-99378400D03*
%TD*%
D15*
%TO.C,REF\u002A\u002A*%
X296372200Y-37364400D03*
%TD*%
D14*
%TO.C,D32*%
X97009800Y-33935400D03*
X97009800Y-37235400D03*
X101909800Y-37235400D03*
X101909800Y-33935400D03*
%TD*%
D10*
%TO.C,S46*%
X14375400Y-99478400D03*
D11*
X14875400Y-104628400D03*
D12*
X19875400Y-93578400D03*
D13*
X19875400Y-99478400D03*
D12*
X24875400Y-95678400D03*
D10*
X25375400Y-99478400D03*
%TD*%
D15*
%TO.C,REF\u002A\u002A*%
X6761400Y-123089400D03*
%TD*%
D10*
%TO.C,S50*%
X68395400Y-99378400D03*
D11*
X68895400Y-104528400D03*
D12*
X73895400Y-93478400D03*
D13*
X73895400Y-99378400D03*
D12*
X78895400Y-95578400D03*
D10*
X79395400Y-99378400D03*
%TD*%
%TO.C,S49*%
X50395400Y-99378400D03*
D11*
X50895400Y-104528400D03*
D12*
X55895400Y-93478400D03*
D13*
X55895400Y-99378400D03*
D12*
X60895400Y-95578400D03*
D10*
X61395400Y-99378400D03*
%TD*%
D14*
%TO.C,D29*%
X71203400Y-33785000D03*
X71203400Y-37085000D03*
X76103400Y-37085000D03*
X76103400Y-33785000D03*
%TD*%
%TO.C,D44*%
X121444600Y-33808400D03*
X121444600Y-37108400D03*
X126344600Y-37108400D03*
X126344600Y-33808400D03*
%TD*%
D10*
%TO.C,S38*%
X122395400Y-82278400D03*
D11*
X122895400Y-87428400D03*
D12*
X127895400Y-76378400D03*
D13*
X127895400Y-82278400D03*
D12*
X132895400Y-78478400D03*
D10*
X133395400Y-82278400D03*
%TD*%
%TO.C,S43*%
X212385400Y-82428400D03*
D11*
X212885400Y-87578400D03*
D12*
X217885400Y-76528400D03*
D13*
X217885400Y-82428400D03*
D12*
X222885400Y-78628400D03*
D10*
X223385400Y-82428400D03*
%TD*%
%TO.C,S6*%
X104374400Y-48268400D03*
D11*
X104874400Y-53418400D03*
D12*
X109874400Y-42368400D03*
D13*
X109874400Y-48268400D03*
D12*
X114874400Y-44468400D03*
D10*
X115374400Y-48268400D03*
%TD*%
%TO.C,S13*%
X230395400Y-48288400D03*
D11*
X230895400Y-53438400D03*
D12*
X235895400Y-42388400D03*
D13*
X235895400Y-48288400D03*
D12*
X240895400Y-44488400D03*
D10*
X241395400Y-48288400D03*
%TD*%
%TO.C,S57*%
X194395400Y-99328400D03*
D11*
X194895400Y-104478400D03*
D12*
X199895400Y-93428400D03*
D13*
X199895400Y-99328400D03*
D12*
X204895400Y-95528400D03*
D10*
X205395400Y-99328400D03*
%TD*%
%TO.C,S61*%
X14395400Y-116478400D03*
D11*
X14895400Y-121628400D03*
D12*
X19895400Y-110578400D03*
D13*
X19895400Y-116478400D03*
D12*
X24895400Y-112678400D03*
D10*
X25395400Y-116478400D03*
%TD*%
%TO.C,S26*%
X176295400Y-65378400D03*
D11*
X176795400Y-70528400D03*
D12*
X181795400Y-59478400D03*
D13*
X181795400Y-65378400D03*
D12*
X186795400Y-61578400D03*
D10*
X187295400Y-65378400D03*
%TD*%
%TO.C,S23*%
X122395400Y-65228400D03*
D11*
X122895400Y-70378400D03*
D12*
X127895400Y-59328400D03*
D13*
X127895400Y-65228400D03*
D12*
X132895400Y-61428400D03*
D10*
X133395400Y-65228400D03*
%TD*%
%TO.C,S40*%
X158405400Y-82328400D03*
D11*
X158905400Y-87478400D03*
D12*
X163905400Y-76428400D03*
D13*
X163905400Y-82328400D03*
D12*
X168905400Y-78528400D03*
D10*
X169405400Y-82328400D03*
%TD*%
%TO.C,S51*%
X86395400Y-99378400D03*
D11*
X86895400Y-104528400D03*
D12*
X91895400Y-93478400D03*
D13*
X91895400Y-99378400D03*
D12*
X96895400Y-95578400D03*
D10*
X97395400Y-99378400D03*
%TD*%
%TO.C,S60*%
X232695400Y-99378400D03*
D11*
X233195400Y-104528400D03*
D12*
X238195400Y-93478400D03*
D13*
X238195400Y-99378400D03*
D12*
X243195400Y-95578400D03*
D10*
X243695400Y-99378400D03*
%TD*%
%TO.C,S63*%
X50395400Y-116478400D03*
D11*
X50895400Y-121628400D03*
D12*
X55895400Y-110578400D03*
D13*
X55895400Y-116478400D03*
D12*
X60895400Y-112678400D03*
D10*
X61395400Y-116478400D03*
%TD*%
D14*
%TO.C,D14*%
X27210600Y-33757600D03*
X27210600Y-37057600D03*
X32110600Y-37057600D03*
X32110600Y-33757600D03*
%TD*%
D10*
%TO.C,S18*%
X32475400Y-65278400D03*
D11*
X32975400Y-70428400D03*
D12*
X37975400Y-59378400D03*
D13*
X37975400Y-65278400D03*
D12*
X42975400Y-61478400D03*
D10*
X43475400Y-65278400D03*
%TD*%
%TO.C,S28*%
X212395400Y-65378400D03*
D11*
X212895400Y-70528400D03*
D12*
X217895400Y-59478400D03*
D13*
X217895400Y-65378400D03*
D12*
X222895400Y-61578400D03*
D10*
X223395400Y-65378400D03*
%TD*%
%TO.C,S37*%
X104445400Y-82328400D03*
D11*
X104945400Y-87478400D03*
D12*
X109945400Y-76428400D03*
D13*
X109945400Y-82328400D03*
D12*
X114945400Y-78528400D03*
D10*
X115445400Y-82328400D03*
%TD*%
%TO.C,S7*%
X122475400Y-48258400D03*
D11*
X122975400Y-53408400D03*
D12*
X127975400Y-42358400D03*
D13*
X127975400Y-48258400D03*
D12*
X132975400Y-44458400D03*
D10*
X133475400Y-48258400D03*
%TD*%
%TO.C,S33*%
X32405400Y-82378400D03*
D11*
X32905400Y-87528400D03*
D12*
X37905400Y-76478400D03*
D13*
X37905400Y-82378400D03*
D12*
X42905400Y-78578400D03*
D10*
X43405400Y-82378400D03*
%TD*%
%TO.C,S39*%
X140495400Y-82378400D03*
D11*
X140995400Y-87528400D03*
D12*
X145995400Y-76478400D03*
D13*
X145995400Y-82378400D03*
D12*
X150995400Y-78578400D03*
D10*
X151495400Y-82378400D03*
%TD*%
%TO.C,S17*%
X192101650Y-116378400D03*
D11*
X192601650Y-121528400D03*
D12*
X197601650Y-110478400D03*
D13*
X197601650Y-116378400D03*
D12*
X202601650Y-112578400D03*
D10*
X203101650Y-116378400D03*
%TD*%
%TO.C,S1*%
X14344400Y-48268400D03*
D11*
X14844400Y-53418400D03*
D12*
X19844400Y-42368400D03*
D13*
X19844400Y-48268400D03*
D12*
X24844400Y-44468400D03*
D10*
X25344400Y-48268400D03*
%TD*%
%TO.C,S30*%
X248395400Y-65378400D03*
D11*
X248895400Y-70528400D03*
D12*
X253895400Y-59478400D03*
D13*
X253895400Y-65378400D03*
D12*
X258895400Y-61578400D03*
D10*
X259395400Y-65378400D03*
%TD*%
%TO.C,S54*%
X140395400Y-99378400D03*
D11*
X140895400Y-104528400D03*
D12*
X145895400Y-93478400D03*
D13*
X145895400Y-99378400D03*
D12*
X150895400Y-95578400D03*
D10*
X151395400Y-99378400D03*
%TD*%
%TO.C,S14*%
X230395400Y-65328400D03*
D11*
X230895400Y-70478400D03*
D12*
X235895400Y-59428400D03*
D13*
X235895400Y-65328400D03*
D12*
X240895400Y-61528400D03*
D10*
X241395400Y-65328400D03*
%TD*%
%TO.C,S29*%
X70639150Y-116428400D03*
D11*
X71139150Y-121578400D03*
D12*
X76139150Y-110528400D03*
D13*
X76139150Y-116428400D03*
D12*
X81139150Y-112628400D03*
D10*
X81639150Y-116428400D03*
%TD*%
%TO.C,S25*%
X158395400Y-65328400D03*
D11*
X158895400Y-70478400D03*
D12*
X163895400Y-59428400D03*
D13*
X163895400Y-65328400D03*
D12*
X168895400Y-61528400D03*
D10*
X169395400Y-65328400D03*
%TD*%
D14*
%TO.C,D47*%
X148622600Y-33783000D03*
X148622600Y-37083000D03*
X153522600Y-37083000D03*
X153522600Y-33783000D03*
%TD*%
%TO.C,D65*%
X224543200Y-33734200D03*
X224543200Y-37034200D03*
X229443200Y-37034200D03*
X229443200Y-33734200D03*
%TD*%
D10*
%TO.C,S8*%
X140474400Y-48268400D03*
D11*
X140974400Y-53418400D03*
D12*
X145974400Y-42368400D03*
D13*
X145974400Y-48268400D03*
D12*
X150974400Y-44468400D03*
D10*
X151474400Y-48268400D03*
%TD*%
%TO.C,S16*%
X14395400Y-65278400D03*
D11*
X14895400Y-70428400D03*
D12*
X19895400Y-59378400D03*
D13*
X19895400Y-65278400D03*
D12*
X24895400Y-61478400D03*
D10*
X25395400Y-65278400D03*
%TD*%
%TO.C,S48*%
X32405400Y-99428400D03*
D11*
X32905400Y-104578400D03*
D12*
X37905400Y-93528400D03*
D13*
X37905400Y-99428400D03*
D12*
X42905400Y-95628400D03*
D10*
X43405400Y-99428400D03*
%TD*%
%TO.C,S3*%
X50354400Y-48268400D03*
D11*
X50854400Y-53418400D03*
D12*
X55854400Y-42368400D03*
D13*
X55854400Y-48268400D03*
D12*
X60854400Y-44468400D03*
D10*
X61354400Y-48268400D03*
%TD*%
%TO.C,S12*%
X212295400Y-48278400D03*
D11*
X212795400Y-53428400D03*
D12*
X217795400Y-42378400D03*
D13*
X217795400Y-48278400D03*
D12*
X222795400Y-44478400D03*
D10*
X223295400Y-48278400D03*
%TD*%
%TO.C,S2*%
X32344400Y-48268400D03*
D11*
X32844400Y-53418400D03*
D12*
X37844400Y-42368400D03*
D13*
X37844400Y-48268400D03*
D12*
X42844400Y-44468400D03*
D10*
X43344400Y-48268400D03*
%TD*%
%TO.C,S21*%
X86395400Y-65278400D03*
D11*
X86895400Y-70428400D03*
D12*
X91895400Y-59378400D03*
D13*
X91895400Y-65278400D03*
D12*
X96895400Y-61478400D03*
D10*
X97395400Y-65278400D03*
%TD*%
%TO.C,S27*%
X194395400Y-65378400D03*
D11*
X194895400Y-70528400D03*
D12*
X199895400Y-59478400D03*
D13*
X199895400Y-65378400D03*
D12*
X204895400Y-61578400D03*
D10*
X205395400Y-65378400D03*
%TD*%
%TO.C,S35*%
X68395400Y-82378400D03*
D11*
X68895400Y-87528400D03*
D12*
X73895400Y-76478400D03*
D13*
X73895400Y-82378400D03*
D12*
X78895400Y-78578400D03*
D10*
X79395400Y-82378400D03*
%TD*%
%TO.C,S74*%
X230405400Y-116378400D03*
D11*
X230905400Y-121528400D03*
D12*
X235905400Y-110478400D03*
D13*
X235905400Y-116378400D03*
D12*
X240905400Y-112578400D03*
D10*
X241405400Y-116378400D03*
%TD*%
%TO.C,S36*%
X86395400Y-82378400D03*
D11*
X86895400Y-87528400D03*
D12*
X91895400Y-76478400D03*
D13*
X91895400Y-82378400D03*
D12*
X96895400Y-78578400D03*
D10*
X97395400Y-82378400D03*
%TD*%
%TO.C,S9*%
X158374400Y-48278400D03*
D11*
X158874400Y-53428400D03*
D12*
X163874400Y-42378400D03*
D13*
X163874400Y-48278400D03*
D12*
X168874400Y-44478400D03*
D10*
X169374400Y-48278400D03*
%TD*%
%TO.C,S55*%
X158395400Y-99378400D03*
D11*
X158895400Y-104528400D03*
D12*
X163895400Y-93478400D03*
D13*
X163895400Y-99378400D03*
D12*
X168895400Y-95578400D03*
D10*
X169395400Y-99378400D03*
%TD*%
D15*
%TO.C,REF\u002A\u002A*%
X296575400Y-122987800D03*
%TD*%
D16*
%TO.C,D15*%
X263047400Y-55017400D03*
D17*
X263047400Y-47397400D03*
%TD*%
D16*
%TO.C,D31*%
X28961000Y-89688400D03*
D17*
X28961000Y-82068400D03*
%TD*%
D16*
%TO.C,D68*%
X207802400Y-123673600D03*
D17*
X207802400Y-116053600D03*
%TD*%
D16*
%TO.C,D12*%
X226852400Y-55093600D03*
D17*
X226852400Y-47473600D03*
%TD*%
D16*
%TO.C,D7*%
X137139600Y-54992000D03*
D17*
X137139600Y-47372000D03*
%TD*%
D16*
%TO.C,D37*%
X118953200Y-89078800D03*
D17*
X118953200Y-81458800D03*
%TD*%
D16*
%TO.C,D2*%
X46918800Y-55068200D03*
D17*
X46918800Y-47448200D03*
%TD*%
D16*
%TO.C,D5*%
X100995400Y-55271400D03*
D17*
X100995400Y-47651400D03*
%TD*%
D16*
%TO.C,D63*%
X65460800Y-123546600D03*
D17*
X65460800Y-115926600D03*
%TD*%
D16*
%TO.C,D39*%
X155046600Y-89231200D03*
D17*
X155046600Y-81611200D03*
%TD*%
D16*
%TO.C,D22*%
X119054800Y-71908400D03*
D17*
X119054800Y-64288400D03*
%TD*%
D16*
%TO.C,D75*%
X263784000Y-124435600D03*
D17*
X263784000Y-116815600D03*
%TD*%
D16*
%TO.C,D21*%
X100944600Y-72086200D03*
D17*
X100944600Y-64466200D03*
%TD*%
D16*
%TO.C,D24*%
X154945000Y-72010000D03*
D17*
X154945000Y-64390000D03*
%TD*%
D16*
%TO.C,D43*%
X227563600Y-88774000D03*
D17*
X227563600Y-81154000D03*
%TD*%
D16*
%TO.C,D45*%
X247959800Y-89612200D03*
D17*
X247959800Y-81992200D03*
%TD*%
D16*
%TO.C,D8*%
X155072000Y-55042800D03*
D17*
X155072000Y-47422800D03*
%TD*%
D16*
%TO.C,D11*%
X208894600Y-54941200D03*
D17*
X208894600Y-47321200D03*
%TD*%
D16*
%TO.C,D41*%
X190962200Y-88926400D03*
D17*
X190962200Y-81306400D03*
%TD*%
D16*
%TO.C,D120*%
X244911800Y-72111600D03*
D17*
X244911800Y-64491600D03*
%TD*%
D16*
%TO.C,D27*%
X208920000Y-72035400D03*
D17*
X208920000Y-64415400D03*
%TD*%
D16*
%TO.C,D34*%
X64952800Y-88850200D03*
D17*
X64952800Y-81230200D03*
%TD*%
D16*
%TO.C,D30*%
X263072800Y-72365600D03*
D17*
X263072800Y-64745600D03*
%TD*%
D16*
%TO.C,D26*%
X190911400Y-72264000D03*
D17*
X190911400Y-64644000D03*
%TD*%
D16*
%TO.C,D61*%
X28910200Y-123140200D03*
D17*
X28910200Y-115520200D03*
%TD*%
D16*
%TO.C,D40*%
X173004400Y-89282000D03*
D17*
X173004400Y-81662000D03*
%TD*%
D16*
%TO.C,D6*%
X118902400Y-54687200D03*
D17*
X118902400Y-47067200D03*
%TD*%
D18*
%TO.C,U1*%
X289234800Y-36018200D03*
X289234800Y-38558200D03*
D19*
X289234800Y-41098200D03*
D18*
X289234800Y-43638200D03*
X289234800Y-46178200D03*
X289234800Y-48718200D03*
X289234800Y-51258200D03*
D19*
X289234800Y-53798200D03*
D18*
X289234800Y-56338200D03*
X289234800Y-58878200D03*
X289234800Y-61418200D03*
X289234800Y-63958200D03*
D19*
X289234800Y-66498200D03*
D18*
X289234800Y-69038200D03*
X289234800Y-71578200D03*
X289234800Y-74118200D03*
X289234800Y-76658200D03*
D19*
X289234800Y-79198200D03*
D18*
X289234800Y-81738200D03*
X289234800Y-84278200D03*
X271454800Y-84278200D03*
X271454800Y-81738200D03*
D19*
X271454800Y-79198200D03*
D18*
X271454800Y-76658200D03*
X271454800Y-74118200D03*
X271454800Y-71578200D03*
X271454800Y-69038200D03*
D19*
X271454800Y-66498200D03*
D18*
X271454800Y-63958200D03*
X271454800Y-61418200D03*
X271454800Y-58878200D03*
X271454800Y-56338200D03*
D19*
X271454800Y-53798200D03*
D18*
X271454800Y-51258200D03*
X271454800Y-48718200D03*
X271454800Y-46178200D03*
X271454800Y-43638200D03*
D19*
X271454800Y-41098200D03*
D18*
X271454800Y-38558200D03*
X271454800Y-36018200D03*
X282884800Y-84048200D03*
D19*
X280344800Y-84048200D03*
D18*
X277804800Y-84048200D03*
%TD*%
D16*
%TO.C,D62*%
X46893400Y-123216400D03*
D17*
X46893400Y-115596400D03*
%TD*%
D16*
%TO.C,D36*%
X100919200Y-89358200D03*
D17*
X100919200Y-81738200D03*
%TD*%
D16*
%TO.C,D20*%
X83088400Y-71984600D03*
D17*
X83088400Y-64364600D03*
%TD*%
D16*
%TO.C,D54*%
X154868800Y-106985800D03*
D17*
X154868800Y-99365800D03*
%TD*%
D16*
%TO.C,D33*%
X47071200Y-89028000D03*
D17*
X47071200Y-81408000D03*
%TD*%
D16*
%TO.C,D55*%
X172953600Y-106833400D03*
D17*
X172953600Y-99213400D03*
%TD*%
D16*
%TO.C,D28*%
X226928600Y-72213200D03*
D17*
X226928600Y-64593200D03*
%TD*%
D16*
%TO.C,D50*%
X83063000Y-106173000D03*
D17*
X83063000Y-98553000D03*
%TD*%
D16*
%TO.C,D35*%
X82936000Y-89383600D03*
D17*
X82936000Y-81763600D03*
%TD*%
D16*
%TO.C,D1*%
X28859400Y-54966600D03*
D17*
X28859400Y-47346600D03*
%TD*%
D16*
%TO.C,D18*%
X46969600Y-71959200D03*
D17*
X46969600Y-64339200D03*
%TD*%
D16*
%TO.C,D74*%
X244835600Y-124257800D03*
D17*
X244835600Y-116637800D03*
%TD*%
D16*
%TO.C,D3*%
X65003600Y-54966600D03*
D17*
X65003600Y-47346600D03*
%TD*%
D16*
%TO.C,D13*%
X244962600Y-54992000D03*
D17*
X244962600Y-47372000D03*
%TD*%
D16*
%TO.C,D38*%
X136936400Y-89332800D03*
D17*
X136936400Y-81712800D03*
%TD*%
D16*
%TO.C,D4*%
X82936000Y-55474600D03*
D17*
X82936000Y-47854600D03*
%TD*%
D16*
%TO.C,D25*%
X172953600Y-71933800D03*
D17*
X172953600Y-64313800D03*
%TD*%
D16*
%TO.C,D58*%
X227258800Y-106858800D03*
D17*
X227258800Y-99238800D03*
%TD*%
D16*
%TO.C,D23*%
X137063400Y-71857600D03*
D17*
X137063400Y-64237600D03*
%TD*%
D16*
%TO.C,D57*%
X208920000Y-106604800D03*
D17*
X208920000Y-98984800D03*
%TD*%
D16*
%TO.C,D56*%
X191089200Y-106782600D03*
D17*
X191089200Y-99162600D03*
%TD*%
D16*
%TO.C,D52*%
X118877000Y-107468400D03*
D17*
X118877000Y-99848400D03*
%TD*%
D16*
%TO.C,D51*%
X100893800Y-107163600D03*
D17*
X100893800Y-99543600D03*
%TD*%
D16*
%TO.C,D60*%
X247858200Y-106427000D03*
D17*
X247858200Y-98807000D03*
%TD*%
D16*
%TO.C,D53*%
X136733200Y-107798600D03*
D17*
X136733200Y-100178600D03*
%TD*%
D16*
%TO.C,D42*%
X208894600Y-89180400D03*
D17*
X208894600Y-81560400D03*
%TD*%
D16*
%TO.C,D9*%
X173004400Y-55017400D03*
D17*
X173004400Y-47397400D03*
%TD*%
D16*
%TO.C,D10*%
X190962200Y-54865000D03*
D17*
X190962200Y-47245000D03*
%TD*%
D16*
%TO.C,D73*%
X227055600Y-123749800D03*
D17*
X227055600Y-116129800D03*
%TD*%
D16*
%TO.C,D46*%
X28986400Y-107036600D03*
D17*
X28986400Y-99416600D03*
%TD*%
D16*
%TO.C,D49*%
X64952800Y-106681000D03*
D17*
X64952800Y-99061000D03*
%TD*%
D16*
%TO.C,D121*%
X86314200Y-123597400D03*
D17*
X86314200Y-115977400D03*
%TD*%
D16*
%TO.C,D16*%
X28910200Y-72187800D03*
D17*
X28910200Y-64567800D03*
%TD*%
D16*
%TO.C,D48*%
X47020400Y-106503200D03*
D17*
X47020400Y-98883200D03*
%TD*%
D16*
%TO.C,D19*%
X65054400Y-72238600D03*
D17*
X65054400Y-64618600D03*
%TD*%
M02*
