%TF.GenerationSoftware,KiCad,Pcbnew,9.0.6*%
%TF.CreationDate,2025-12-29T17:27:32-05:00*%
%TF.ProjectId,keyboardepi pico,6b657962-6f61-4726-9465-706920706963,rev?*%
%TF.SameCoordinates,Original*%
%TF.FileFunction,Soldermask,Bot*%
%TF.FilePolarity,Negative*%
%FSLAX46Y46*%
G04 Gerber Fmt 4.6, Leading zero omitted, Abs format (unit mm)*
G04 Created by KiCad (PCBNEW 9.0.6) date 2025-12-29 17:27:32*
%MOMM*%
%LPD*%
G01*
G04 APERTURE LIST*
G04 Aperture macros list*
%AMRoundRect*
0 Rectangle with rounded corners*
0 $1 Rounding radius*
0 $2 $3 $4 $5 $6 $7 $8 $9 X,Y pos of 4 corners*
0 Add a 4 corners polygon primitive as box body*
4,1,4,$2,$3,$4,$5,$6,$7,$8,$9,$2,$3,0*
0 Add four circle primitives for the rounded corners*
1,1,$1+$1,$2,$3*
1,1,$1+$1,$4,$5*
1,1,$1+$1,$6,$7*
1,1,$1+$1,$8,$9*
0 Add four rect primitives between the rounded corners*
20,1,$1+$1,$2,$3,$4,$5,0*
20,1,$1+$1,$4,$5,$6,$7,0*
20,1,$1+$1,$6,$7,$8,$9,0*
20,1,$1+$1,$8,$9,$2,$3,0*%
G04 Aperture macros list end*
%ADD10C,1.900000*%
%ADD11C,1.600000*%
%ADD12C,3.050000*%
%ADD13C,5.050000*%
%ADD14RoundRect,0.250000X-1.025000X-1.000000X1.025000X-1.000000X1.025000X1.000000X-1.025000X1.000000X0*%
%ADD15C,3.200000*%
%ADD16RoundRect,0.250000X0.300000X-0.300000X0.300000X0.300000X-0.300000X0.300000X-0.300000X-0.300000X0*%
%ADD17O,1.700000X1.700000*%
%ADD18R,3.500000X1.700000*%
%ADD19R,1.700000X1.700000*%
%ADD20R,1.700000X3.500000*%
G04 APERTURE END LIST*
D10*
%TO.C,S41*%
X177000000Y-60000000D03*
D11*
X177500000Y-65150000D03*
D12*
X182500000Y-54100000D03*
D13*
X182500000Y-60000000D03*
D12*
X187500000Y-56200000D03*
D10*
X188000000Y-60000000D03*
D14*
X179000000Y-54000000D03*
X191000000Y-56200000D03*
%TD*%
D10*
%TO.C,S24*%
X141000000Y-42900000D03*
D11*
X141500000Y-48050000D03*
D12*
X146500000Y-37000000D03*
D13*
X146500000Y-42900000D03*
D12*
X151500000Y-39100000D03*
D10*
X152000000Y-42900000D03*
D14*
X143000000Y-36900000D03*
X155000000Y-39100000D03*
%TD*%
D10*
%TO.C,S4*%
X68949000Y-25890000D03*
D11*
X69449000Y-31040000D03*
D12*
X74449000Y-19990000D03*
D13*
X74449000Y-25890000D03*
D12*
X79449000Y-22090000D03*
D10*
X79949000Y-25890000D03*
D14*
X70949000Y-19890000D03*
X82949000Y-22090000D03*
%TD*%
D10*
%TO.C,S15*%
X249000000Y-25900000D03*
D11*
X249500000Y-31050000D03*
D12*
X254500000Y-20000000D03*
D13*
X254500000Y-25900000D03*
D12*
X259500000Y-22100000D03*
D10*
X260000000Y-25900000D03*
D14*
X251000000Y-19900000D03*
X263000000Y-22100000D03*
%TD*%
D10*
%TO.C,S10*%
X176910000Y-25900000D03*
D11*
X177410000Y-31050000D03*
D12*
X182410000Y-20000000D03*
D13*
X182410000Y-25900000D03*
D12*
X187410000Y-22100000D03*
D10*
X187910000Y-25900000D03*
D14*
X178910000Y-19900000D03*
X190910000Y-22100000D03*
%TD*%
D10*
%TO.C,S52*%
X105000000Y-77000000D03*
D11*
X105500000Y-82150000D03*
D12*
X110500000Y-71100000D03*
D13*
X110500000Y-77000000D03*
D12*
X115500000Y-73200000D03*
D10*
X116000000Y-77000000D03*
D14*
X107000000Y-71000000D03*
X119000000Y-73200000D03*
%TD*%
D10*
%TO.C,S31*%
X15000000Y-60000000D03*
D11*
X15500000Y-65150000D03*
D12*
X20500000Y-54100000D03*
D13*
X20500000Y-60000000D03*
D12*
X25500000Y-56200000D03*
D10*
X26000000Y-60000000D03*
D14*
X17000000Y-54000000D03*
X29000000Y-56200000D03*
%TD*%
D10*
%TO.C,S5*%
X86979000Y-25890000D03*
D11*
X87479000Y-31040000D03*
D12*
X92479000Y-19990000D03*
D13*
X92479000Y-25890000D03*
D12*
X97479000Y-22090000D03*
D10*
X97979000Y-25890000D03*
D14*
X88979000Y-19890000D03*
X100979000Y-22090000D03*
%TD*%
D10*
%TO.C,S58*%
X213000000Y-77100000D03*
D11*
X213500000Y-82250000D03*
D12*
X218500000Y-71200000D03*
D13*
X218500000Y-77100000D03*
D12*
X223500000Y-73300000D03*
D10*
X224000000Y-77100000D03*
D14*
X215000000Y-71100000D03*
X227000000Y-73300000D03*
%TD*%
D10*
%TO.C,S56*%
X176990000Y-77000000D03*
D11*
X177490000Y-82150000D03*
D12*
X182490000Y-71100000D03*
D13*
X182490000Y-77000000D03*
D12*
X187490000Y-73200000D03*
D10*
X187990000Y-77000000D03*
D14*
X178990000Y-71000000D03*
X190990000Y-73200000D03*
%TD*%
D10*
%TO.C,S19*%
X51000000Y-42950000D03*
D11*
X51500000Y-48100000D03*
D12*
X56500000Y-37050000D03*
D13*
X56500000Y-42950000D03*
D12*
X61500000Y-39150000D03*
D10*
X62000000Y-42950000D03*
D14*
X53000000Y-36950000D03*
X65000000Y-39150000D03*
%TD*%
D10*
%TO.C,S73*%
X213000000Y-94000000D03*
D11*
X213500000Y-99150000D03*
D12*
X218500000Y-88100000D03*
D13*
X218500000Y-94000000D03*
D12*
X223500000Y-90200000D03*
D10*
X224000000Y-94000000D03*
D14*
X215000000Y-88000000D03*
X227000000Y-90200000D03*
%TD*%
D10*
%TO.C,S22*%
X105000000Y-42850000D03*
D11*
X105500000Y-48000000D03*
D12*
X110500000Y-36950000D03*
D13*
X110500000Y-42850000D03*
D12*
X115500000Y-39050000D03*
D10*
X116000000Y-42850000D03*
D14*
X107000000Y-36850000D03*
X119000000Y-39050000D03*
%TD*%
D10*
%TO.C,S45*%
X233300000Y-60050000D03*
D11*
X233800000Y-65200000D03*
D12*
X238800000Y-54150000D03*
D13*
X238800000Y-60050000D03*
D12*
X243800000Y-56250000D03*
D10*
X244300000Y-60050000D03*
D14*
X235300000Y-54050000D03*
X247300000Y-56250000D03*
%TD*%
D10*
%TO.C,S75*%
X249010000Y-94050000D03*
D11*
X249510000Y-99200000D03*
D12*
X254510000Y-88150000D03*
D13*
X254510000Y-94050000D03*
D12*
X259510000Y-90250000D03*
D10*
X260010000Y-94050000D03*
D14*
X251010000Y-88050000D03*
X263010000Y-90250000D03*
%TD*%
D10*
%TO.C,S34*%
X51000000Y-60000000D03*
D11*
X51500000Y-65150000D03*
D12*
X56500000Y-54100000D03*
D13*
X56500000Y-60000000D03*
D12*
X61500000Y-56200000D03*
D10*
X62000000Y-60000000D03*
D14*
X53000000Y-54000000D03*
X65000000Y-56200000D03*
%TD*%
D10*
%TO.C,S42*%
X195000000Y-60000000D03*
D11*
X195500000Y-65150000D03*
D12*
X200500000Y-54100000D03*
D13*
X200500000Y-60000000D03*
D12*
X205500000Y-56200000D03*
D10*
X206000000Y-60000000D03*
D14*
X197000000Y-54000000D03*
X209000000Y-56200000D03*
%TD*%
D10*
%TO.C,S20*%
X69080000Y-42900000D03*
D11*
X69580000Y-48050000D03*
D12*
X74580000Y-37000000D03*
D13*
X74580000Y-42900000D03*
D12*
X79580000Y-39100000D03*
D10*
X80080000Y-42900000D03*
D14*
X71080000Y-36900000D03*
X83080000Y-39100000D03*
%TD*%
D15*
%TO.C,REF\u002A\u002A*%
X7035800Y-14706600D03*
%TD*%
D10*
%TO.C,S11*%
X194900000Y-25900000D03*
D11*
X195400000Y-31050000D03*
D12*
X200400000Y-20000000D03*
D13*
X200400000Y-25900000D03*
D12*
X205400000Y-22100000D03*
D10*
X205900000Y-25900000D03*
D14*
X196900000Y-19900000D03*
X208900000Y-22100000D03*
%TD*%
D10*
%TO.C,S62*%
X33000000Y-94100000D03*
D11*
X33500000Y-99250000D03*
D12*
X38500000Y-88200000D03*
D13*
X38500000Y-94100000D03*
D12*
X43500000Y-90300000D03*
D10*
X44000000Y-94100000D03*
D14*
X35000000Y-88100000D03*
X47000000Y-90300000D03*
%TD*%
D10*
%TO.C,S53*%
X123000000Y-77000000D03*
D11*
X123500000Y-82150000D03*
D12*
X128500000Y-71100000D03*
D13*
X128500000Y-77000000D03*
D12*
X133500000Y-73200000D03*
D10*
X134000000Y-77000000D03*
D14*
X125000000Y-71000000D03*
X137000000Y-73200000D03*
%TD*%
D15*
%TO.C,REF\u002A\u002A*%
X296976800Y-14986000D03*
%TD*%
D10*
%TO.C,S46*%
X14980000Y-77100000D03*
D11*
X15480000Y-82250000D03*
D12*
X20480000Y-71200000D03*
D13*
X20480000Y-77100000D03*
D12*
X25480000Y-73300000D03*
D10*
X25980000Y-77100000D03*
D14*
X16980000Y-71100000D03*
X28980000Y-73300000D03*
%TD*%
D15*
%TO.C,REF\u002A\u002A*%
X7366000Y-100711000D03*
%TD*%
D10*
%TO.C,S50*%
X69000000Y-77000000D03*
D11*
X69500000Y-82150000D03*
D12*
X74500000Y-71100000D03*
D13*
X74500000Y-77000000D03*
D12*
X79500000Y-73200000D03*
D10*
X80000000Y-77000000D03*
D14*
X71000000Y-71000000D03*
X83000000Y-73200000D03*
%TD*%
D10*
%TO.C,S49*%
X51000000Y-77000000D03*
D11*
X51500000Y-82150000D03*
D12*
X56500000Y-71100000D03*
D13*
X56500000Y-77000000D03*
D12*
X61500000Y-73200000D03*
D10*
X62000000Y-77000000D03*
D14*
X53000000Y-71000000D03*
X65000000Y-73200000D03*
%TD*%
D10*
%TO.C,S38*%
X123000000Y-59900000D03*
D11*
X123500000Y-65050000D03*
D12*
X128500000Y-54000000D03*
D13*
X128500000Y-59900000D03*
D12*
X133500000Y-56100000D03*
D10*
X134000000Y-59900000D03*
D14*
X125000000Y-53900000D03*
X137000000Y-56100000D03*
%TD*%
D10*
%TO.C,S43*%
X212990000Y-60050000D03*
D11*
X213490000Y-65200000D03*
D12*
X218490000Y-54150000D03*
D13*
X218490000Y-60050000D03*
D12*
X223490000Y-56250000D03*
D10*
X223990000Y-60050000D03*
D14*
X214990000Y-54050000D03*
X226990000Y-56250000D03*
%TD*%
D10*
%TO.C,S6*%
X104979000Y-25890000D03*
D11*
X105479000Y-31040000D03*
D12*
X110479000Y-19990000D03*
D13*
X110479000Y-25890000D03*
D12*
X115479000Y-22090000D03*
D10*
X115979000Y-25890000D03*
D14*
X106979000Y-19890000D03*
X118979000Y-22090000D03*
%TD*%
D10*
%TO.C,S13*%
X231000000Y-25910000D03*
D11*
X231500000Y-31060000D03*
D12*
X236500000Y-20010000D03*
D13*
X236500000Y-25910000D03*
D12*
X241500000Y-22110000D03*
D10*
X242000000Y-25910000D03*
D14*
X233000000Y-19910000D03*
X245000000Y-22110000D03*
%TD*%
D10*
%TO.C,S57*%
X195000000Y-76950000D03*
D11*
X195500000Y-82100000D03*
D12*
X200500000Y-71050000D03*
D13*
X200500000Y-76950000D03*
D12*
X205500000Y-73150000D03*
D10*
X206000000Y-76950000D03*
D14*
X197000000Y-70950000D03*
X209000000Y-73150000D03*
%TD*%
D10*
%TO.C,S61*%
X15000000Y-94100000D03*
D11*
X15500000Y-99250000D03*
D12*
X20500000Y-88200000D03*
D13*
X20500000Y-94100000D03*
D12*
X25500000Y-90300000D03*
D10*
X26000000Y-94100000D03*
D14*
X17000000Y-88100000D03*
X29000000Y-90300000D03*
%TD*%
D10*
%TO.C,S26*%
X176900000Y-43000000D03*
D11*
X177400000Y-48150000D03*
D12*
X182400000Y-37100000D03*
D13*
X182400000Y-43000000D03*
D12*
X187400000Y-39200000D03*
D10*
X187900000Y-43000000D03*
D14*
X178900000Y-37000000D03*
X190900000Y-39200000D03*
%TD*%
D10*
%TO.C,S23*%
X123000000Y-42850000D03*
D11*
X123500000Y-48000000D03*
D12*
X128500000Y-36950000D03*
D13*
X128500000Y-42850000D03*
D12*
X133500000Y-39050000D03*
D10*
X134000000Y-42850000D03*
D14*
X125000000Y-36850000D03*
X137000000Y-39050000D03*
%TD*%
D10*
%TO.C,S40*%
X159010000Y-59950000D03*
D11*
X159510000Y-65100000D03*
D12*
X164510000Y-54050000D03*
D13*
X164510000Y-59950000D03*
D12*
X169510000Y-56150000D03*
D10*
X170010000Y-59950000D03*
D14*
X161010000Y-53950000D03*
X173010000Y-56150000D03*
%TD*%
D10*
%TO.C,S51*%
X87000000Y-77000000D03*
D11*
X87500000Y-82150000D03*
D12*
X92500000Y-71100000D03*
D13*
X92500000Y-77000000D03*
D12*
X97500000Y-73200000D03*
D10*
X98000000Y-77000000D03*
D14*
X89000000Y-71000000D03*
X101000000Y-73200000D03*
%TD*%
D10*
%TO.C,S60*%
X233300000Y-77000000D03*
D11*
X233800000Y-82150000D03*
D12*
X238800000Y-71100000D03*
D13*
X238800000Y-77000000D03*
D12*
X243800000Y-73200000D03*
D10*
X244300000Y-77000000D03*
D14*
X235300000Y-71000000D03*
X247300000Y-73200000D03*
%TD*%
D10*
%TO.C,S63*%
X51000000Y-94100000D03*
D11*
X51500000Y-99250000D03*
D12*
X56500000Y-88200000D03*
D13*
X56500000Y-94100000D03*
D12*
X61500000Y-90300000D03*
D10*
X62000000Y-94100000D03*
D14*
X53000000Y-88100000D03*
X65000000Y-90300000D03*
%TD*%
D10*
%TO.C,S18*%
X33080000Y-42900000D03*
D11*
X33580000Y-48050000D03*
D12*
X38580000Y-37000000D03*
D13*
X38580000Y-42900000D03*
D12*
X43580000Y-39100000D03*
D10*
X44080000Y-42900000D03*
D14*
X35080000Y-36900000D03*
X47080000Y-39100000D03*
%TD*%
D10*
%TO.C,S28*%
X213000000Y-43000000D03*
D11*
X213500000Y-48150000D03*
D12*
X218500000Y-37100000D03*
D13*
X218500000Y-43000000D03*
D12*
X223500000Y-39200000D03*
D10*
X224000000Y-43000000D03*
D14*
X215000000Y-37000000D03*
X227000000Y-39200000D03*
%TD*%
D10*
%TO.C,S37*%
X105050000Y-59950000D03*
D11*
X105550000Y-65100000D03*
D12*
X110550000Y-54050000D03*
D13*
X110550000Y-59950000D03*
D12*
X115550000Y-56150000D03*
D10*
X116050000Y-59950000D03*
D14*
X107050000Y-53950000D03*
X119050000Y-56150000D03*
%TD*%
D10*
%TO.C,S7*%
X123080000Y-25880000D03*
D11*
X123580000Y-31030000D03*
D12*
X128580000Y-19980000D03*
D13*
X128580000Y-25880000D03*
D12*
X133580000Y-22080000D03*
D10*
X134080000Y-25880000D03*
D14*
X125080000Y-19880000D03*
X137080000Y-22080000D03*
%TD*%
D10*
%TO.C,S33*%
X33010000Y-60000000D03*
D11*
X33510000Y-65150000D03*
D12*
X38510000Y-54100000D03*
D13*
X38510000Y-60000000D03*
D12*
X43510000Y-56200000D03*
D10*
X44010000Y-60000000D03*
D14*
X35010000Y-54000000D03*
X47010000Y-56200000D03*
%TD*%
D10*
%TO.C,S39*%
X141100000Y-60000000D03*
D11*
X141600000Y-65150000D03*
D12*
X146600000Y-54100000D03*
D13*
X146600000Y-60000000D03*
D12*
X151600000Y-56200000D03*
D10*
X152100000Y-60000000D03*
D14*
X143100000Y-54000000D03*
X155100000Y-56200000D03*
%TD*%
D10*
%TO.C,S17*%
X192706250Y-94000000D03*
D11*
X193206250Y-99150000D03*
D12*
X198206250Y-88100000D03*
D13*
X198206250Y-94000000D03*
D12*
X203206250Y-90200000D03*
D10*
X203706250Y-94000000D03*
D14*
X194706250Y-88000000D03*
X206706250Y-90200000D03*
%TD*%
D10*
%TO.C,S1*%
X14949000Y-25890000D03*
D11*
X15449000Y-31040000D03*
D12*
X20449000Y-19990000D03*
D13*
X20449000Y-25890000D03*
D12*
X25449000Y-22090000D03*
D10*
X25949000Y-25890000D03*
D14*
X16949000Y-19890000D03*
X28949000Y-22090000D03*
%TD*%
D10*
%TO.C,S30*%
X249000000Y-43000000D03*
D11*
X249500000Y-48150000D03*
D12*
X254500000Y-37100000D03*
D13*
X254500000Y-43000000D03*
D12*
X259500000Y-39200000D03*
D10*
X260000000Y-43000000D03*
D14*
X251000000Y-37000000D03*
X263000000Y-39200000D03*
%TD*%
D10*
%TO.C,S54*%
X141000000Y-77000000D03*
D11*
X141500000Y-82150000D03*
D12*
X146500000Y-71100000D03*
D13*
X146500000Y-77000000D03*
D12*
X151500000Y-73200000D03*
D10*
X152000000Y-77000000D03*
D14*
X143000000Y-71000000D03*
X155000000Y-73200000D03*
%TD*%
D10*
%TO.C,S14*%
X231000000Y-42950000D03*
D11*
X231500000Y-48100000D03*
D12*
X236500000Y-37050000D03*
D13*
X236500000Y-42950000D03*
D12*
X241500000Y-39150000D03*
D10*
X242000000Y-42950000D03*
D14*
X233000000Y-36950000D03*
X245000000Y-39150000D03*
%TD*%
D10*
%TO.C,S29*%
X71243750Y-94050000D03*
D11*
X71743750Y-99200000D03*
D12*
X76743750Y-88150000D03*
D13*
X76743750Y-94050000D03*
D12*
X81743750Y-90250000D03*
D10*
X82243750Y-94050000D03*
D14*
X73243750Y-88050000D03*
X85243750Y-90250000D03*
%TD*%
D10*
%TO.C,S25*%
X159000000Y-42950000D03*
D11*
X159500000Y-48100000D03*
D12*
X164500000Y-37050000D03*
D13*
X164500000Y-42950000D03*
D12*
X169500000Y-39150000D03*
D10*
X170000000Y-42950000D03*
D14*
X161000000Y-36950000D03*
X173000000Y-39150000D03*
%TD*%
D10*
%TO.C,S8*%
X141079000Y-25890000D03*
D11*
X141579000Y-31040000D03*
D12*
X146579000Y-19990000D03*
D13*
X146579000Y-25890000D03*
D12*
X151579000Y-22090000D03*
D10*
X152079000Y-25890000D03*
D14*
X143079000Y-19890000D03*
X155079000Y-22090000D03*
%TD*%
D10*
%TO.C,S16*%
X15000000Y-42900000D03*
D11*
X15500000Y-48050000D03*
D12*
X20500000Y-37000000D03*
D13*
X20500000Y-42900000D03*
D12*
X25500000Y-39100000D03*
D10*
X26000000Y-42900000D03*
D14*
X17000000Y-36900000D03*
X29000000Y-39100000D03*
%TD*%
D10*
%TO.C,S48*%
X33010000Y-77050000D03*
D11*
X33510000Y-82200000D03*
D12*
X38510000Y-71150000D03*
D13*
X38510000Y-77050000D03*
D12*
X43510000Y-73250000D03*
D10*
X44010000Y-77050000D03*
D14*
X35010000Y-71050000D03*
X47010000Y-73250000D03*
%TD*%
D10*
%TO.C,S3*%
X50959000Y-25890000D03*
D11*
X51459000Y-31040000D03*
D12*
X56459000Y-19990000D03*
D13*
X56459000Y-25890000D03*
D12*
X61459000Y-22090000D03*
D10*
X61959000Y-25890000D03*
D14*
X52959000Y-19890000D03*
X64959000Y-22090000D03*
%TD*%
D10*
%TO.C,S12*%
X212900000Y-25900000D03*
D11*
X213400000Y-31050000D03*
D12*
X218400000Y-20000000D03*
D13*
X218400000Y-25900000D03*
D12*
X223400000Y-22100000D03*
D10*
X223900000Y-25900000D03*
D14*
X214900000Y-19900000D03*
X226900000Y-22100000D03*
%TD*%
D10*
%TO.C,S2*%
X32949000Y-25890000D03*
D11*
X33449000Y-31040000D03*
D12*
X38449000Y-19990000D03*
D13*
X38449000Y-25890000D03*
D12*
X43449000Y-22090000D03*
D10*
X43949000Y-25890000D03*
D14*
X34949000Y-19890000D03*
X46949000Y-22090000D03*
%TD*%
D10*
%TO.C,S21*%
X87000000Y-42900000D03*
D11*
X87500000Y-48050000D03*
D12*
X92500000Y-37000000D03*
D13*
X92500000Y-42900000D03*
D12*
X97500000Y-39100000D03*
D10*
X98000000Y-42900000D03*
D14*
X89000000Y-36900000D03*
X101000000Y-39100000D03*
%TD*%
D10*
%TO.C,S27*%
X195000000Y-43000000D03*
D11*
X195500000Y-48150000D03*
D12*
X200500000Y-37100000D03*
D13*
X200500000Y-43000000D03*
D12*
X205500000Y-39200000D03*
D10*
X206000000Y-43000000D03*
D14*
X197000000Y-37000000D03*
X209000000Y-39200000D03*
%TD*%
D10*
%TO.C,S35*%
X69000000Y-60000000D03*
D11*
X69500000Y-65150000D03*
D12*
X74500000Y-54100000D03*
D13*
X74500000Y-60000000D03*
D12*
X79500000Y-56200000D03*
D10*
X80000000Y-60000000D03*
D14*
X71000000Y-54000000D03*
X83000000Y-56200000D03*
%TD*%
D10*
%TO.C,S74*%
X231010000Y-94000000D03*
D11*
X231510000Y-99150000D03*
D12*
X236510000Y-88100000D03*
D13*
X236510000Y-94000000D03*
D12*
X241510000Y-90200000D03*
D10*
X242010000Y-94000000D03*
D14*
X233010000Y-88000000D03*
X245010000Y-90200000D03*
%TD*%
D10*
%TO.C,S36*%
X87000000Y-60000000D03*
D11*
X87500000Y-65150000D03*
D12*
X92500000Y-54100000D03*
D13*
X92500000Y-60000000D03*
D12*
X97500000Y-56200000D03*
D10*
X98000000Y-60000000D03*
D14*
X89000000Y-54000000D03*
X101000000Y-56200000D03*
%TD*%
D10*
%TO.C,S9*%
X158979000Y-25900000D03*
D11*
X159479000Y-31050000D03*
D12*
X164479000Y-20000000D03*
D13*
X164479000Y-25900000D03*
D12*
X169479000Y-22100000D03*
D10*
X169979000Y-25900000D03*
D14*
X160979000Y-19900000D03*
X172979000Y-22100000D03*
%TD*%
D10*
%TO.C,S55*%
X159000000Y-77000000D03*
D11*
X159500000Y-82150000D03*
D12*
X164500000Y-71100000D03*
D13*
X164500000Y-77000000D03*
D12*
X169500000Y-73200000D03*
D10*
X170000000Y-77000000D03*
D14*
X161000000Y-71000000D03*
X173000000Y-73200000D03*
%TD*%
D15*
%TO.C,REF\u002A\u002A*%
X297180000Y-100609400D03*
%TD*%
D16*
%TO.C,D15*%
X263499600Y-30584600D03*
X263499600Y-27784600D03*
%TD*%
%TO.C,D31*%
X29413200Y-64087200D03*
X29413200Y-61287200D03*
%TD*%
%TO.C,D68*%
X208457800Y-95888000D03*
X208457800Y-93088000D03*
%TD*%
%TO.C,D12*%
X227406200Y-31245000D03*
X227406200Y-28445000D03*
%TD*%
%TO.C,D7*%
X137591800Y-32769000D03*
X137591800Y-29969000D03*
%TD*%
%TO.C,D37*%
X119557800Y-64493600D03*
X119557800Y-61693600D03*
%TD*%
%TO.C,D2*%
X47421800Y-32515000D03*
X47421800Y-29715000D03*
%TD*%
%TO.C,D5*%
X101498400Y-32845200D03*
X101498400Y-30045200D03*
%TD*%
%TO.C,D63*%
X66116200Y-97031000D03*
X66116200Y-94231000D03*
%TD*%
%TO.C,D39*%
X155575000Y-65560400D03*
X155575000Y-62760400D03*
%TD*%
%TO.C,D22*%
X119507000Y-46586600D03*
X119507000Y-43786600D03*
%TD*%
%TO.C,D75*%
X264287000Y-96065800D03*
X264287000Y-93265800D03*
%TD*%
%TO.C,D21*%
X101549200Y-46104000D03*
X101549200Y-43304000D03*
%TD*%
%TO.C,D24*%
X155473400Y-46437200D03*
X155473400Y-43637200D03*
%TD*%
%TO.C,D43*%
X227863400Y-64547400D03*
X227863400Y-61747400D03*
%TD*%
%TO.C,D45*%
X248996200Y-64265000D03*
X248996200Y-61465000D03*
%TD*%
%TO.C,D8*%
X155524200Y-32743600D03*
X155524200Y-29943600D03*
%TD*%
%TO.C,D11*%
X209346800Y-31095600D03*
X209346800Y-28295600D03*
%TD*%
%TO.C,D41*%
X191414400Y-64925400D03*
X191414400Y-62125400D03*
%TD*%
%TO.C,D120*%
X245440200Y-46307200D03*
X245440200Y-43507200D03*
%TD*%
%TO.C,D27*%
X209550000Y-46891400D03*
X209550000Y-44091400D03*
%TD*%
%TO.C,D34*%
X65582800Y-63680800D03*
X65582800Y-60880800D03*
%TD*%
%TO.C,D30*%
X263601200Y-46383400D03*
X263601200Y-43583400D03*
%TD*%
%TO.C,D26*%
X191541400Y-46764400D03*
X191541400Y-43964400D03*
%TD*%
%TO.C,D61*%
X29514800Y-97564400D03*
X29514800Y-94764400D03*
%TD*%
%TO.C,D40*%
X173456600Y-65611200D03*
X173456600Y-62811200D03*
%TD*%
%TO.C,D6*%
X119507000Y-32743600D03*
X119507000Y-29943600D03*
%TD*%
%TO.C,D62*%
X47498000Y-97767600D03*
X47498000Y-94967600D03*
%TD*%
%TO.C,D36*%
X101523800Y-63477600D03*
X101523800Y-60677600D03*
%TD*%
%TO.C,D20*%
X83540600Y-46180200D03*
X83540600Y-43380200D03*
%TD*%
%TO.C,D54*%
X155575000Y-81003600D03*
X155575000Y-78203600D03*
%TD*%
%TO.C,D33*%
X47523400Y-63960200D03*
X47523400Y-61160200D03*
%TD*%
%TO.C,D55*%
X173456600Y-81257600D03*
X173456600Y-78457600D03*
%TD*%
%TO.C,D28*%
X227457000Y-46383400D03*
X227457000Y-43583400D03*
%TD*%
%TO.C,D50*%
X83439000Y-82172000D03*
X83439000Y-79372000D03*
%TD*%
%TO.C,D35*%
X83489800Y-63325200D03*
X83489800Y-60525200D03*
%TD*%
%TO.C,D1*%
X29489400Y-32311800D03*
X29489400Y-29511800D03*
%TD*%
D17*
%TO.C,U1*%
X287496250Y-13970000D03*
D18*
X288396250Y-13970000D03*
D17*
X287496250Y-16510000D03*
D18*
X288396250Y-16510000D03*
D19*
X287496250Y-19050000D03*
D18*
X288396250Y-19050000D03*
D17*
X287496250Y-21590000D03*
D18*
X288396250Y-21590000D03*
D17*
X287496250Y-24130000D03*
D18*
X288396250Y-24130000D03*
D17*
X287496250Y-26670000D03*
D18*
X288396250Y-26670000D03*
D17*
X287496250Y-29210000D03*
D18*
X288396250Y-29210000D03*
D19*
X287496250Y-31750000D03*
D18*
X288396250Y-31750000D03*
D17*
X287496250Y-34290000D03*
D18*
X288396250Y-34290000D03*
D17*
X287496250Y-36830000D03*
D18*
X288396250Y-36830000D03*
D17*
X287496250Y-39370000D03*
D18*
X288396250Y-39370000D03*
D17*
X287496250Y-41910000D03*
D18*
X288396250Y-41910000D03*
D19*
X287496250Y-44450000D03*
D18*
X288396250Y-44450000D03*
D17*
X287496250Y-46990000D03*
D18*
X288396250Y-46990000D03*
D17*
X287496250Y-49530000D03*
D18*
X288396250Y-49530000D03*
D17*
X287496250Y-52070000D03*
D18*
X288396250Y-52070000D03*
D17*
X287496250Y-54610000D03*
D18*
X288396250Y-54610000D03*
D19*
X287496250Y-57150000D03*
D18*
X288396250Y-57150000D03*
D17*
X287496250Y-59690000D03*
D18*
X288396250Y-59690000D03*
D17*
X287496250Y-62230000D03*
D18*
X288396250Y-62230000D03*
D17*
X269716250Y-62230000D03*
D18*
X268816250Y-62230000D03*
D17*
X269716250Y-59690000D03*
D18*
X268816250Y-59690000D03*
D19*
X269716250Y-57150000D03*
D18*
X268816250Y-57150000D03*
D17*
X269716250Y-54610000D03*
D18*
X268816250Y-54610000D03*
D17*
X269716250Y-52070000D03*
D18*
X268816250Y-52070000D03*
D17*
X269716250Y-49530000D03*
D18*
X268816250Y-49530000D03*
D17*
X269716250Y-46990000D03*
D18*
X268816250Y-46990000D03*
D19*
X269716250Y-44450000D03*
D18*
X268816250Y-44450000D03*
D17*
X269716250Y-41910000D03*
D18*
X268816250Y-41910000D03*
D17*
X269716250Y-39370000D03*
D18*
X268816250Y-39370000D03*
D17*
X269716250Y-36830000D03*
D18*
X268816250Y-36830000D03*
D17*
X269716250Y-34290000D03*
D18*
X268816250Y-34290000D03*
D19*
X269716250Y-31750000D03*
D18*
X268816250Y-31750000D03*
D17*
X269716250Y-29210000D03*
D18*
X268816250Y-29210000D03*
D17*
X269716250Y-26670000D03*
D18*
X268816250Y-26670000D03*
D17*
X269716250Y-24130000D03*
D18*
X268816250Y-24130000D03*
D17*
X269716250Y-21590000D03*
D18*
X268816250Y-21590000D03*
D19*
X269716250Y-19050000D03*
D18*
X268816250Y-19050000D03*
D17*
X269716250Y-16510000D03*
D18*
X268816250Y-16510000D03*
D17*
X269716250Y-13970000D03*
D18*
X268816250Y-13970000D03*
D17*
X281146250Y-62000000D03*
D20*
X281146250Y-62900000D03*
D19*
X278606250Y-62000000D03*
D20*
X278606250Y-62900000D03*
D17*
X276066250Y-62000000D03*
D20*
X276066250Y-62900000D03*
%TD*%
D16*
%TO.C,D18*%
X47523400Y-46310200D03*
X47523400Y-43510200D03*
%TD*%
%TO.C,D74*%
X245618000Y-97488200D03*
X245618000Y-94688200D03*
%TD*%
%TO.C,D3*%
X65405000Y-32159400D03*
X65405000Y-29359400D03*
%TD*%
%TO.C,D13*%
X245491000Y-30486000D03*
X245491000Y-27686000D03*
%TD*%
%TO.C,D38*%
X137490200Y-65814400D03*
X137490200Y-63014400D03*
%TD*%
%TO.C,D4*%
X83464400Y-32769000D03*
X83464400Y-29969000D03*
%TD*%
%TO.C,D25*%
X173482000Y-46281800D03*
X173482000Y-43481800D03*
%TD*%
%TO.C,D58*%
X227888800Y-78743000D03*
X227888800Y-75943000D03*
%TD*%
%TO.C,D23*%
X137515600Y-46688200D03*
X137515600Y-43888200D03*
%TD*%
%TO.C,D57*%
X209524600Y-80952800D03*
X209524600Y-78152800D03*
%TD*%
%TO.C,D56*%
X191465200Y-80851200D03*
X191465200Y-78051200D03*
%TD*%
%TO.C,D52*%
X119557800Y-81638600D03*
X119557800Y-78838600D03*
%TD*%
%TO.C,D51*%
X101498400Y-82324400D03*
X101498400Y-79524400D03*
%TD*%
%TO.C,D60*%
X248005600Y-80063800D03*
X248005600Y-77263800D03*
%TD*%
%TO.C,D53*%
X137414000Y-81714800D03*
X137414000Y-78914800D03*
%TD*%
%TO.C,D42*%
X209524600Y-64595200D03*
X209524600Y-61795200D03*
%TD*%
%TO.C,D9*%
X173456600Y-32718200D03*
X173456600Y-29918200D03*
%TD*%
%TO.C,D10*%
X191414400Y-32515000D03*
X191414400Y-29715000D03*
%TD*%
%TO.C,D73*%
X227533200Y-97818400D03*
X227533200Y-95018400D03*
%TD*%
%TO.C,D46*%
X29514800Y-82349800D03*
X29514800Y-79549800D03*
%TD*%
%TO.C,D49*%
X65405000Y-82172000D03*
X65405000Y-79372000D03*
%TD*%
%TO.C,D121*%
X86944200Y-97310400D03*
X86944200Y-94510400D03*
%TD*%
%TO.C,D16*%
X29565600Y-46434200D03*
X29565600Y-43634200D03*
%TD*%
%TO.C,D48*%
X47472600Y-82095800D03*
X47472600Y-79295800D03*
%TD*%
%TO.C,D19*%
X65506600Y-46332600D03*
X65506600Y-43532600D03*
%TD*%
M02*
